<svg width="28" height="20" viewBox="0 0 28 20" fill="none" xmlns="http://www.w3.org/2000/svg">
<rect x="0.25" y="0.25" width="27.5" height="19.5" rx="1.75" fill="white" stroke="#FBFBFB" stroke-width="0.5"/>
<mask id="mask0_3226_6599" style="mask-type:luminance" maskUnits="userSpaceOnUse" x="0" y="0" width="28" height="20">
<rect x="0.25" y="0.25" width="27.5" height="19.5" rx="1.75" fill="white" stroke="white" stroke-width="0.5"/>
</mask>
<g mask="url(#mask0_3226_6599)">
<path fill-rule="evenodd" clip-rule="evenodd" d="M0 6.66667H28V0H0V6.66667Z" fill="#FFA44A"/>
<path fill-rule="evenodd" clip-rule="evenodd" d="M0 20.0007H28V13.334H0V20.0007Z" fill="#1A9F0B"/>
<path d="M14 12.3333C15.2887 12.3333 16.3333 11.2887 16.3333 10C16.3333 8.71134 15.2887 7.66667 14 7.66667C12.7113 7.66667 11.6667 8.71134 11.6667 10C11.6667 11.2887 12.7113 12.3333 14 12.3333Z" fill="#181A93" fill-opacity="0.15" stroke="#181A93" stroke-width="0.666667"/>
<path fill-rule="evenodd" clip-rule="evenodd" d="M13.9997 10.6673C14.3679 10.6673 14.6663 10.3688 14.6663 10.0007C14.6663 9.63246 14.3679 9.33398 13.9997 9.33398C13.6315 9.33398 13.333 9.63246 13.333 10.0007C13.333 10.3688 13.6315 10.6673 13.9997 10.6673Z" fill="#181A93"/>
</g>
</svg>
