<svg width="24" height="24" viewBox="0 0 24 24" fill="none" xmlns="http://www.w3.org/2000/svg">
  <path
    d="M24 12C24 9.62662 23.2962 7.30654 21.9776 5.33315C20.6591 3.35976 18.7849 1.82169 16.5922 0.913443C14.3995 0.00519114 11.9867 -0.232449 9.65892 0.230573C7.33114 0.693596 5.19295 1.83648 3.51472 3.51471C1.83649 5.19294 0.693599 7.33114 0.230576 9.65891C-0.232447 11.9867 0.00519282 14.3995 0.913444 16.5922C1.8217 18.7849 3.35976 20.6591 5.33315 21.9776C7.30654 23.2962 9.62662 24 12 24C15.1815 23.9966 18.2318 22.7312 20.4815 20.4815C22.7312 18.2318 23.9966 15.1815 24 12ZM2 12C2 10.0222 2.58649 8.08879 3.6853 6.44429C4.78412 4.7998 6.3459 3.51808 8.17317 2.7612C10.0004 2.00432 12.0111 1.80629 13.9509 2.19214C15.8907 2.578 17.6725 3.5304 19.0711 4.92893C20.4696 6.32745 21.422 8.10928 21.8079 10.0491C22.1937 11.9889 21.9957 13.9996 21.2388 15.8268C20.4819 17.6541 19.2002 19.2159 17.5557 20.3147C15.9112 21.4135 13.9778 22 12 22C9.34873 21.9971 6.80688 20.9426 4.93215 19.0678C3.05741 17.1931 2.00291 14.6513 2 12Z"
    fill="currentColor"/>
  <path
    d="M7.99946 12C7.99871 11.268 8.26624 10.5611 8.75146 10.013C9.04246 9.68599 9.32546 9.37599 9.52846 9.17299L12.3525 6.29999C12.4429 6.20012 12.5526 6.11955 12.6749 6.06312C12.7972 6.00669 12.9297 5.97556 13.0644 5.9716C13.199 5.96764 13.3331 5.99093 13.4585 6.04008C13.584 6.08922 13.6982 6.16321 13.7943 6.25759C13.8905 6.35197 13.9665 6.46481 14.018 6.58932C14.0694 6.71383 14.0952 6.84746 14.0937 6.98217C14.0922 7.11688 14.0635 7.24991 14.0094 7.37326C13.9552 7.49661 13.8766 7.60775 13.7785 7.69999L10.9495 10.58C10.7625 10.768 10.5085 11.048 10.2495 11.339C10.0883 11.5217 9.9994 11.7569 9.9994 12.0005C9.9994 12.2441 10.0883 12.4793 10.2495 12.662C10.5075 12.952 10.7615 13.232 10.9425 13.414L13.7785 16.3C13.8766 16.3922 13.9552 16.5034 14.0094 16.6267C14.0635 16.7501 14.0922 16.8831 14.0937 17.0178C14.0952 17.1525 14.0694 17.2861 14.018 17.4107C13.9665 17.5352 13.8905 17.648 13.7943 17.7424C13.6982 17.8368 13.584 17.9108 13.4585 17.9599C13.3331 18.009 13.199 18.0323 13.0644 18.0284C12.9297 18.0244 12.7972 17.9933 12.6749 17.9369C12.5525 17.8804 12.4429 17.7999 12.3525 17.7L9.52346 14.821C9.32346 14.621 9.04346 14.314 8.75446 13.988C8.26768 13.4402 7.99901 12.7328 7.99946 12Z"
    fill="currentColor"/>
</svg>
