<svg width="48" height="48" viewBox="0 0 48 48" fill="none" xmlns="http://www.w3.org/2000/svg">
  <rect x="-0.5" y="0.5" width="47" height="47" rx="23.5" transform="matrix(-1 0 0 1 47 0)" stroke="#D4D4D4"/>
  <path
    d="M30.2558 24.5883L21.1996 33.217C21.0485 33.361 20.8478 33.4414 20.639 33.4414C20.4303 33.4414 20.2295 33.361 20.0784 33.217L20.0686 33.2073C19.9951 33.1374 19.9366 33.0534 19.8966 32.9602C19.8566 32.867 19.836 32.7667 19.836 32.6653C19.836 32.5639 19.8566 32.4636 19.8966 32.3704C19.9366 32.2773 19.9951 32.1932 20.0686 32.1234L28.5966 23.9984L20.0686 15.8766C19.9951 15.8068 19.9366 15.7227 19.8966 15.6296C19.8566 15.5364 19.836 15.4361 19.836 15.3347C19.836 15.2333 19.8566 15.133 19.8966 15.0398C19.9366 14.9466 19.9951 14.8626 20.0686 14.7928L20.0784 14.783C20.2295 14.639 20.4303 14.5586 20.639 14.5586C20.8478 14.5586 21.0485 14.639 21.1996 14.783L30.2558 23.4118C30.3354 23.4876 30.3988 23.5789 30.4421 23.68C30.4855 23.7811 30.5078 23.89 30.5078 24C30.5078 24.11 30.4855 24.2189 30.4421 24.32C30.3988 24.4211 30.3354 24.5124 30.2558 24.5883Z"
    fill="#171717"/>
</svg>
