<svg width="12" height="13" viewBox="0 0 12 13" fill="none" xmlns="http://www.w3.org/2000/svg">
  <path fill-rule="evenodd" clip-rule="evenodd"
        d="M5.98763 9.87291L2.72763 11.8639C2.64635 11.9133 2.55224 11.9374 2.45724 11.9332C2.36224 11.929 2.27063 11.8966 2.19403 11.8403C2.11743 11.7839 2.0593 11.7061 2.027 11.6167C1.9947 11.5272 1.9897 11.4302 2.01263 11.3379L2.95763 7.57391L0.217632 5.44091C0.141156 5.38178 0.0843184 5.30093 0.0545593 5.20895C0.0248001 5.11697 0.0235068 5.01815 0.0508487 4.92543C0.0781905 4.83271 0.132893 4.7504 0.207795 4.68928C0.282697 4.62817 0.374307 4.59109 0.470632 4.58291L4.05663 4.28791L5.55263 0.800911C5.58964 0.714425 5.65126 0.640722 5.72981 0.58896C5.80836 0.537198 5.90039 0.509659 5.99446 0.509766C6.08854 0.509872 6.1805 0.53762 6.25894 0.589559C6.33737 0.641499 6.39882 0.715342 6.43563 0.801911L7.91863 4.28791L11.5286 4.58391C11.6249 4.59195 11.7165 4.62884 11.7914 4.68976C11.8663 4.75067 11.9212 4.83278 11.9487 4.92535C11.9763 5.01792 11.9752 5.11664 11.9458 5.20862C11.9163 5.3006 11.8598 5.38156 11.7836 5.44091L9.03163 7.57391L9.97463 11.3399C9.99783 11.4323 9.99302 11.5294 9.96084 11.6191C9.92865 11.7087 9.87053 11.7867 9.79388 11.8432C9.71722 11.8997 9.6255 11.9321 9.53036 11.9364C9.43523 11.9406 9.34099 11.9164 9.25963 11.8669L5.98763 9.87191V9.87291Z"
        fill="currentColor"/>
</svg>
