<svg width="48" height="48" viewBox="0 0 48 48" fill="none" xmlns="http://www.w3.org/2000/svg">
  <rect x="0.5" y="0.5" width="47" height="47" rx="23.5" stroke="#D4D4D4"/>
  <path
    d="M17.7442 24.5883L26.8004 33.217C26.9515 33.361 27.1522 33.4414 27.361 33.4414C27.5697 33.4414 27.7705 33.361 27.9216 33.217L27.9314 33.2073C28.0049 33.1374 28.0634 33.0534 28.1034 32.9602C28.1434 32.867 28.164 32.7667 28.164 32.6653C28.164 32.5639 28.1434 32.4636 28.1034 32.3704C28.0634 32.2773 28.0049 32.1932 27.9314 32.1234L19.4034 23.9984L27.9314 15.8766C28.0049 15.8068 28.0634 15.7227 28.1034 15.6296C28.1434 15.5364 28.164 15.4361 28.164 15.3347C28.164 15.2333 28.1434 15.133 28.1034 15.0398C28.0634 14.9466 28.0049 14.8626 27.9314 14.7928L27.9216 14.783C27.7705 14.639 27.5697 14.5586 27.361 14.5586C27.1522 14.5586 26.9515 14.639 26.8004 14.783L17.7442 23.4118C17.6646 23.4876 17.6012 23.5789 17.5579 23.68C17.5145 23.7811 17.4922 23.89 17.4922 24C17.4922 24.11 17.5145 24.2189 17.5579 24.32C17.6012 24.4211 17.6646 24.5124 17.7442 24.5883Z"
    fill="#171717"/>
</svg>
