<svg width="28" height="28" viewBox="0 0 28 28" fill="none" xmlns="http://www.w3.org/2000/svg">
  <path fill-rule="evenodd" clip-rule="evenodd"
        d="M14 26C20.6 26 26 20.624 26 14C26 7.376 20.6 2 14 2C7.376 2 2 7.376 2 14C2 20.624 7.376 26 14 26Z"
        fill="#299400"/>
  <path fill-rule="evenodd" clip-rule="evenodd"
        d="M13.9998 5.59961C18.2886 5.59961 21.1998 8.83234 21.1998 12.3196C21.1998 13.7196 20.8879 14.9414 20.1601 16.4687C15.8973 16.4687 15.1175 19.2432 14.9355 21.1014L14.8056 22.3996H13.194L13.0641 21.1014C12.8821 19.2432 12.1023 16.4687 7.83952 16.4687C7.11172 14.9414 6.7998 13.7196 6.7998 12.3196C6.7998 8.83234 9.711 5.59961 13.9998 5.59961V5.59961Z"
        fill="white"/>
</svg>
