<svg width="24" height="24" viewBox="0 0 24 24" fill="none" xmlns="http://www.w3.org/2000/svg">
  <path
    d="M19.9999 14.0001C20.2547 14.0004 20.4999 14.098 20.6852 14.273C20.8706 14.4479 20.9821 14.6871 20.997 14.9415C21.012 15.1959 20.9292 15.4465 20.7656 15.6419C20.602 15.8374 20.37 15.963 20.1169 15.9931L19.9999 16.0001H6.41387L8.70687 18.2931C8.88622 18.4731 8.99034 18.7145 8.9981 18.9685C9.00585 19.2224 8.91665 19.4698 8.74862 19.6604C8.58059 19.8509 8.34632 19.9704 8.09339 19.9945C7.84047 20.0186 7.58786 19.9455 7.38687 19.7901L7.29287 19.7071L3.46287 15.8771C2.79787 15.2131 3.22387 14.0941 4.12587 14.0061L4.24087 14.0001H19.9999ZM15.2929 4.29311C15.4651 4.12093 15.6942 4.0175 15.9372 4.00222C16.1802 3.98694 16.4205 4.06085 16.6129 4.21011L16.7069 4.29311L20.5369 8.12311C21.2019 8.78711 20.7759 9.90611 19.8739 9.99411L19.7589 10.0001H3.99987C3.74499 9.99982 3.49984 9.90223 3.3145 9.72726C3.12916 9.55229 3.01763 9.31315 3.0027 9.05871C2.98776 8.80427 3.07054 8.55373 3.23413 8.35827C3.39772 8.16282 3.62977 8.03721 3.88287 8.00711L3.99987 8.00011H17.5859L15.2929 5.70711C15.1054 5.51958 15.0001 5.26527 15.0001 5.00011C15.0001 4.73494 15.1054 4.48063 15.2929 4.29311Z"
    fill="currentColor"/>
</svg>
