<svg width="20" height="20" viewBox="0 0 20 20" fill="none" xmlns="http://www.w3.org/2000/svg">
  <path fill-rule="evenodd" clip-rule="evenodd"
        d="M14.7559 5.24652C15.0814 5.57196 15.0814 6.09959 14.7559 6.42503L6.42259 14.7584C6.09715 15.0838 5.56951 15.0838 5.24408 14.7584C4.91864 14.4329 4.91864 13.9053 5.24408 13.5799L13.5774 5.24652C13.9028 4.92108 14.4305 4.92108 14.7559 5.24652Z"
        fill="currentColor"/>
  <path fill-rule="evenodd" clip-rule="evenodd"
        d="M5 5.83577C5 5.37554 5.3731 5.00244 5.83333 5.00244H14.1667C14.6269 5.00244 15 5.37554 15 5.83577V14.1691C15 14.6293 14.6269 15.0024 14.1667 15.0024C13.7064 15.0024 13.3333 14.6293 13.3333 14.1691V6.66911H5.83333C5.3731 6.66911 5 6.29601 5 5.83577Z"
        fill="currentColor"/>
</svg>
