<svg width="76" height="76" viewBox="0 0 76 76" fill="none" xmlns="http://www.w3.org/2000/svg">
<path d="M30.0833 49.3492V26.6505C30.0838 26.3665 30.1607 26.0879 30.3058 25.8438C30.451 25.5997 30.6592 25.3991 30.9085 25.2632C31.1578 25.1272 31.4391 25.0607 31.7229 25.0708C32.0068 25.0809 32.2826 25.1672 32.5217 25.3205L50.179 36.6667C50.4026 36.8099 50.5866 37.0071 50.714 37.2401C50.8414 37.4731 50.9082 37.7343 50.9082 37.9999C50.9082 38.2654 50.8414 38.5267 50.714 38.7596C50.5866 38.9926 50.4026 39.1898 50.179 39.333L32.5217 50.6824C32.2826 50.8357 32.0068 50.922 31.7229 50.9321C31.4391 50.9421 31.1578 50.8757 30.9085 50.7397C30.6592 50.6037 30.451 50.4032 30.3058 50.1591C30.1607 49.915 30.0838 49.6364 30.0833 49.3524V49.3492Z" fill="white"/>
<path d="M3.16666 37.9998C3.16666 18.7623 18.7625 3.1665 38 3.1665C57.2375 3.1665 72.8333 18.7623 72.8333 37.9998C72.8333 57.2373 57.2375 72.8332 38 72.8332C18.7625 72.8332 3.16666 57.2373 3.16666 37.9998ZM38 7.9165C30.0214 7.9165 22.3696 11.086 16.7279 16.7277C11.0861 22.3694 7.91666 30.0212 7.91666 37.9998C7.91666 45.9784 11.0861 53.6302 16.7279 59.272C22.3696 64.9137 30.0214 68.0832 38 68.0832C45.9786 68.0832 53.6304 64.9137 59.2721 59.272C64.9138 53.6302 68.0833 45.9784 68.0833 37.9998C68.0833 30.0212 64.9138 22.3694 59.2721 16.7277C53.6304 11.086 45.9786 7.9165 38 7.9165Z" fill="white"/>
</svg>
