<svg width="44" height="44" viewBox="0 0 44 44" fill="none" xmlns="http://www.w3.org/2000/svg">
  <path
    d="M25.2813 4.83995L24.2363 4.69329C21.0957 4.23982 17.8909 4.68844 14.9955 5.98682C12.1001 7.28521 9.63341 9.37987 7.88301 12.0266C6.02063 14.5566 4.91041 17.561 4.68014 20.694C4.44986 23.8271 5.10887 26.9615 6.58134 29.7366C6.73204 30.0147 6.82586 30.3201 6.85733 30.6349C6.88881 30.9496 6.85731 31.2675 6.76467 31.57C6.01301 34.155 5.31634 36.7583 4.58301 39.49L5.49967 39.215C7.97467 38.555 10.4497 37.895 12.9247 37.29C13.4471 37.1813 13.9901 37.2325 14.483 37.4366C16.7035 38.5203 19.1302 39.1166 21.6001 39.1852C24.07 39.2539 26.526 38.7935 28.8034 37.8349C31.0807 36.8762 33.1266 35.4416 34.8039 33.6272C36.4811 31.8128 37.7508 29.6606 38.5278 27.315C39.3048 24.9695 39.5711 22.4849 39.3089 20.028C39.0466 17.5711 38.2618 15.1987 37.0072 13.0701C35.7526 10.9414 34.0572 9.10574 32.0348 7.68625C30.0124 6.26675 27.7097 5.29628 25.2813 4.83995ZM29.9013 28.8933C29.235 29.4898 28.4225 29.8991 27.5465 30.0795C26.6706 30.2598 25.7624 30.2048 24.9147 29.92C21.0737 28.8368 17.7413 26.4268 15.5097 23.1183C14.6575 21.9479 13.9726 20.6644 13.4747 19.305C13.2049 18.5162 13.1563 17.6686 13.334 16.8542C13.5118 16.0398 13.9091 15.2896 14.483 14.685C14.7624 14.3284 15.1427 14.0642 15.5743 13.9269C16.006 13.7896 16.469 13.7854 16.903 13.915C17.2697 14.0066 17.5263 14.5383 17.8563 14.9416C18.1252 15.6994 18.4369 16.4388 18.7913 17.16C19.0598 17.5275 19.1719 17.9864 19.1032 18.4364C19.0345 18.8864 18.7906 19.2909 18.4247 19.5616C17.5997 20.295 17.728 20.9 18.3147 21.725C19.6109 23.5941 21.4008 25.0665 23.4847 25.9783C24.0713 26.235 24.5113 26.29 24.8963 25.685C25.0613 25.4466 25.2813 25.245 25.4647 25.025C26.528 23.6866 26.198 23.705 27.8847 24.4383C28.4225 24.6644 28.9419 24.9272 29.443 25.2266C29.938 25.52 30.6897 25.8316 30.7997 26.2716C30.9055 26.749 30.8777 27.2462 30.7192 27.7088C30.5607 28.1713 30.2777 28.5812 29.9013 28.8933Z"
    fill="currentColor"/>
</svg>
