<svg width="44" height="44" viewBox="0 0 44 44" fill="none" xmlns="http://www.w3.org/2000/svg">
  <path fill-rule="evenodd" clip-rule="evenodd"
        d="M40.3337 22C40.3337 32.1246 32.1249 40.3334 22.0003 40.3334C11.8757 40.3334 3.66699 32.1246 3.66699 22C3.66699 11.8754 11.8757 3.66669 22.0003 3.66669C32.1249 3.66669 40.3337 11.8754 40.3337 22ZM22.6573 17.2013C20.8749 17.9428 17.3111 19.4777 11.9659 21.806C11.0981 22.1513 10.6433 22.4889 10.6016 22.8189C10.5313 23.3781 11.231 23.5981 12.1813 23.896L12.5831 24.0243C13.5196 24.3284 14.7785 24.6843 15.4324 24.6981C16.0262 24.7103 16.6893 24.4659 17.4216 23.9647C22.4144 20.5934 24.9917 18.8895 25.1537 18.8528C25.2682 18.8268 25.4271 18.7932 25.5341 18.8895C25.641 18.9842 25.6303 19.1645 25.6196 19.2134C25.5494 19.5082 22.8085 22.0581 21.3877 23.3781C20.9446 23.789 20.6314 24.0809 20.5673 24.1481C20.4216 24.2958 20.278 24.4378 20.1364 24.5743C19.2656 25.4115 18.6148 26.041 20.1731 27.0677C20.9217 27.5611 21.5206 27.969 22.118 28.3754C22.7703 28.82 23.4212 29.2631 24.2645 29.8161C24.4784 29.9587 24.6846 30.1013 24.8832 30.2439C25.6425 30.7863 26.3255 31.2721 27.1688 31.1957C27.6577 31.1499 28.1649 30.69 28.4216 29.3165C29.0281 26.0685 30.2228 19.0346 30.4994 16.1349C30.5177 15.8941 30.5074 15.6521 30.4688 15.4138C30.4475 15.2209 30.3535 15.0434 30.206 14.9172C29.9875 14.7385 29.6484 14.7003 29.4956 14.7034C28.8066 14.7156 27.7494 15.0838 22.6573 17.2013Z"
        fill="currentColor"/>
</svg>
