<svg width="44" height="44" viewBox="0 0 44 44" fill="none" xmlns="http://www.w3.org/2000/svg">
  <path
    d="M20.7139 4.04529C16.4162 4.3648 12.4966 6.13224 9.41846 9.13892C5.37055 13.0878 3.42929 18.6793 4.1465 24.2961C5.0426 31.3186 9.99504 37.1677 16.7976 39.2366C22.0572 40.8387 27.9108 39.888 32.3699 36.7154C37.8489 32.8115 40.6992 26.3369 39.8531 19.7087C38.957 12.6862 34.0046 6.83708 27.202 4.76813C25.1775 4.14879 22.8166 3.88666 20.7139 4.04529ZM22.0864 15.2001C23.0073 15.2912 23.468 15.4364 23.675 15.7064C23.7546 15.8338 23.8186 15.9704 23.8657 16.1131C23.9737 16.4281 23.9782 16.7892 23.9107 19.4854C23.8691 21.1696 23.8938 21.6882 24.0311 22.0617C24.1931 22.4892 24.5497 22.6839 24.8647 22.523C25.1516 22.3739 25.8188 21.6398 26.2542 20.9884C27.2622 19.4949 27.8759 18.3378 28.6145 16.5445C28.7636 16.1918 28.9633 15.9595 29.1703 15.9055C29.253 15.8807 30.427 15.8605 31.8704 15.856L34.4214 15.8476L34.6369 15.9387C34.9147 16.0624 35.0228 16.2256 35.0228 16.5192C35.0228 17.0789 34.4377 18.2281 33.4342 19.6345C33.2975 19.8296 32.7789 20.5176 32.285 21.169C31.1937 22.6034 30.9574 22.941 30.7915 23.2886C30.5833 23.7285 30.634 24.0891 30.9613 24.5166C31.057 24.637 31.5379 25.1224 32.0313 25.5949C33.4128 26.918 34.0395 27.6144 34.5491 28.3783C34.9147 28.9296 35.0554 29.3363 34.9969 29.685C34.9676 29.8763 34.7775 30.1041 34.5615 30.216C34.3044 30.3454 33.9101 30.3696 31.741 30.3983L29.6878 30.4276L29.3503 30.315C28.5043 30.0338 27.94 29.5641 26.6581 28.079C25.9493 27.2577 25.4222 26.8555 25.0571 26.851C24.7213 26.851 24.2938 27.2988 24.1121 27.8551C23.9883 28.2287 23.9422 28.5144 23.904 29.1619C23.8589 29.9252 23.7673 30.1035 23.2981 30.2982C23.1282 30.373 21.0126 30.3977 20.4518 30.3398C19.3278 30.216 18.286 29.8628 17.2538 29.253C15.7564 28.3738 14.8395 27.5857 13.8562 26.3335C12.1472 24.1509 10.9873 22.2935 9.56696 19.4893C9.01963 18.398 8.37667 16.9878 8.27316 16.652C8.16966 16.3032 8.31816 16.0174 8.65905 15.9094C8.77493 15.8723 9.42239 15.8515 10.9148 15.8307L13.0096 15.8099L13.2543 15.901C13.6402 16.0501 13.8016 16.2413 14.0632 16.8758C14.2871 17.4102 15.4943 19.8336 15.8717 20.5097C16.2576 21.1943 16.6682 21.7664 17.0209 22.1073C17.4563 22.5348 17.651 22.6383 17.9587 22.6136C18.2202 22.5888 18.2962 22.5309 18.4526 22.1782C18.8463 21.3276 18.9082 18.4532 18.5561 17.3247C18.3535 16.6818 18.0498 16.4371 17.2116 16.2588C17.0665 16.225 17.0665 16.1761 17.1993 15.9809C17.5227 15.5162 18.0993 15.2923 19.1985 15.2012C19.8004 15.1517 21.5835 15.1472 22.0774 15.1973L22.0864 15.2001Z"
    fill="currentColor"/>
</svg>
