<svg width="28" height="20" viewBox="0 0 28 20" fill="none" xmlns="http://www.w3.org/2000/svg">
  <rect x="0.25" y="0.25" width="27.5" height="19.5" rx="1.75" fill="white" stroke="#FBFBFB" stroke-width="0.5"/>
  <mask id="mask0_3226_6683" style="mask-type:luminance" maskUnits="userSpaceOnUse" x="0" y="0" width="28" height="20">
    <rect x="0.25" y="0.25" width="27.5" height="19.5" rx="1.75" fill="white" stroke="white" stroke-width="0.5"/>
  </mask>
  <g mask="url(#mask0_3226_6683)">
    <path fill-rule="evenodd" clip-rule="evenodd"
          d="M13.9997 14.6673C16.577 14.6673 18.6663 12.578 18.6663 10.0007C18.6663 7.42332 16.577 5.33398 13.9997 5.33398C11.4223 5.33398 9.33301 7.42332 9.33301 10.0007C9.33301 12.578 11.4223 14.6673 13.9997 14.6673Z"
          fill="#E01B41"/>
    <mask id="mask1_3226_6683" style="mask-type:luminance" maskUnits="userSpaceOnUse" x="9" y="5" width="10"
          height="10">
      <path fill-rule="evenodd" clip-rule="evenodd"
            d="M13.9997 14.6673C16.577 14.6673 18.6663 12.578 18.6663 10.0007C18.6663 7.42332 16.577 5.33398 13.9997 5.33398C11.4223 5.33398 9.33301 7.42332 9.33301 10.0007C9.33301 12.578 11.4223 14.6673 13.9997 14.6673Z"
            fill="white"/>
    </mask>
    <g mask="url(#mask1_3226_6683)">
      <path fill-rule="evenodd" clip-rule="evenodd"
            d="M9.33283 10.668C10.6662 11.918 12.6662 12.668 13.9995 10.668C15.3328 8.66797 17.9995 8.66797 18.6662 10.668C19.3328 12.668 18.6662 14.668 18.6662 14.668H9.33283C9.33283 14.668 7.99949 9.41797 9.33283 10.668Z"
            fill="#0E4B9C"/>
    </g>
    <path opacity="0.75" fill-rule="evenodd" clip-rule="evenodd"
          d="M6.17329 3.55735C6.26534 3.39792 6.46921 3.34329 6.62864 3.43534L7.20599 3.76867C7.36542 3.86072 7.42004 4.06458 7.328 4.22401L5.66133 7.11077C5.56928 7.2702 5.36542 7.32482 5.20599 7.23277L4.62864 6.89944C4.46921 6.80739 4.41458 6.60353 4.50663 6.4441L6.17329 3.55735ZM20.7944 3.76867C20.635 3.86072 20.5804 4.06458 20.6724 4.22401L22.3391 7.11077C22.4311 7.2702 22.635 7.32482 22.7944 7.23277L23.3718 6.89944C23.5312 6.80739 23.5858 6.60353 23.4938 6.4441L21.8271 3.55735C21.7351 3.39792 21.5312 3.34329 21.3718 3.43534L20.7944 3.76867ZM19.0624 4.76867C18.903 4.86072 18.8483 5.06458 18.9404 5.22401L20.6071 8.11077C20.6991 8.2702 20.903 8.32482 21.0624 8.23277L21.6397 7.89944C21.7992 7.80739 21.8538 7.60353 21.7618 7.4441L20.0951 4.55735C20.003 4.39792 19.7992 4.34329 19.6397 4.43534L19.0624 4.76867ZM4.50663 13.5573C4.41458 13.3979 4.46921 13.1941 4.62864 13.102L5.20599 12.7687C5.36542 12.6766 5.56928 12.7312 5.66133 12.8907L7.328 15.7774C7.42004 15.9369 7.36542 16.1407 7.20599 16.2328L6.62864 16.5661C6.46921 16.6582 6.26534 16.6035 6.17329 16.4441L4.50663 13.5573ZM6.36069 12.102C6.20126 12.1941 6.14663 12.3979 6.23868 12.5573L7.90535 15.4441C7.99739 15.6035 8.20126 15.6582 8.36069 15.5661L8.93804 15.2328C9.09747 15.1407 9.15209 14.9369 9.06005 14.7774L7.39338 11.8907C7.30133 11.7312 7.09747 11.6766 6.93804 11.7687L6.36069 12.102ZM20.6071 11.8907C20.6991 11.7312 20.903 11.6766 21.0624 11.7687L21.6397 12.102C21.7992 12.1941 21.8538 12.3979 21.7618 12.5573L20.0951 15.4441C20.003 15.6035 19.7992 15.6582 19.6397 15.5661L19.0624 15.2328C18.903 15.1407 18.8483 14.9369 18.9404 14.7774L20.6071 11.8907ZM22.7944 12.7687C22.635 12.6766 22.4311 12.7312 22.3391 12.8907L20.6724 15.7774C20.5804 15.9369 20.635 16.1407 20.7944 16.2328L21.3718 16.5661C21.5312 16.6582 21.7351 16.6035 21.8271 16.4441L23.4938 13.5573C23.5858 13.3979 23.5312 13.1941 23.3718 13.102L22.7944 12.7687ZM8.36069 4.43534C8.20126 4.34329 7.99739 4.39792 7.90535 4.55735L6.23868 7.4441C6.14663 7.60353 6.20126 7.80739 6.36069 7.89944L6.93804 8.23277C7.09747 8.32482 7.30133 8.2702 7.39338 8.11077L9.06005 5.22401C9.15209 5.06458 9.09747 4.86072 8.93804 4.76867L8.36069 4.43534Z"
          fill="#262626"/>
  </g>
</svg>
