<svg width="25" height="24" viewBox="0 0 25 24" fill="none" xmlns="http://www.w3.org/2000/svg">
  <path fill-rule="evenodd" clip-rule="evenodd"
        d="M4.73557 4.22678C3.50879 5.45355 3.50879 7.42801 3.50879 11.377V12.075C3.50879 16.024 3.50879 17.9984 4.73557 19.2252C5.96234 20.452 7.9368 20.452 11.8857 20.452H12.5838C16.5328 20.452 18.5072 20.452 19.734 19.2252C20.9608 17.9984 20.9608 16.024 20.9608 12.075V11.377C20.9608 7.42801 20.9608 5.45355 19.734 4.22678C18.5072 3 16.5328 3 12.5838 3H11.8857C7.9368 3 5.96234 3 4.73557 4.22678ZM6.45605 8.30859C6.55059 12.8461 8.81931 15.573 12.7969 15.573H13.0224V12.977C14.484 13.1224 15.5892 14.1914 16.0328 15.573H18.098C17.5308 13.5078 16.04 12.3662 15.1093 11.9299C16.04 11.3918 17.3489 10.0829 17.6616 8.30859H15.7855C15.3783 9.74838 14.1713 11.0573 13.0224 11.1809V8.30859H11.1462V13.3406C9.98278 13.0497 8.51394 11.639 8.44849 8.30859H6.45605Z"
        fill="currentColor"/>
  <path fill-rule="evenodd" clip-rule="evenodd"
        d="M4.73557 4.22678C3.50879 5.45355 3.50879 7.42801 3.50879 11.377V12.075C3.50879 16.024 3.50879 17.9984 4.73557 19.2252C5.96234 20.452 7.9368 20.452 11.8857 20.452H12.5838C16.5328 20.452 18.5072 20.452 19.734 19.2252C20.9608 17.9984 20.9608 16.024 20.9608 12.075V11.377C20.9608 7.42801 20.9608 5.45355 19.734 4.22678C18.5072 3 16.5328 3 12.5838 3H11.8857C7.9368 3 5.96234 3 4.73557 4.22678ZM6.45605 8.30859C6.55059 12.8461 8.81931 15.573 12.7969 15.573H13.0224V12.977C14.484 13.1224 15.5892 14.1914 16.0328 15.573H18.098C17.5308 13.5078 16.04 12.3662 15.1093 11.9299C16.04 11.3918 17.3489 10.0829 17.6616 8.30859H15.7855C15.3783 9.74838 14.1713 11.0573 13.0224 11.1809V8.30859H11.1462V13.3406C9.98278 13.0497 8.51394 11.639 8.44849 8.30859H6.45605Z"
        fill="currentColor"/>
</svg>
