<svg width="28" height="20" viewBox="0 0 28 20" fill="none" xmlns="http://www.w3.org/2000/svg">
  <rect x="0.25" y="0.25" width="27.5" height="19.5" rx="1.75" fill="white" stroke="#FBFBFB" stroke-width="0.5"/>
  <mask id="mask0_3226_6520" style="mask-type:luminance" maskUnits="userSpaceOnUse" x="0" y="0" width="28" height="20">
    <rect x="0.25" y="0.25" width="27.5" height="19.5" rx="1.75" fill="white" stroke="white" stroke-width="0.5"/>
  </mask>
  <g mask="url(#mask0_3226_6520)">
    <rect x="18.667" width="9.33333" height="20" fill="#E3283E"/>
    <path fill-rule="evenodd" clip-rule="evenodd" d="M0 20H9.33333V0H0V20Z" fill="#128A60"/>
    <path
      d="M11.9997 9.33398C11.9997 8.96579 11.7012 8.66732 11.333 8.66732C10.9648 8.66732 10.6663 8.96579 10.6663 9.33398H11.9997ZM12.3287 12.2188C12.6472 12.4035 13.0551 12.2952 13.2399 11.9767C13.4247 11.6582 13.3163 11.2503 12.9979 11.0655L12.3287 12.2188ZM15.0753 11.0205C14.7652 11.2189 14.6745 11.6311 14.8729 11.9413C15.0713 12.2515 15.4835 12.3421 15.7937 12.1437L15.0753 11.0205ZM17.333 9.33398C17.333 8.96579 17.0345 8.66732 16.6663 8.66732C16.2982 8.66732 15.9997 8.96579 15.9997 9.33398H17.333ZM10.6663 9.33398C10.6663 10.567 11.3362 11.6429 12.3287 12.2188L12.9979 11.0655C12.3996 10.7184 11.9997 10.0725 11.9997 9.33398H10.6663ZM15.7937 12.1437C16.7179 11.5526 17.333 10.5154 17.333 9.33398H15.9997C15.9997 10.0417 15.6326 10.6641 15.0753 11.0205L15.7937 12.1437Z"
      fill="#8C9157"/>
    <path fill-rule="evenodd" clip-rule="evenodd"
          d="M14.0003 10.666C14.7367 10.666 15.3337 9.77059 15.3337 8.66602C15.3337 7.56145 14.7367 6.66602 14.0003 6.66602C13.2639 6.66602 12.667 7.56145 12.667 8.66602C12.667 9.77059 13.2639 10.666 14.0003 10.666Z"
          fill="#C59262"/>
  </g>
</svg>
