<svg width="24" height="24" viewBox="0 0 24 24" fill="none" xmlns="http://www.w3.org/2000/svg">
  <path
    d="M14.05 15.55L13.35 14.85C13.15 14.65 12.9125 14.5458 12.6375 14.5375C12.3625 14.5292 12.125 14.625 11.925 14.825C11.725 15.025 11.625 15.2625 11.625 15.5375C11.625 15.8125 11.725 16.05 11.925 16.25L13.35 17.675C13.55 17.875 13.7833 17.975 14.05 17.975C14.3167 17.975 14.55 17.875 14.75 17.675L18.325 14.1C18.525 13.9 18.6208 13.6667 18.6125 13.4C18.6042 13.1333 18.5 12.9 18.3 12.7C18.1 12.5167 17.8667 12.4208 17.6 12.4125C17.3333 12.4042 17.1 12.5 16.9 12.7L14.05 15.55ZM8 15H9C9.28333 15 9.52083 14.9042 9.7125 14.7125C9.90417 14.5208 10 14.2833 10 14C10 13.7167 9.90417 13.4792 9.7125 13.2875C9.52083 13.0958 9.28333 13 9 13H8C7.71667 13 7.47917 13.0958 7.2875 13.2875C7.09583 13.4792 7 13.7167 7 14C7 14.2833 7.09583 14.5208 7.2875 14.7125C7.47917 14.9042 7.71667 15 8 15ZM8 12H13C13.2833 12 13.5208 11.9042 13.7125 11.7125C13.9042 11.5208 14 11.2833 14 11C14 10.7167 13.9042 10.4792 13.7125 10.2875C13.5208 10.0958 13.2833 10 13 10H8C7.71667 10 7.47917 10.0958 7.2875 10.2875C7.09583 10.4792 7 10.7167 7 11C7 11.2833 7.09583 11.5208 7.2875 11.7125C7.47917 11.9042 7.71667 12 8 12ZM8 9H13C13.2833 9 13.5208 8.90417 13.7125 8.7125C13.9042 8.52083 14 8.28333 14 8C14 7.71667 13.9042 7.47917 13.7125 7.2875C13.5208 7.09583 13.2833 7 13 7H8C7.71667 7 7.47917 7.09583 7.2875 7.2875C7.09583 7.47917 7 7.71667 7 8C7 8.28333 7.09583 8.52083 7.2875 8.7125C7.47917 8.90417 7.71667 9 8 9ZM12 22C10.6167 22 9.31667 21.7375 8.1 21.2125C6.88333 20.6875 5.825 19.975 4.925 19.075C4.025 18.175 3.3125 17.1167 2.7875 15.9C2.2625 14.6833 2 13.3833 2 12C2 10.6167 2.2625 9.31667 2.7875 8.1C3.3125 6.88333 4.025 5.825 4.925 4.925C5.825 4.025 6.88333 3.3125 8.1 2.7875C9.31667 2.2625 10.6167 2 12 2C13.3833 2 14.6833 2.2625 15.9 2.7875C17.1167 3.3125 18.175 4.025 19.075 4.925C19.975 5.825 20.6875 6.88333 21.2125 8.1C21.7375 9.31667 22 10.6167 22 12C22 13.3833 21.7375 14.6833 21.2125 15.9C20.6875 17.1167 19.975 18.175 19.075 19.075C18.175 19.975 17.1167 20.6875 15.9 21.2125C14.6833 21.7375 13.3833 22 12 22ZM12 20C14.2333 20 16.125 19.225 17.675 17.675C19.225 16.125 20 14.2333 20 12C20 9.76667 19.225 7.875 17.675 6.325C16.125 4.775 14.2333 4 12 4C9.76667 4 7.875 4.775 6.325 6.325C4.775 7.875 4 9.76667 4 12C4 14.2333 4.775 16.125 6.325 17.675C7.875 19.225 9.76667 20 12 20Z"
    fill="currentColor"/>
</svg>
