<svg width="28" height="20" viewBox="0 0 28 20" fill="none" xmlns="http://www.w3.org/2000/svg">
<rect x="0.25" y="0.25" width="27.5" height="19.5" rx="1.75" fill="white" stroke="#FBFBFB" stroke-width="0.5"/>
<mask id="mask0_3226_6606" style="mask-type:luminance" maskUnits="userSpaceOnUse" x="0" y="0" width="28" height="20">
<rect x="0.25" y="0.25" width="27.5" height="19.5" rx="1.75" fill="white" stroke="white" stroke-width="0.5"/>
</mask>
<g mask="url(#mask0_3226_6606)">
<rect x="20" width="8" height="20" fill="#FF3131"/>
<path fill-rule="evenodd" clip-rule="evenodd" d="M0 20H8V0H0V20Z" fill="#FF3131"/>
<path fill-rule="evenodd" clip-rule="evenodd" d="M16.1115 9.22218C15.8783 9.45538 15.4842 9.2445 15.5489 8.92111L15.9997 6.66732L14.6663 7.33398L13.9997 5.33398L13.333 7.33398L11.9997 6.66732L12.4504 8.9211C12.5151 9.2445 12.1211 9.45538 11.8879 9.22218L11.5687 8.90302C11.4385 8.77285 11.2275 8.77285 11.0973 8.90302L10.6663 9.33398L9.33301 8.66732L9.99967 10.0007L9.56871 10.4316C9.43854 10.5618 9.43854 10.7728 9.56871 10.903L11.333 12.6673H13.333L13.6663 14.6673H14.333L14.6663 12.6673H16.6663L18.4306 10.903C18.5608 10.7728 18.5608 10.5618 18.4306 10.4316L17.9997 10.0007L18.6663 8.66732L17.333 9.33398L16.902 8.90302C16.7719 8.77285 16.5608 8.77285 16.4306 8.90302L16.1115 9.22218Z" fill="#FF3131"/>
</g>
</svg>
