<svg width="24" height="24" viewBox="0 0 24 24" fill="none" xmlns="http://www.w3.org/2000/svg">
  <path
    d="M4 6V19C4 19.7956 4.31607 20.5587 4.87868 21.1213C5.44129 21.6839 6.20435 22 7 22H17C17.7956 22 18.5587 21.6839 19.1213 21.1213C19.6839 20.5587 20 19.7956 20 19V9C20 8.20435 19.6839 7.44129 19.1213 6.87868C18.5587 6.31607 17.7956 6 17 6H4ZM4 6V5"
    stroke="currentColor" stroke-width="2"/>
  <path
    d="M12 16C13.6569 16 15 14.6569 15 13C15 11.3431 13.6569 10 12 10C10.3431 10 9 11.3431 9 13C9 14.6569 10.3431 16 12 16Z"
    stroke="currentColor" stroke-width="2"/>
  <path
    d="M18 6.00005V6.75005H18.75V6.00005H18ZM5.07 6.75005H18V5.25005H5.071L5.07 6.75005ZM18.75 6.00005V4.30605H17.25V6.00005H18.75ZM15.611 1.58405L4.814 3.12605L5.026 4.61105L15.823 3.07005L15.611 1.58405ZM4.814 3.12605C4.37966 3.18776 3.98222 3.40427 3.69485 3.73575C3.40747 4.06722 3.2495 4.49135 3.25 4.93005H4.75C4.74975 4.85262 4.77758 4.77773 4.82833 4.71926C4.87908 4.66078 4.94931 4.62169 5.026 4.61105L4.814 3.12605ZM18.75 4.30605C18.75 3.91207 18.6652 3.52271 18.5016 3.16431C18.338 2.80592 18.0993 2.48686 17.8016 2.22875C17.504 1.97064 17.1544 1.7795 16.7764 1.66827C16.3985 1.55704 16.001 1.52832 15.611 1.58405L15.823 3.07005C16.0003 3.04469 16.1809 3.05672 16.3527 3.10725C16.5245 3.15778 16.6835 3.24463 16.8188 3.36193C16.9541 3.47923 17.0626 3.62423 17.137 3.78711C17.2114 3.95 17.2499 4.12697 17.25 4.30605H18.75ZM5.071 5.25005C5.02881 5.25018 4.98701 5.24197 4.948 5.22588C4.909 5.2098 4.87356 5.18616 4.84373 5.15632C4.81389 5.12649 4.79025 5.09105 4.77417 5.05205C4.75808 5.01304 4.74987 4.97224 4.75 4.93005H3.25C3.24987 5.16922 3.29688 5.40508 3.38835 5.62607C3.47982 5.84706 3.61394 6.04786 3.78307 6.21698C3.95219 6.3861 4.15299 6.52023 4.37398 6.6117C4.59497 6.70317 4.83083 6.75018 5.07 6.75005L5.071 5.25005Z"
    fill="currentColor"/>
  <path d="M10 19H14" stroke="currentColor" stroke-width="2" stroke-linecap="round"/>
</svg>
