<svg width="28" height="28" viewBox="0 0 28 28" fill="none" xmlns="http://www.w3.org/2000/svg">
  <path fill-rule="evenodd" clip-rule="evenodd"
        d="M22 10.6338C22 10.7448 21.9977 10.8558 21.9943 10.9693C21.9897 11.0951 21.9829 11.2184 21.9737 11.3417C21.7109 14.9137 19.5234 18.5818 17.5703 22.0846L14 28V19.2676C9.58171 19.2676 6 15.4021 6 10.6338C6 5.86546 9.58171 2 14 2C18.4183 2 22 5.86546 22 10.6338Z"
        fill="#FF3333"/>
  <path
    d="M13.9991 13.0628C15.7769 13.0628 17.218 11.6216 17.218 9.84388C17.218 8.06614 15.7769 6.625 13.9991 6.625C12.2214 6.625 10.7803 8.06614 10.7803 9.84388C10.7803 11.6216 12.2214 13.0628 13.9991 13.0628Z"
    fill="white"/>
</svg>
