<svg width="28" height="20" viewBox="0 0 28 20" fill="none" xmlns="http://www.w3.org/2000/svg">
<rect x="0.25" y="0.25" width="27.5" height="19.5" rx="1.75" fill="white" stroke="#FBFBFB" stroke-width="0.5"/>
<mask id="mask0_3226_6635" style="mask-type:luminance" maskUnits="userSpaceOnUse" x="0" y="0" width="28" height="20">
<rect x="0.25" y="0.25" width="27.5" height="19.5" rx="1.75" fill="white" stroke="white" stroke-width="0.5"/>
</mask>
<g mask="url(#mask0_3226_6635)">
<path fill-rule="evenodd" clip-rule="evenodd" d="M20.0002 3.33268C20.3633 3.15113 20.7318 3.56858 20.5066 3.90636L20.0674 4.56515C20.023 4.63173 19.9659 4.68887 19.8993 4.73326L18.0551 5.96273C18.0186 5.98708 17.9845 6.01498 17.9535 6.04603L17.8049 6.19461C17.5446 6.45496 17.5446 6.87707 17.8049 7.13742L18.1954 7.52794C18.4558 7.78829 18.4558 8.2104 18.1954 8.47075L17.6733 8.99291C17.4704 9.19582 17.1604 9.24612 16.9037 9.11779L16.5964 8.96416C16.2671 8.7995 15.8667 8.93298 15.702 9.2623L15.457 9.75236C15.3779 9.9105 15.2393 10.0308 15.0715 10.0867L13.4361 10.6318C13.3682 10.6545 13.297 10.666 13.2253 10.666H12.4122C12.1597 10.666 11.9288 10.8087 11.8159 11.0345L11.6316 11.4031C11.467 11.7324 11.0665 11.8659 10.7372 11.7012L8.76359 10.7144C8.6995 10.6824 8.641 10.6402 8.59033 10.5895L7.52876 9.52794C7.40373 9.40292 7.3335 9.23335 7.3335 9.05654V8.47075C7.3335 8.2104 7.54455 7.99935 7.8049 7.99935V7.99935C7.92992 7.99935 8.04983 7.94968 8.13823 7.86128L9.13823 6.86128C9.26326 6.73625 9.43283 6.66602 9.60964 6.66602H10.1863C10.4733 6.66602 10.728 6.4824 10.8188 6.21017L11.1474 5.22434C11.2537 4.90537 11.5809 4.7155 11.9106 4.78143L14.5198 5.30328C14.6166 5.32264 14.7165 5.32026 14.8123 5.29632L17.2625 4.68376C17.3097 4.67197 17.3554 4.65504 17.399 4.63329L18.6668 3.99935L20.0002 3.33268V3.33268Z" fill="#E7832C"/>
<path fill-rule="evenodd" clip-rule="evenodd" d="M14.0002 15.9993C14.3684 15.9993 14.6668 15.7009 14.6668 15.3327C14.6668 14.9645 14.3684 14.666 14.0002 14.666C13.632 14.666 13.3335 14.9645 13.3335 15.3327C13.3335 15.7009 13.632 15.9993 14.0002 15.9993Z" fill="#445128"/>
<path opacity="0.75" d="M16 14.666C16 14.666 18 13.9993 18.6667 12.666" stroke="#445128" stroke-width="1.33333" stroke-linecap="round"/>
<path opacity="0.75" d="M12 14.666C12 14.666 10 13.9993 9.33333 12.666" stroke="#445128" stroke-width="1.33333" stroke-linecap="round"/>
</g>
</svg>
