<svg width="25" height="24" viewBox="0 0 25 24" fill="none" xmlns="http://www.w3.org/2000/svg">
  <path fill-rule="evenodd" clip-rule="evenodd"
        d="M20.5777 5.44107C21.4994 5.68417 22.2238 6.39787 22.4705 7.30605C22.9163 8.95049 22.9181 12.3835 22.9181 12.3835C22.9181 12.3835 22.9181 15.8165 22.4705 17.461C22.2238 18.3692 21.4994 19.0829 20.5777 19.3259C18.9088 19.767 12.2134 19.767 12.2134 19.767C12.2134 19.767 5.51819 19.767 3.84922 19.3259C2.9275 19.0829 2.20317 18.3692 1.95643 17.461C1.50879 15.8165 1.50879 12.3835 1.50879 12.3835C1.50879 12.3835 1.50879 8.95049 1.95643 7.30605C2.20317 6.39787 2.9275 5.68417 3.84922 5.44107C5.51819 5 12.2134 5 12.2134 5C12.2134 5 18.9088 5 20.5777 5.44107ZM15.6324 12.3837L10.0703 15.5476V9.21985L15.6324 12.3837Z"
        fill="currentColor"/>
  <path fill-rule="evenodd" clip-rule="evenodd"
        d="M20.5777 5.44107C21.4994 5.68417 22.2238 6.39787 22.4705 7.30605C22.9163 8.95049 22.9181 12.3835 22.9181 12.3835C22.9181 12.3835 22.9181 15.8165 22.4705 17.461C22.2238 18.3692 21.4994 19.0829 20.5777 19.3259C18.9088 19.767 12.2134 19.767 12.2134 19.767C12.2134 19.767 5.51819 19.767 3.84922 19.3259C2.9275 19.0829 2.20317 18.3692 1.95643 17.461C1.50879 15.8165 1.50879 12.3835 1.50879 12.3835C1.50879 12.3835 1.50879 8.95049 1.95643 7.30605C2.20317 6.39787 2.9275 5.68417 3.84922 5.44107C5.51819 5 12.2134 5 12.2134 5C12.2134 5 18.9088 5 20.5777 5.44107ZM15.6324 12.3837L10.0703 15.5476V9.21985L15.6324 12.3837Z"
        fill="currentColor"/>
</svg>
