<svg width="28" height="28" viewBox="0 0 28 28" fill="none" xmlns="http://www.w3.org/2000/svg">
  <path
    d="M10.4082 19.7833C11.1167 20.7102 11.837 21.8719 12.2149 22.5763C12.6754 23.4908 12.8643 24.1088 13.2067 25.2087C13.4075 25.8142 13.5964 25.9996 13.9979 25.9996C14.4348 25.9996 14.6355 25.6906 14.789 25.2087C15.1078 24.1705 15.3558 23.3796 15.7455 22.6258C16.513 21.1798 17.4813 19.8945 18.4259 18.6587C18.6857 18.3127 20.3388 16.2735 21.0827 14.6546C21.0827 14.6546 21.992 12.8873 21.992 10.4157C21.992 8.10464 21.0945 6.49805 21.0945 6.49805L18.4968 7.22719L16.9145 11.5773L16.5248 12.1706L16.4422 12.2818L16.3359 12.4177L16.1588 12.6402L15.899 12.9121L14.4938 14.1108L10.9868 16.2365L10.4082 19.7833Z"
    fill="#34A853"/>
  <path
    d="M6.7832 14.3577C7.6452 16.4092 9.28652 18.2012 10.4083 19.783L16.3478 12.4174C16.3478 12.4174 15.5094 13.5668 13.998 13.5668C12.3094 13.5668 10.9397 12.1579 10.9397 10.3783C10.9397 9.15482 11.6363 8.31445 11.6363 8.31445L7.60977 9.43907L6.7832 14.3577Z"
    fill="#FBBC04"/>
  <path
    d="M16.419 2.38281C18.391 3.05017 20.0795 4.44666 21.095 6.51052L16.3482 12.4302C16.3482 12.4302 17.0448 11.5775 17.0448 10.3663C17.0448 8.54965 15.5806 7.17787 13.9983 7.17787C12.4987 7.17787 11.6367 8.31484 11.6367 8.31484V4.58261L16.419 2.38281Z"
    fill="#4285F4"/>
  <path
    d="M7.86914 4.99073C9.04995 3.52008 11.1164 2 13.9739 2C15.3555 2 16.4064 2.38311 16.4064 2.38311L11.6359 8.31514H8.25881L7.86914 4.99073Z"
    fill="#1A73E8"/>
  <path
    d="M6.78325 14.3592C6.78325 14.3592 6.00391 12.7403 6.00391 10.4045C6.00391 8.19237 6.83048 6.26446 7.8814 5.00391L11.6482 8.32831L6.78325 14.3592Z"
    fill="#EA4335"/>
</svg>
