<svg width="21" height="21" viewBox="0 0 21 21" fill="none" xmlns="http://www.w3.org/2000/svg">
  <path
    d="M14 14.875H7.875M14 11.375H11.375M17.9375 12.25C17.9375 15.5496 17.9375 17.1999 16.8481 18.2245C15.7587 19.2491 14.0061 19.25 10.5 19.25H9.82363C6.97113 19.25 5.54313 19.25 4.55263 18.5517C4.27074 18.3541 4.01878 18.1168 3.8045 17.8474C3.0625 16.9146 3.0625 15.5724 3.0625 12.8861V10.6593C3.0625 8.06663 3.0625 6.76987 3.47288 5.73475C4.13263 4.06962 5.52737 2.75712 7.29662 2.13587C8.39562 1.75 9.772 1.75 12.5282 1.75C14.1015 1.75 14.889 1.75 15.5172 1.9705C16.5279 2.32575 17.325 3.07563 17.7021 4.02675C17.9366 4.61825 17.9366 5.35937 17.9366 6.84075L17.9375 12.25Z"
    stroke="currentColor" stroke-width="1.5" stroke-linecap="round" stroke-linejoin="round"/>
  <path
    d="M3.0625 10.5C3.0625 9.72653 3.36976 8.98474 3.91669 8.43781C4.46361 7.89089 5.2054 7.58362 5.97888 7.58362C6.56163 7.58362 7.2485 7.68512 7.81462 7.53375C8.06199 7.46718 8.28752 7.33674 8.46858 7.15553C8.64964 6.97431 8.77989 6.74868 8.84625 6.50125C8.99762 5.93512 8.89612 5.24825 8.89612 4.6655C8.89636 3.89218 9.20372 3.15061 9.75062 2.60388C10.2975 2.05714 11.0392 1.75 11.8125 1.75"
    stroke="currentColor" stroke-width="1.5" stroke-linecap="round" stroke-linejoin="round"/>
</svg>
