<svg width="24" height="24" viewBox="0 0 24 24" fill="none" xmlns="http://www.w3.org/2000/svg">
  <path
    d="M0.479883 2.87988C0.320753 2.87988 0.168141 2.9431 0.0556187 3.05562C-0.0569031 3.16814 -0.120117 3.32075 -0.120117 3.47988V20.5199C-0.120117 20.679 -0.0569031 20.8316 0.0556187 20.9441C0.168141 21.0567 0.320753 21.1199 0.479883 21.1199H16.5311C16.3216 20.8437 16.1117 20.5677 15.9013 20.2919C15.6392 19.9052 15.2586 19.5743 15.147 19.1044C13.6038 19.7413 11.8307 19.8004 10.2472 19.2716C10.2124 19.2604 10.1783 19.2464 10.1437 19.2347C9.96204 19.4123 9.7662 19.7219 9.73524 19.9199H7.45356C7.62492 19.3393 7.26108 18.4328 7.60524 17.842C7.6326 17.8348 7.66572 17.7884 7.68084 17.7407C7.64196 17.7042 7.6026 17.6687 7.56468 17.6315C7.22724 17.7342 7.09236 17.9884 6.90468 18.2113C7.00716 18.6971 6.26748 18.5821 6.34212 19.0777C6.8574 19.4773 5.86644 19.1728 5.57172 19.2047C5.259 19.208 4.34412 18.8807 4.66164 19.5503C4.61196 19.7341 4.6578 19.8469 4.74924 19.9199H4.60908C4.58724 19.7096 4.19124 19.6784 4.0386 19.5752C3.78156 19.5128 3.4746 19.4816 3.20844 19.3631C3.14004 19.5532 2.52276 19.7706 2.38764 19.9199H1.07988V11.1524C1.26396 11.2758 1.67676 11.2268 1.1142 10.9604H1.07988V8.19708C1.18908 8.14188 1.26708 8.12436 1.26228 8.21676C1.53276 8.12556 1.6506 7.46724 2.1186 7.73676C2.41044 7.77972 2.89332 8.23212 2.65068 8.28876C2.8398 8.75052 2.97396 8.45316 3.20604 9.00348C3.04716 9.75612 3.65556 10.3139 3.9894 10.7936C4.38924 10.9597 4.5474 11.4767 5.19732 11.4968C5.28564 11.5741 5.39892 11.6442 5.517 11.7114C5.54964 11.4631 5.595 11.2172 5.65308 10.9736C5.63748 10.97 5.62236 10.9679 5.60556 10.9624C4.98036 11.5391 4.8522 10.5407 5.46276 10.5016C5.50356 10.499 5.54756 10.501 5.59476 10.5076C5.66556 10.4992 5.72436 10.5076 5.77404 10.5251C5.97456 9.86778 6.27164 9.24393 6.65556 8.67396C6.86192 8.36643 7.09335 8.07648 7.34748 7.80708C7.22124 7.59588 7.09212 7.47804 6.93972 7.7538C6.9282 7.3446 5.8218 6.91572 6.63588 7.30836C7.06284 7.67628 7.20276 7.24452 7.2702 6.9498C7.6362 6.5682 6.89508 6.43788 7.0302 6.18852C6.80556 5.8518 6.47292 5.50692 6.13116 5.29836C5.46828 5.37516 5.23596 5.23524 6.12228 5.23476C6.2022 4.82076 6.33492 4.52748 6.42636 4.179C6.33036 4.1514 6.23004 4.15572 6.13116 4.15548C5.70708 4.0986 5.45532 4.26252 5.46396 4.58628C5.14548 4.56084 5.43156 4.01796 4.94052 4.1838C4.19604 4.17204 5.09604 4.42356 5.02692 4.4598C4.94172 4.65084 4.40532 4.5318 4.46844 4.72548C4.22268 4.27092 4.11084 4.9422 3.91956 4.48236C3.80436 4.37196 4.40196 4.59132 4.26588 4.18884C3.96492 4.07364 3.85716 4.27524 3.62268 4.35756C2.92284 4.74492 3.74484 5.10924 4.10028 5.23836C4.63596 5.09556 4.63548 4.91508 5.00796 5.11356C5.42556 5.34516 4.58628 5.18244 4.61196 5.53884C4.56396 5.31732 4.50396 5.18364 4.24476 5.46756C3.89916 5.52996 3.74484 5.055 3.48684 5.08836C2.89884 5.00844 3.11844 6.33084 3.60276 5.8806C3.8958 6.38772 3.22836 6.01356 3.03036 5.95692C2.58324 6.45636 2.10156 5.94396 1.5678 5.92332C1.39692 5.80956 1.2294 5.80812 1.07988 5.86596V4.07988H7.3734C6.9246 4.09212 6.5238 4.1514 6.687 4.4742C6.6606 5.09676 7.46604 4.60236 7.58196 5.1654C7.91652 5.55876 7.383 6.39516 7.96164 6.24828C7.74876 6.50724 7.7754 6.9198 7.94148 7.245C8.55589 6.7294 9.25265 6.32082 10.0026 6.03636C10.0158 5.96244 10.0055 5.87748 9.96132 5.77716C9.8862 5.4006 10.2356 5.28036 10.1132 4.86276C10.2779 4.54836 10.1502 4.21572 9.86796 4.07988H22.9199V5.7786C22.8826 5.76276 22.8444 5.74929 22.8054 5.73828C22.4672 6.04476 22.7406 6.0738 22.9199 6.00492V6.27276C22.52 6.04788 22.0808 6.02316 21.6544 6.11676C21.4607 5.78004 20.775 5.78796 20.5494 5.48484C20.152 5.00868 20.6706 5.15076 21.0174 5.11404C20.919 4.81644 20.3286 4.67532 20.0792 4.72452C19.6288 4.97124 20.3159 5.19252 20.2465 5.52372C20.2465 5.76444 19.953 5.76612 19.6969 5.75292C19.8004 5.49804 19.2066 5.1846 18.9712 5.39196C18.5255 5.25708 18.3556 5.33628 18.6496 4.87212C18.5468 4.51524 18.1223 4.50852 17.932 4.26084C17.6888 4.77636 17.2835 4.62012 16.8491 4.93404C16.6751 5.18844 16.3127 5.41692 16.2947 5.58492C16.0254 5.7114 15.7559 5.06604 15.567 5.63772C15.3956 6.12156 15.5766 6.35604 14.9984 5.96004C14.4001 5.32236 16.2004 4.77612 15.5312 4.50468C14.9759 4.66668 14.642 5.05812 14.5316 5.6142C14.4719 5.74068 14.499 5.82876 14.5621 5.90004C16.6703 6.52884 18.4148 8.2242 19.124 10.304C19.1351 10.1788 19.156 10.0583 19.198 9.9702C19.3753 9.83484 19.2347 10.4898 19.6012 10.1173C19.3312 10.6969 20.2799 10.1941 20.4083 9.95484C20.2201 9.48252 21.0851 9.26004 21.0649 9.171C20.7464 8.83692 20.9274 9.16932 20.576 9.24588C20.4596 9.09084 20.7992 8.24076 20.3473 8.31876C19.6724 8.145 20.9214 7.64796 21.2586 7.83084C21.4122 7.26252 21.633 7.71516 21.2536 7.97652C21.1091 8.48076 21.1782 9.1686 21.6032 8.49468C21.7943 8.30868 21.7468 7.82388 21.9954 7.7394C22.3295 7.58196 22.9256 7.45884 22.91 6.97212C22.9134 6.97116 22.9165 6.9714 22.9199 6.97068V19.9199H21.9697C22.1756 19.6348 22.448 19.1471 22.1596 18.9702C21.7249 18.8951 21.4002 18.3709 20.8748 18.3928C20.6377 18.1196 20.0917 17.9814 19.9448 17.9281C19.798 17.8748 19.5431 18.1828 19.282 18.0467C19.2034 18.0341 19.1232 18.0355 19.0451 18.051C19.8308 19.071 20.6092 20.0965 21.3904 21.1199H23.5199C23.679 21.1199 23.8316 21.0567 23.9441 20.9441C24.0567 20.8316 24.1199 20.679 24.1199 20.5199V3.47988C24.1199 3.32075 24.0567 3.16814 23.9441 3.05562C23.8316 2.9431 23.679 2.87988 23.5199 2.87988H0.479883ZM12.1655 4.15668C11.7791 4.347 12.4643 5.10468 12.4832 4.38132C12.554 4.48692 13.029 4.59348 12.8737 4.25292C12.5286 4.04964 12.5809 4.2834 12.1652 4.15692M17.7047 4.1574C18.0695 4.36428 17.2878 4.36044 17.7047 4.1574ZM4.46148 4.22628C4.14948 4.45812 4.9194 4.68756 4.50228 4.23852L4.46148 4.22628ZM7.01628 4.3638C7.09428 4.43868 6.93924 4.41204 7.01628 4.3638ZM4.00308 4.6602C4.0398 4.70268 3.98388 4.66332 4.00308 4.6602ZM5.0718 4.75908C5.44788 4.82436 5.043 4.91268 5.0718 4.75908ZM5.5986 4.80228C5.9562 4.77948 5.72988 4.89108 5.5986 4.80228ZM4.5486 4.81812C4.78116 4.84212 4.51884 4.92588 4.5486 4.81812ZM5.29308 5.15604C5.52828 5.21028 5.1774 5.22924 5.29308 5.15604ZM5.45892 5.5302C5.31732 5.98188 5.9622 6.5934 5.4618 6.0786C5.32428 5.87268 5.25276 5.6754 5.45892 5.5302ZM4.6194 5.5758C4.82556 5.9202 5.13948 6.01212 4.87668 6.13068C4.7022 6.0462 4.66188 5.78316 4.6194 5.5758ZM7.85436 5.92284C7.8834 5.94228 7.77612 5.92764 7.85436 5.92284ZM2.98812 6.03156C2.96124 6.14052 2.95092 6.03324 2.98812 6.03156ZM4.84668 6.20772C4.82988 6.43476 4.737 6.20364 4.84668 6.20772ZM6.2262 6.20916C6.13644 6.65316 6.4926 6.62484 6.4686 6.66948C6.17436 6.79908 6.24468 7.33284 6.01956 6.92556C5.87748 6.85932 6.09252 6.27324 6.18924 6.22188L6.2262 6.20916ZM4.77972 6.20964C4.81116 6.21684 4.77756 6.31356 4.77972 6.20964ZM22.1404 6.24948C22.15 6.2658 22.0986 6.29028 22.1404 6.24948ZM4.797 6.30756C4.96068 6.47892 4.57764 6.46356 4.797 6.30756ZM12.4237 6.54348C11.115 6.55264 9.84467 6.98675 8.80404 7.78044C6.14244 9.80724 5.62452 13.628 7.65132 16.2896C9.54852 18.7811 13.0129 19.382 15.6313 17.7868L16.1315 18.4436C16.0331 18.6726 16.0422 18.8915 16.1567 19.0422L19.7855 23.8074C20.0015 24.0908 20.523 24.057 20.9502 23.7316C21.3774 23.4064 21.5485 22.9127 21.3328 22.629L17.704 17.8638C17.5892 17.7131 17.3807 17.6459 17.1337 17.68L16.6336 17.0233C18.8677 14.9233 19.2102 11.4241 17.3132 8.93268C16.2997 7.60188 14.8376 6.80748 13.2964 6.59868C13.0072 6.5595 12.7155 6.54105 12.4237 6.54348ZM5.61036 7.1454C5.76036 7.50156 6.33972 7.29252 6.11292 7.77804C6.3654 8.01564 6.07284 8.85324 5.97468 8.13948C5.34636 8.13636 5.04636 7.50948 5.57388 7.18044L5.61036 7.1454ZM6.1578 7.20444C6.3498 7.36764 5.8554 7.2954 6.1578 7.20444ZM21.2365 7.64316C21.2951 7.71732 21.2533 7.63116 21.2365 7.64316ZM12.6654 7.8882C12.8166 7.89412 12.967 7.90708 13.1166 7.92708C13.7317 8.01021 14.3242 8.21411 14.8602 8.52706C15.3962 8.84001 15.865 9.25582 16.2397 9.7506C16.6167 10.2435 16.8927 10.806 17.0517 11.4058C17.2107 12.0056 17.2498 12.631 17.1665 13.2459C17.0832 13.8608 16.8793 14.4533 16.5665 14.9892C16.2537 15.5251 15.8381 15.994 15.3436 16.3688C14.8507 16.7459 14.2881 17.0219 13.6883 17.1809C13.0885 17.34 12.4631 17.379 11.8481 17.2957C11.2332 17.2125 10.6407 17.0086 10.1048 16.6957C9.56884 16.3829 9.09997 15.9672 8.72508 15.4727C8.34809 14.9798 8.07216 14.4173 7.91314 13.8174C7.75412 13.2176 7.71514 12.5923 7.79843 11.9773C7.88171 11.3624 8.08564 10.77 8.39849 10.2341C8.71134 9.69816 9.12696 9.22931 9.62148 8.85444C10.4924 8.18725 11.5691 7.84546 12.6654 7.8882ZM21.9265 8.1354C22.3789 8.39004 21.5497 8.44716 21.9265 8.1354ZM22.3753 8.39508C22.7399 8.59908 21.9582 8.59884 22.3753 8.39508ZM22.647 8.49012C23.0262 8.637 22.275 8.79972 22.647 8.49012ZM22.6321 8.55732C22.6528 8.55708 22.6194 8.57916 22.6321 8.55732ZM22.6676 8.59596C22.6789 8.6142 22.6376 8.5998 22.6676 8.59596ZM12.5063 8.84628C11.9816 8.83692 11.4637 8.95428 10.9861 9.165C11.0111 9.19548 11.0468 9.22476 11.0992 9.25116C10.6192 9.09516 10.4795 9.70164 10.6816 9.97452L11.0063 10.0012L11.2777 9.88164C11.4532 9.69924 11.4968 9.73068 11.5535 9.45444L11.6593 9.46812L11.7433 9.43308L11.9346 9.52764C12.164 9.6174 12.1748 9.81084 12.098 9.86748C11.9893 9.93444 12.1175 9.94428 12.128 9.9858C12.1823 9.9702 12.214 9.9234 12.248 9.89844L12.3095 9.87636C12.5336 9.72924 12.3772 9.68076 12.2214 9.48228L12.304 9.5034C12.4247 9.6402 12.4957 9.795 12.5672 9.9594C12.5754 9.96588 12.5828 9.97428 12.5922 9.97716C12.6464 9.99516 12.723 9.98916 12.7885 9.97116C12.8533 9.9534 12.8576 9.8298 12.8466 9.71148C12.939 10.1329 13.8452 10.0076 13.306 10.2647C12.9952 10.2716 12.5012 10.1012 12.4103 10.3165C12.2092 10.2253 12.1064 10.1656 12.0656 10.1188C11.9418 10.0722 11.5854 9.93732 11.5727 9.93732C11.5576 9.93732 11.104 10.0199 11.104 10.0199L10.7296 10.162C10.6079 10.5541 10.4159 10.3444 10.3506 10.6484C10.2995 10.8428 9.85956 11.2628 10.09 11.5936C10.2956 12.5502 11.4882 11.9132 11.7661 12.3726C11.6356 12.6556 12.2814 13.1939 11.92 13.6573C12.0904 14.3305 12.5483 15.4559 13.2851 14.4978C13.4795 13.9242 13.898 13.6141 13.8832 13.0451C13.6607 12.4847 14.9704 12.0692 14.4464 11.6154C14.3209 11.6303 14.3065 11.6574 14.2069 11.6905C13.9976 11.6826 13.9436 11.5139 13.8724 11.4078C13.8179 11.3304 13.7698 11.2488 13.7284 11.1637C13.8616 11.3701 13.9991 11.5453 14.192 11.6531C14.5259 11.5782 14.9087 11.3312 15.0644 11.15C15.0606 10.4437 16.01 11.1764 15.9908 11.7073C16.0496 11.8504 16.1243 11.9497 16.1992 12.0078C16.1462 11.6682 16.0448 11.338 15.8982 11.0272C15.632 10.443 15.2058 9.9414 14.6879 9.56604C14.6783 9.58092 14.6543 9.58188 14.6591 9.54588C14.589 9.49628 14.5174 9.449 14.4443 9.40404C14.4523 9.43748 14.4618 9.47132 14.4728 9.50556C14.4414 9.45876 14.4083 9.41124 14.3809 9.3654C13.8155 9.03228 13.167 8.84124 12.5065 8.84604L12.5063 8.84628ZM20.3152 8.87796C20.4892 9.3738 19.7099 10.5229 19.5966 9.7686C19.6765 9.39564 20.3161 9.4518 20.3152 8.87796ZM5.70516 9.009C5.7402 9.00492 5.69964 9.027 5.70516 9.009ZM6.075 9.18348C6.14484 9.24156 5.99052 9.22716 6.075 9.18348ZM13.2817 9.19932C13.4754 9.36252 14.0696 9.57852 13.4406 9.4062C13.1132 9.55572 13.012 9.45996 13.2817 9.19932ZM11.7846 9.48972C11.7424 9.50268 11.7781 9.59028 11.7517 9.61788C11.9317 9.70596 11.8309 9.5346 11.8576 9.50652C11.8211 9.48924 11.7985 9.48516 11.7846 9.48972ZM14.5285 9.66852C14.5842 9.81324 14.6212 9.90564 14.4781 9.72612C14.49 9.72049 14.5006 9.71247 14.5093 9.70256C14.518 9.69265 14.5245 9.68107 14.5285 9.66852ZM11.8014 9.68652C11.7308 9.67884 11.6934 9.72612 11.6932 9.79212C11.8792 9.89316 11.86 9.72636 11.8828 9.71364C11.8574 9.69976 11.83 9.69058 11.8014 9.68652ZM14.6749 10.7144C14.781 10.7188 14.5734 10.868 14.6089 10.7228C14.6384 10.7164 14.6598 10.7137 14.6749 10.7144ZM21.9856 11.6533C22.3974 12.0851 21.64 12.0205 21.9856 11.6533ZM21.9616 11.7104C21.9971 11.7066 21.9551 11.7349 21.9616 11.7104ZM21.9913 11.763C21.9947 11.7877 21.9553 11.757 21.9913 11.763ZM22.2426 11.811C22.6468 11.9963 21.9078 12.1024 22.2426 11.811ZM22.2786 11.8938C22.304 11.8895 22.2738 11.9291 22.2786 11.8938ZM22.2313 11.9065C22.2534 11.9363 22.2119 11.9233 22.2313 11.9065ZM19.496 12.2838C19.502 12.4336 19.5032 12.5832 19.4999 12.7326C19.7752 12.7765 20.12 12.764 20.1265 13.0686C20.62 13.09 20.0756 13.8107 20.0576 13.1435C19.8566 13.1145 19.6516 13.1493 19.4713 13.2428C19.4214 13.7666 19.3142 14.2833 19.1516 14.7836C19.5548 14.6557 19.9662 14.6682 20.2091 15.0601C20.8487 15.0577 20.3046 15.4938 20.758 15.5828C20.9512 15.1883 20.6562 15.238 21.0186 14.9164C21.3702 14.4668 21.14 13.8863 20.7894 13.6408C20.7164 13.3628 20.4258 13.2126 20.5626 13.023C20.829 13.3842 21.2065 13.1137 20.8914 12.9184C21.124 12.7012 21.9548 13.478 21.4883 12.8804C21.2579 12.8377 20.9413 12.3613 20.8696 12.668C20.8489 12.9224 20.2141 12.2819 19.9799 12.544C19.9122 12.3078 19.581 12.4504 19.5623 12.5557C19.664 12.3973 19.6 12.3155 19.496 12.2838ZM20.7172 12.489C21.0277 12.6776 20.3732 12.6844 20.7172 12.489ZM11.7328 12.5058C11.7604 12.5682 11.7248 12.5161 11.7328 12.5058ZM8.72004 12.5351C8.71283 12.8683 8.74987 13.2011 8.8302 13.5246C9.1062 13.1065 9.0954 12.7139 8.72004 12.5351ZM20.6994 12.5466C20.72 12.5615 20.674 12.5524 20.6994 12.5466ZM20.932 12.5754C21.044 12.6546 20.8196 12.6546 20.932 12.5754ZM20.932 12.5778C21.034 12.6512 20.8297 12.6512 20.932 12.5778ZM20.7224 12.5987C20.7263 12.6229 20.6869 12.5944 20.7224 12.5987ZM19.498 12.8593C19.4956 12.9169 19.4905 12.9745 19.4867 13.0321C19.5642 12.9448 19.5978 12.8545 19.498 12.8593ZM14.0279 13.108C13.7504 13.2604 14.3248 13.33 14.0848 13.1512L14.0744 13.1255L14.0279 13.108ZM14.3524 13.1507C14.0783 13.322 13.653 14.139 14.2427 14.1647C14.3848 13.9957 14.745 13.2424 14.3524 13.1507ZM21.7866 13.671C22.4243 13.9309 21.567 14.1042 21.7866 13.671ZM14.7916 13.7286C15.1374 13.9376 14.4349 13.9679 14.7916 13.7286ZM22.359 14.7164C22.562 15.176 21.8886 15.4513 21.9395 15.878C22.2851 16.0446 22.4634 15.4177 22.7068 15.226C22.9945 14.9744 22.4802 14.9 22.359 14.7164ZM6.39708 16.13C6.43644 16.383 6.555 16.6278 6.76668 16.7024C6.63421 16.5178 6.51086 16.3268 6.39708 16.13Z"
    fill="currentColor"/>
</svg>
