<svg width="28" height="20" viewBox="0 0 28 20" fill="none" xmlns="http://www.w3.org/2000/svg">
<rect width="28" height="20" rx="2" fill="white"/>
<mask id="mask0_3226_6496" style="mask-type:luminance" maskUnits="userSpaceOnUse" x="0" y="0" width="28" height="20">
<rect width="28" height="20" rx="2" fill="white"/>
</mask>
<g mask="url(#mask0_3226_6496)">
<rect width="28" height="20" fill="#FF2936"/>
<path fill-rule="evenodd" clip-rule="evenodd" d="M0 20H10.6667V0H0V20Z" fill="#128415"/>
<path d="M10.6667 13.334C12.5076 13.334 14 11.8416 14 10.0007C14 8.1597 12.5076 6.66732 10.6667 6.66732C8.82572 6.66732 7.33333 8.1597 7.33333 10.0007C7.33333 11.8416 8.82572 13.334 10.6667 13.334Z" stroke="#FAF94F" stroke-width="1.33333"/>
<path fill-rule="evenodd" clip-rule="evenodd" d="M9.33301 8.33333C9.33301 8.14924 9.48225 8 9.66634 8H11.6663C11.8504 8 11.9997 8.14924 11.9997 8.33333V10.6667C11.9997 11.403 11.4027 12 10.6663 12V12C9.92996 12 9.33301 11.403 9.33301 10.6667V8.33333Z" fill="white"/>
<path fill-rule="evenodd" clip-rule="evenodd" d="M10.6667 10.666C11.0349 10.666 11.3333 9.70087 11.3333 9.33268C11.3333 8.96449 11.0349 8.66602 10.6667 8.66602C10.2985 8.66602 10 8.96449 10 9.33268C10 9.70087 10.2985 10.666 10.6667 10.666Z" fill="#1D50B5"/>
</g>
</svg>
