<svg width="16" height="16" viewBox="0 0 16 16" fill="none" xmlns="http://www.w3.org/2000/svg">
  <path fill-rule="evenodd" clip-rule="evenodd"
        d="M14.8243 7.0782V8.8259C14.8235 8.88863 14.7978 8.94847 14.753 8.99231C14.7081 9.03614 14.6477 9.06041 14.5849 9.05977H9.32048C9.25775 9.06041 9.19733 9.03614 9.15245 8.99231C9.10758 8.94847 9.08191 8.88863 9.08108 8.8259V7.0782C9.08191 7.01561 9.10747 6.95589 9.15217 6.91207C9.19688 6.86826 9.25709 6.8439 9.31969 6.84433H14.5849C14.6477 6.84369 14.7081 6.86795 14.753 6.91179C14.7978 6.95563 14.8235 7.01547 14.8243 7.0782ZM12.5528 1.18652C13.2873 1.22158 13.8408 1.36679 14.199 1.696C14.5519 2.02081 14.7261 2.4859 14.7602 3.08016L14.7605 3.08581L14.7603 4.74382C14.7584 4.91109 14.6901 5.07074 14.5705 5.1877C14.4511 5.3044 14.2904 5.36909 14.1236 5.36763C14.041 5.36847 13.9591 5.35312 13.8825 5.32244C13.8056 5.29163 13.7354 5.24596 13.6761 5.18803C13.6168 5.1301 13.5694 5.06106 13.5368 4.98484C13.5042 4.90862 13.4869 4.82673 13.4859 4.74382L13.4859 4.74261L13.4867 3.11869C13.4695 2.82805 13.4002 2.67495 13.3265 2.60689C13.2965 2.57938 13.2175 2.5405 13.0732 2.50616C12.9343 2.47308 12.7484 2.44726 12.5195 2.43556H2.19245C1.98614 2.44334 1.81928 2.46675 1.68989 2.50076C1.55899 2.53516 1.47248 2.57884 1.42135 2.62271C1.39251 2.64733 1.35416 2.70677 1.32391 2.82258C1.29437 2.93568 1.27526 3.09172 1.27487 3.29526L1.2725 12.5899C1.31187 12.9894 1.39885 13.2327 1.49242 13.343C1.51817 13.3735 1.5862 13.4178 1.71012 13.4613C1.82857 13.5028 1.9859 13.5395 2.17637 13.5641H12.535C12.7728 13.5688 12.958 13.5532 13.093 13.5259C13.2324 13.4977 13.3035 13.46 13.3304 13.4331C13.3645 13.3984 13.4051 13.3217 13.4363 13.1854C13.4669 13.0519 13.4859 12.8723 13.4859 12.6445V11.0287C13.4859 10.6821 13.7732 10.4037 14.1235 10.4037C14.4731 10.4037 14.7603 10.6822 14.7603 11.0287V12.6445C14.7603 13.3656 14.6135 13.9293 14.246 14.3019C13.8666 14.6864 13.2748 14.8291 12.5209 14.8133L2.09461 14.8109C1.37749 14.7278 0.83834 14.5283 0.511273 14.1415C0.218382 13.7954 0.0625559 13.3098 0.000871271 12.6545L0 12.6453L0.000436596 3.2944C0.00204643 2.5894 0.170893 2.03364 0.583246 1.68109C0.956733 1.36005 1.48692 1.21136 2.16633 1.18569L2.17006 1.18555L12.5528 1.18652ZM14.5849 5.69315C15.3642 5.69315 16 6.31122 16 7.0782V8.8259C16 9.59288 15.3642 10.211 14.5849 10.211H9.32048C8.54116 10.211 7.90541 9.59206 7.90541 8.8259V7.0782C7.90541 6.31122 8.5412 5.69315 9.32048 5.69315H14.5849ZM9.87987 7.95916C9.87987 7.55125 10.2222 7.22595 10.6368 7.22595C11.0515 7.22595 11.3937 7.55141 11.3937 7.95916C11.3937 8.36707 11.0514 8.69238 10.6368 8.69238C10.2222 8.69238 9.87987 8.36707 9.87987 7.95916Z"
        fill="currentColor"/>
</svg>
