<svg width="25" height="24" viewBox="0 0 25 24" fill="none" xmlns="http://www.w3.org/2000/svg">
  <path
    d="M19.1798 18.6101C19.5378 17.5116 21.2152 6.56338 21.4226 4.40608C21.4852 3.75271 21.2787 3.31854 20.8741 3.12473C20.3849 2.88945 19.6605 3.00709 18.8201 3.31008C17.6674 3.72563 2.931 9.98257 2.07959 10.3448C1.27218 10.6876 0.508789 11.0617 0.508789 11.6033C0.508789 11.9842 0.73476 12.1983 1.35766 12.4209C2.00595 12.6519 3.63853 13.147 4.60251 13.4128C5.53094 13.6692 6.58801 13.4466 7.18044 13.0785C7.80842 12.6883 15.0556 7.83881 15.5761 7.41395C16.0957 6.98909 16.5104 7.53328 16.0856 7.95899C15.6607 8.38385 10.686 13.2122 10.03 13.8808C9.23365 14.6924 9.799 15.5337 10.333 15.8705C10.9432 16.2548 15.3315 19.1983 15.9925 19.6706C16.6535 20.1428 17.3238 20.3569 17.9373 20.3569C18.5509 20.3569 18.8742 19.5487 19.1798 18.6101Z"
    fill="currentColor"/>
</svg>
