<svg width="24" height="24" viewBox="0 0 24 24" fill="none" xmlns="http://www.w3.org/2000/svg">
  <path fill-rule="evenodd" clip-rule="evenodd"
        d="M11.7125 3.22795C11.7107 3.0802 11.6848 2.88167 11.6514 2.74026C11.6409 2.69583 11.6037 2.66286 11.5915 2.61895C11.5535 2.4818 11.5589 2.20764 11.6218 2.07732C11.6427 2.03417 11.6829 2.00787 11.7341 2.00354C11.8112 1.99701 11.8894 2.03451 11.9679 2.03574C12.063 2.03723 12.1508 1.99941 12.2441 2.00001C12.2935 2.00032 12.3321 2.01576 12.3531 2.05855C12.4142 2.1824 12.4004 2.46977 12.3654 2.60265C12.3515 2.65541 12.3037 2.69283 12.2911 2.74507C12.2603 2.87228 12.2092 3.09619 12.2232 3.22795C12.2867 3.1985 12.3296 3.13805 12.3943 3.11329C12.4858 3.07824 12.6444 3.1611 12.7339 3.18662C12.8729 3.22624 13.0163 3.27274 13.1382 3.34723C13.6805 3.67877 13.3683 4.36496 13.1237 4.78457C13.03 4.94546 12.9192 5.13543 12.9819 5.31856C13.0241 5.4419 13.1645 5.52161 13.2814 5.58791C13.6143 5.77683 13.9502 5.96308 14.3086 6.10009C14.2959 5.97132 14.2241 5.85894 14.1518 5.74583C14.0812 5.63545 14.0102 5.52438 13.9933 5.39671C13.9482 5.05557 14.2076 4.88748 14.5426 4.82635C14.6565 4.80556 14.8058 4.78621 14.9044 4.84963C14.8908 4.80003 14.8733 4.74867 14.8553 4.6962C14.7943 4.5178 14.7289 4.32649 14.8011 4.14711C14.8594 4.0024 15.0606 4.09794 15.1792 4.07093C15.3405 4.03419 15.3712 4.14922 15.3723 4.28998C15.3724 4.29427 15.3724 4.29847 15.3725 4.30256C15.3745 4.48255 15.3268 4.65589 15.3087 4.8301C15.3946 4.72653 15.5521 4.81272 15.6582 4.84079C15.8576 4.89358 16.0556 4.94599 16.1485 5.14271C16.2446 5.34621 16.1184 5.57952 16.0086 5.78253C15.978 5.83906 15.9487 5.89325 15.9258 5.94378C16.198 6.00328 16.5195 5.90177 16.5602 5.61163C16.5877 5.41505 16.5083 5.20738 16.4328 5.00997C16.4015 4.92821 16.371 4.84821 16.3489 4.77148C16.3042 4.61572 16.2895 4.42636 16.3968 4.28636C16.5936 4.02949 17.1337 3.72301 17.4366 3.86211C17.5691 3.92291 17.6698 4.02784 17.7707 4.13303C17.8636 4.22986 17.9567 4.32691 18.075 4.38992C18.1715 4.44129 18.2724 4.47425 18.37 4.5061C18.5859 4.57659 18.7852 4.64163 18.8817 4.88871C18.9645 5.1006 18.8653 5.23708 18.7598 5.38233C18.7005 5.46402 18.6391 5.54849 18.607 5.65071C18.7697 5.69858 19.0134 5.68433 19.1306 5.80912C19.2669 5.9542 19.1708 6.34954 18.9484 6.37517C18.8468 6.38685 18.8351 6.23949 18.7531 6.20986C18.6184 6.16113 18.4369 6.21982 18.2878 6.17824C18.3204 6.32324 18.3737 6.47829 18.3446 6.62762C18.3023 6.8447 18.0146 7.03924 17.7771 6.97931C17.8276 6.73322 17.8312 6.54814 17.7029 6.31898C17.5387 6.02564 17.5475 5.81112 17.6968 5.50957C17.7757 5.3503 17.8546 5.19091 17.8214 5.00594C17.8069 4.9255 17.8011 4.81972 17.7286 4.76296C17.6545 4.70492 17.5433 4.69592 17.4532 4.6659C17.3243 4.62298 17.1933 4.57934 17.0749 4.51748C17.0882 4.67294 17.1285 4.82415 17.1686 4.97512C17.2354 5.22631 17.3787 5.69057 17.1907 5.92424C17.0827 6.05843 16.9425 6.12152 16.7943 6.18818C16.593 6.27876 16.3942 6.3265 16.1812 6.37363C16.2741 6.52905 16.455 6.47497 16.6067 6.54789C16.9436 6.7098 17.1351 7.05422 16.9728 7.38962C16.9705 7.3944 16.9681 7.39938 16.9657 7.40452C16.9246 7.49008 16.8623 7.62011 16.7554 7.63535C16.6405 7.65175 16.5002 7.53844 16.3939 7.50421C16.21 7.44495 15.983 7.45525 15.7981 7.50685C15.997 7.54452 16.1859 7.59245 16.3727 7.66609C16.5275 7.72716 16.6879 7.81981 16.8621 7.81784C16.9989 7.8163 17.2151 7.53792 17.3213 7.5997C17.3851 7.63676 17.395 7.73832 17.3918 7.79992C17.3823 7.98536 17.2622 8.16351 17.0749 8.23891C16.6998 8.38983 16.4693 8.1935 16.1386 8.093C16.1382 8.21633 16.1194 8.5255 15.9068 8.49496C15.8283 8.48369 15.8091 8.39756 15.792 8.3207C15.7531 8.14603 15.6064 8.06147 15.4364 8.02792C15.1534 7.97205 14.6992 7.98724 14.4371 8.11309C14.2652 8.19563 14.1766 8.40335 14.0749 8.55628C13.9803 8.69861 13.8735 8.85939 13.8378 9.0113C13.8051 9.151 13.8256 9.38386 13.8745 9.5193C13.9446 9.71367 14.1516 9.86585 14.3724 9.89254C14.479 9.90542 14.6853 9.84252 14.7478 9.95203C14.8447 10.1218 14.6132 10.3524 14.4575 10.4071C14.3716 10.4372 14.284 10.4364 14.2022 10.4767C14.3876 10.5465 14.6357 10.6376 14.8405 10.5854C14.9535 10.5566 15.0109 10.3553 15.1363 10.3919C15.5513 10.5129 15.1868 11.2554 14.9257 11.3559C15.1626 11.6394 15.646 11.6676 15.9468 11.4555C16.2871 11.2155 16.1446 10.9712 15.9343 10.6977C15.7512 10.4596 15.5575 10.2077 15.7882 9.9296C16.2115 9.41936 16.7585 9.02019 17.1926 8.51456C17.3112 8.37645 17.5274 8.12477 17.6494 8.347C17.8526 8.16049 18.0251 7.96887 18.1718 7.74131C18.2483 7.62263 18.2952 7.45284 18.4055 7.35685C18.4788 7.29294 18.5443 7.34114 18.607 7.38962C19.1808 6.6387 19.7749 5.88223 20.1846 5.02548C20.2135 4.96507 20.2376 4.86198 20.3122 4.83481C20.5328 4.75429 20.8302 5.16868 20.8453 5.33809C20.8688 5.60329 20.8669 5.92288 20.7834 6.17824C20.7143 6.38953 20.5958 6.58662 20.4789 6.78113C20.443 6.84081 20.4073 6.90025 20.3732 6.95978C20.597 6.83181 20.9616 6.36921 21.2243 6.38875C21.402 6.40196 21.4412 6.67868 21.4548 6.80347C21.5042 7.25682 21.2332 7.66701 20.9477 8.01485C21.1323 7.99296 21.5734 7.83214 21.7435 7.95678C22.0243 8.16264 21.2341 8.96324 21.1179 9.06992C21.3409 9.0699 21.8156 8.929 21.9685 9.10395C22.0578 9.20605 21.9379 9.36844 21.8746 9.45409L21.8697 9.46068C21.6531 9.75452 21.3491 9.93282 21.0328 10.125C21.2289 10.125 21.7526 10.0844 21.8831 10.2879C21.9503 10.3928 21.83 10.5519 21.7681 10.633C21.5453 10.925 21.2582 11.0304 20.9052 11.141C21.0743 11.1784 21.6846 11.3009 21.6981 11.552C21.7157 11.8781 20.9832 12.0242 20.7775 12.0593C20.9212 12.1735 21.3189 12.3629 21.3228 12.585C21.3265 12.793 20.6957 12.8747 20.5647 12.8799C20.7017 13.0095 20.8332 13.393 20.713 13.5769C20.5491 13.8277 20.1829 13.6759 19.9817 13.8328C19.8071 13.969 19.9998 14.2278 19.9011 14.3799C19.8154 14.512 19.3775 14.4977 19.2454 14.4593C19.1038 14.4182 18.9855 14.2824 18.8836 14.189C18.9414 14.275 19.022 14.3574 19.03 14.4625C19.0416 14.6145 18.8782 14.9351 18.7325 15.009C18.4318 15.1615 18.0987 14.9448 17.9048 14.736C17.9043 14.9054 17.7435 15.2479 17.5623 15.3101C17.4823 15.3376 17.4004 15.3007 17.3098 15.283C16.923 15.2075 16.8948 15.072 16.7131 14.7556C16.6827 14.9704 16.4014 15.1709 16.1599 15.1647C16.0135 15.161 15.7328 15.0427 15.6559 14.9101C15.5003 14.6414 15.744 14.2773 15.5635 14.019C15.4962 13.9229 15.1374 13.7845 15.0333 13.8358C14.7863 13.9578 14.8406 14.6654 14.9163 14.8533C14.9574 14.9552 15.0861 15.04 15.1031 15.146C15.118 15.2389 15.002 15.2704 14.9257 15.2831C15.0478 15.3735 15.2139 15.4265 15.3725 15.4181C15.4585 15.4135 15.5609 15.3686 15.646 15.3878C15.7501 15.4112 15.7234 15.5912 15.8986 15.6242C16.2988 15.6994 16.5911 16.0931 16.5603 16.4945C16.5496 16.6323 16.5055 16.7867 16.5245 16.9243C16.5404 17.0397 16.6416 17.0948 16.7557 17.1194C16.7666 17.1217 16.7798 17.1236 16.7939 17.1256C16.8471 17.1333 16.9146 17.143 16.9321 17.1868C16.9644 17.2672 16.8493 17.3806 16.7963 17.432C16.5815 17.6402 16.2561 17.5828 16.0109 17.4519C16.0209 17.5568 16.1312 17.7206 16.0976 17.8186C16.08 17.8699 16.0186 17.8782 15.9683 17.8808C15.8222 17.8886 15.7307 17.8344 15.6279 17.7449C15.5912 17.8366 15.5346 17.8435 15.4364 17.8231C15.6103 18.0925 15.9119 18.1841 16.2179 18.2771C16.4597 18.3505 16.6677 18.4483 16.9259 18.4483C17.1087 18.4483 17.3195 18.4858 17.4408 18.3303C17.5492 18.1914 17.2883 17.9477 17.2894 17.7645C17.2908 17.5073 17.4617 17.1275 17.6091 16.9243C17.7803 16.6883 18.0623 16.5504 18.3516 16.4749C18.2925 16.3738 18.2993 16.2761 18.307 16.1649L18.3072 16.1623C18.3094 16.1307 18.307 16.0932 18.3044 16.0537C18.2984 15.9609 18.2917 15.8573 18.3432 15.794C18.4209 15.6986 18.6008 15.7346 18.7134 15.7322C18.829 15.7298 18.9921 15.6985 19.0933 15.7665C19.1771 15.8229 19.1583 15.9226 19.1606 16.006C19.1617 16.0476 19.1662 16.0881 19.1706 16.1274C19.1846 16.2523 19.1974 16.3665 19.0964 16.4749C19.6338 16.5629 19.9561 17.0535 20.0919 17.4909C20.1204 17.5829 20.2115 17.6652 20.1977 17.7645C20.1793 17.8979 20.0814 18.0172 19.9955 18.1218C19.9248 18.2078 19.8886 18.3052 19.8215 18.3897C19.7072 18.5335 19.5725 18.7599 19.432 18.8644C19.2694 18.9855 18.9676 19.1491 18.7772 19.1884C18.6463 19.2154 18.4946 19.1721 18.3729 19.2042C18.1839 19.2542 18.087 19.4072 17.8622 19.3826C17.6652 19.3609 17.4803 19.2552 17.3053 19.174C17.1315 19.0933 16.9574 19.0125 16.777 18.9456C16.5142 18.8482 16.2151 18.837 15.9416 18.7798C15.7903 18.7482 15.6394 18.7196 15.4822 18.695C15.2894 18.6649 15.0822 18.6416 14.9299 18.5605C14.8206 18.5023 14.7256 18.5056 14.6049 18.5171C14.4607 18.5309 14.2949 18.5468 14.2131 18.4759C14.0788 18.3595 14.2675 18.0358 14.2873 17.9012C14.0581 17.9012 13.7829 17.8841 13.6433 17.686C13.5959 17.6187 13.5487 17.4555 13.6221 17.3905C13.6745 17.3442 13.764 17.3526 13.8346 17.3593C13.9671 17.3717 14.1397 17.3617 14.1965 17.2173C14.2407 17.1049 14.1805 16.9935 14.1058 16.9048C13.9398 16.7076 13.5973 16.6385 13.351 16.7571C13.089 16.8834 12.8098 17.3318 12.9886 17.5886C13.1093 17.762 13.3286 17.8473 13.4747 17.999C13.5924 18.1212 13.5721 18.2916 13.6769 18.4072C13.8334 18.5797 14.1129 18.6867 14.3086 18.8065C14.4443 18.8898 14.5751 18.9796 14.7129 19.06C14.716 19.0618 14.7191 19.0636 14.7222 19.0654C14.7909 19.1056 14.8727 19.1534 14.956 19.153C15.2167 19.1515 14.9974 18.8237 15.1207 18.7727C15.3407 18.6817 15.6303 18.9095 15.7149 19.0735C15.7918 19.2227 15.7972 19.3666 15.7462 19.5229C15.7259 19.5853 15.67 19.6535 15.6665 19.7183C15.6588 19.8596 15.867 19.9695 15.8813 20.1286C15.8954 20.2863 15.8815 20.4507 15.8145 20.5975C15.7556 20.7264 15.6474 20.8261 15.6377 20.9709C15.6327 21.044 15.6268 21.1319 15.5609 21.1322C15.3789 21.1332 15.2379 20.8378 15.1597 20.7148C14.879 21.5057 14.4006 21.0717 13.9082 21.1618C13.561 21.2253 13.462 21.7304 12.968 21.6663C12.8037 21.645 12.6578 21.575 12.4998 21.5354C12.4189 21.702 12.1828 22.0006 11.9679 22C11.7017 21.9996 11.6324 21.6129 11.3933 21.5702C11.1346 21.5239 10.8961 21.7403 10.606 21.6417C10.3674 21.5607 10.2312 21.2289 10.027 21.1729C9.91727 21.1428 9.74085 21.2967 9.62713 21.3141C9.18324 21.3822 8.99595 21.094 8.79724 20.7734C8.73684 20.882 8.51131 21.198 8.35269 21.1674C8.22365 21.1426 8.27044 20.9289 8.22317 20.8408C8.06716 20.5505 7.867 20.1779 8.16105 19.895C8.20516 19.8526 8.25181 19.8232 8.30782 19.7965C8.24925 19.7148 8.17422 19.6401 8.1489 19.5425C8.0633 19.2125 8.2912 18.8343 8.66956 18.772C8.83199 18.7453 8.83807 18.8462 8.84428 18.9493C8.85007 19.0454 8.85598 19.1434 8.98877 19.1419C9.17725 19.1397 9.40292 18.9313 9.55944 18.8316C9.75821 18.7049 10.0552 18.6041 10.212 18.4252C10.318 18.3043 10.3134 18.1402 10.4377 18.0188C10.594 17.8662 10.8724 17.7677 10.9658 17.5691C11.0861 17.3135 10.8311 16.9312 10.6273 16.8002C10.419 16.6664 10.0622 16.6457 9.8682 16.8147C9.78218 16.8897 9.72716 16.9943 9.70231 17.1002C9.64618 17.3394 9.94896 17.3848 10.1378 17.3925C10.1918 17.3947 10.291 17.3772 10.3279 17.4246C10.3684 17.4766 10.3157 17.5666 10.2854 17.6183C10.2835 17.6216 10.2816 17.6247 10.2799 17.6277C10.1688 17.8195 10.0098 17.8968 9.77609 17.9012C9.83263 18.0653 10.0519 18.2763 9.8741 18.4406C9.7735 18.5336 9.61936 18.5303 9.4822 18.5274C9.14904 18.5204 8.8091 18.5064 8.47805 18.5501C8.23771 18.5819 7.90487 18.6666 7.69269 18.7969C7.41376 18.9683 7.18058 19.1662 6.86082 19.2885C6.91206 19.4015 7.00916 19.5175 7.02621 19.6402C7.04404 19.7684 6.99571 19.8972 7.01308 20.0309C7.03114 20.1701 7.01999 20.3513 6.81827 20.3592C6.29999 20.3796 6.33825 19.9447 6.08585 19.7065C5.9596 19.5874 5.78034 19.6082 5.67351 19.4465C5.59145 19.3222 5.42687 19.2898 5.35372 19.1694C5.29874 19.0789 5.29613 18.9652 5.23837 18.8708C5.1284 18.6911 5.17942 18.555 5.31 18.4071C5.38841 18.3183 5.46477 18.2318 5.42762 18.1162C5.38811 17.9932 5.28688 17.9173 5.23802 17.8036C5.16323 17.6293 5.14205 17.4215 5.0454 17.2606C4.98933 17.1672 4.90556 17.1084 4.86198 17.0025C4.81122 16.8792 4.87242 16.7674 4.82908 16.6508C4.53626 15.863 4.14272 15.0621 3.74362 14.3258C3.49213 13.8618 2.84169 13.6664 2.54124 13.212C2.44509 13.0666 2.45601 12.8676 2.45601 12.704C2.56386 12.7091 2.65437 12.7467 2.75392 12.7822C2.66376 12.368 2.9006 12.3566 3.20079 12.0984C3.03612 12.0634 2.20324 11.8473 2.2445 11.5716C2.28041 11.3317 2.87687 11.1905 3.05183 11.1214C2.86803 11.0987 1.77046 10.6222 2.04335 10.2877C2.22516 10.0649 2.61507 10.1702 2.86032 10.0859C2.55423 9.98286 2.25846 9.69253 2.0927 9.44114C2.04113 9.36293 1.95373 9.19166 2.03102 9.10395C2.16275 8.95447 2.71926 9.06178 2.8816 9.08946C2.83732 9.0488 2.79 9.00814 2.74193 8.96682C2.56994 8.81902 1.94021 8.20481 2.25901 7.93548C2.41855 7.80075 2.81854 7.9459 2.98799 8.01485C2.95589 7.96751 2.92153 7.9218 2.8872 7.87611C2.66753 7.58382 2.19768 6.32097 2.81776 6.39613C2.95554 6.41282 3.07695 6.54908 3.18013 6.63474C3.27615 6.71445 3.37273 6.79463 3.47742 6.86208C3.21767 6.45346 2.98648 5.76323 3.19259 5.27948C3.25999 5.1213 3.4649 4.75067 3.70919 4.8419C3.88451 4.90737 4.00299 5.32681 4.09452 5.47486C4.48703 6.10978 5.04381 6.67876 5.32872 7.37008L5.56279 7.29193C5.7788 7.62824 5.95114 8.0511 6.2882 8.2826C6.38868 8.35165 6.48867 8.22561 6.5913 8.31413C7.05891 8.71744 7.93178 9.45157 8.21068 9.98822C8.35109 10.2584 8.20592 10.5355 8.00261 10.7166C7.3339 11.3121 8.52807 11.8468 9.05259 11.4145C8.62539 11.229 8.54787 10.8182 8.77596 10.4181C8.91811 10.4432 9.02295 10.5408 9.15899 10.5822C9.25712 10.612 9.69097 10.6235 9.69097 10.4767C9.46241 10.4281 9.27766 10.343 9.21065 10.125C9.20922 10.1203 9.2077 10.1155 9.20612 10.1105C9.13163 9.8736 9.30761 9.87371 9.50365 9.90939C10.0262 10.0045 10.1968 9.36699 10.1106 8.97222C10.068 8.77671 9.89552 8.55284 9.77095 8.39112L9.76706 8.38607C9.6995 8.29837 9.63409 8.16811 9.5381 8.10478C9.38894 8.00641 8.94865 7.97165 8.77596 7.96356C8.59779 7.95522 8.34359 8.00934 8.23819 8.1524C8.17561 8.23731 8.20914 8.46661 8.07249 8.48003C7.77115 8.50962 7.79179 8.14601 7.90351 7.99531C7.83949 8.02324 7.78119 8.06209 7.72291 8.10093C7.63967 8.1564 7.55647 8.21186 7.45664 8.23547C7.16073 8.30544 6.74377 8.25546 6.62611 7.95623C6.58166 7.84318 6.60343 7.7003 6.62675 7.585C6.80952 7.64206 6.90866 7.78877 7.11618 7.81012C7.28605 7.8276 7.47949 7.74849 7.65467 7.67684C7.81493 7.6113 7.95259 7.57276 8.09873 7.54875C8.16901 7.53719 8.23914 7.52567 8.30782 7.50685C8.24098 7.502 8.17482 7.49237 8.10895 7.48278C7.95548 7.46045 7.80354 7.43834 7.64816 7.47735C7.51103 7.51175 7.34299 7.67363 7.20129 7.65483C7.09573 7.64084 7.02438 7.52949 6.98595 7.44823C6.87804 7.22014 6.90772 6.92093 7.08487 6.72713C7.19046 6.61164 7.36593 6.56215 7.52048 6.52796C7.54204 6.52319 7.56321 6.51964 7.58362 6.51621C7.67115 6.50152 7.74479 6.48916 7.77583 6.39316C7.61986 6.37388 7.45394 6.34086 7.30769 6.28662C7.19189 6.24368 7.08662 6.18612 6.9885 6.1155C6.90296 6.05394 6.81561 5.99058 6.75749 5.90471C6.59339 5.66221 6.67486 5.39922 6.75664 5.13523C6.81704 4.94027 6.8776 4.74476 6.83954 4.55656C6.79369 4.57409 6.74865 4.5931 6.70363 4.6121C6.5676 4.6695 6.36777 4.68681 6.24966 4.76869C6.04238 4.91238 6.17373 5.27824 6.25512 5.44614C6.4025 5.7502 6.39594 6.07374 6.19959 6.36206C6.04916 6.58295 6.10213 6.73368 6.17989 6.95978C5.92817 7.02316 5.66297 6.78981 5.63335 6.56901C5.61484 6.43109 5.68163 6.27605 5.7543 6.1587C5.55883 6.2156 5.33338 6.21566 5.1372 6.1587C5.09707 6.31732 4.9778 6.38031 4.86046 6.21648C4.78631 6.11296 4.76811 5.93956 4.83021 5.82741C4.94427 5.62124 5.32187 5.8362 5.38604 5.66735C5.42151 5.57398 5.23673 5.42598 5.18314 5.35763C5.07413 5.2186 5.03966 5.03488 5.09581 4.86917C5.21517 4.51694 5.62918 4.54636 5.92454 4.40367C6.1479 4.29576 6.23294 4.05638 6.43524 3.92426C6.76211 3.71079 7.24562 3.99616 7.4988 4.19442C7.62798 4.29557 7.64867 4.4278 7.64814 4.5761C7.64753 4.75026 7.58807 4.92099 7.52893 5.09081C7.49337 5.19292 7.45792 5.2947 7.43545 5.39671C7.37919 5.65209 7.42824 5.87669 7.73327 5.94845C7.84254 5.97416 7.96183 5.96332 8.07374 5.96332C7.90853 5.73828 7.72334 5.44604 7.78307 5.16225C7.83586 4.91143 8.30344 4.77089 8.54106 4.77768C8.5956 4.77924 8.64252 4.81025 8.69084 4.8301C8.59089 4.68903 8.56119 4.471 8.56357 4.30256C8.5644 4.24293 8.56806 4.16548 8.6087 4.11566C8.67109 4.03913 8.94792 4.04978 9.05227 4.05146C9.31394 4.05572 9.12443 4.62005 9.11643 4.79102C9.32255 4.79116 9.57388 4.82025 9.75479 4.9272C10.2145 5.199 9.82179 5.77431 9.62713 6.08055C9.7683 6.00677 9.91457 5.94129 10.0609 5.87579C10.2459 5.79297 10.431 5.71011 10.606 5.61038C10.6198 5.60249 10.6346 5.59432 10.6499 5.58583C10.7613 5.52405 10.9027 5.44571 10.9457 5.3378C11.0186 5.1548 10.9054 4.94115 10.8184 4.77707C10.5955 4.35636 10.2627 3.67437 10.8188 3.35727C10.9681 3.27209 11.127 3.22612 11.2871 3.16886C11.3769 3.13676 11.4819 3.09924 11.5596 3.12598C11.6177 3.14597 11.6575 3.20089 11.7125 3.22795ZM10.5209 6.1587C10.6926 6.22426 10.9127 6.1587 11.0954 6.1587C11.0506 6.33164 10.8675 6.44058 10.7124 6.52993C10.8075 6.56659 10.9291 6.54947 11.0316 6.54947C10.9778 6.7252 10.7601 6.80751 10.606 6.90116C10.9094 7.20272 11.333 7.05163 11.6184 7.2534C11.7926 7.37654 11.296 7.50308 11.2444 7.50685C11.5228 8.05375 11.829 8.51071 11.9679 9.12853C12.0004 8.5 12.5004 8 12.7126 7.48731C12.5299 7.45617 12.2124 7.4968 12.2232 7.25285C12.6051 7.22517 13.0482 7.16479 13.3297 6.90116C13.2288 6.85724 12.8798 6.75513 12.9504 6.6143C12.9892 6.53703 13.1912 6.56901 13.2659 6.56901C13.0998 6.43607 12.9187 6.35094 12.819 6.1587C13.0192 6.11494 13.2352 6.17447 13.4361 6.19778C13.1907 5.97004 12.7612 5.72779 12.4573 5.61034C12.2228 5.51974 11.7406 5.51222 11.4997 5.59272C11.1591 5.70648 10.8488 6.00011 10.5209 6.1587ZM7.28641 14.5016C7.1455 14.6965 7.14937 15.0033 6.94501 15.1582C6.84522 15.2338 6.5359 15.35 6.40715 15.2935C6.20304 15.2039 6.09868 14.8531 6.11605 14.6579C5.99016 14.7483 5.92969 14.9442 5.77526 14.9978C5.65552 15.0394 5.35753 15.0296 5.2506 14.956C4.95299 14.7512 4.96682 14.4214 5.15682 14.1718C5.19853 14.1171 5.2391 14.0638 5.26488 14.0131C5.18872 14.0624 5.12042 14.13 5.05154 14.1982C4.79432 14.4528 4.61251 14.4625 4.26475 14.4625C4.42318 14.9674 4.76653 15.4537 5.01286 15.9191C5.11574 16.1135 5.19643 16.3285 5.31869 16.5114C5.36698 16.5837 5.46882 16.5927 5.50929 16.6714C5.56179 16.7735 5.53061 16.8981 5.57532 17.0025C5.61654 17.0988 5.72528 17.1515 5.78403 17.2369C5.88528 17.3842 5.89693 17.7299 6.03932 17.8242C6.12003 17.8777 6.21258 17.8535 6.30524 17.8292C6.52354 17.7721 6.64235 17.8511 6.75004 18.0452C6.80153 18.1381 6.85374 18.2322 6.96724 18.2824C7.27913 18.4201 8.28717 18.2259 8.52001 17.9276C8.55048 17.8886 8.54172 17.8292 8.54189 17.784C8.44003 17.8017 8.34649 17.7983 8.24398 17.8074C8.16463 17.8145 8.08854 17.8546 8.00991 17.8685C7.95345 17.8786 7.8737 17.8828 7.8515 17.8202C7.81714 17.7231 7.94071 17.5595 7.94607 17.4519C7.88296 17.4569 7.819 17.4664 7.75515 17.4758C7.46836 17.5182 7.11943 17.5192 7.00978 17.1979C7.13131 17.1625 7.34601 17.1671 7.42062 17.059C7.55734 16.8609 7.35102 16.4298 7.42764 16.1819C7.53004 15.8507 7.89921 15.6102 8.26526 15.5957C8.25594 15.5294 8.24094 15.4651 8.2227 15.4003C8.316 15.3836 8.41504 15.3934 8.51316 15.4031C8.69648 15.4213 8.87657 15.4391 9.01003 15.2831C8.81524 15.2552 8.88994 15.126 8.95687 15.0103C8.97717 14.9752 8.99675 14.9413 9.00788 14.9119C9.07975 14.7219 9.17486 13.9445 8.90134 13.8346C8.76881 13.7813 8.47969 13.9695 8.3997 14.0814C8.23736 14.3085 8.46556 14.7003 8.27083 14.9484C8.18835 15.0534 7.91193 15.1526 7.77584 15.1553C7.41567 15.1623 7.28646 14.8039 7.28641 14.5016Z"
        fill="currentColor"/>
</svg>
