<svg width="24" height="24" viewBox="0 0 24 24" fill="none" xmlns="http://www.w3.org/2000/svg">
  <path
    d="M3 23C2.71667 23 2.47917 22.9042 2.2875 22.7125C2.09583 22.5208 2 22.2833 2 22C2 21.7167 2.09583 21.4792 2.2875 21.2875C2.47917 21.0958 2.71667 21 3 21C3.43333 21 3.8625 20.9458 4.2875 20.8375C4.7125 20.7292 5.11667 20.5583 5.5 20.325C5.65 20.2417 5.81667 20.2 6 20.2C6.18333 20.2 6.35 20.2417 6.5 20.325C6.88333 20.5583 7.2875 20.7292 7.7125 20.8375C8.1375 20.9458 8.56667 21 9 21C9.43333 21 9.8625 20.9458 10.2875 20.8375C10.7125 20.7292 11.1167 20.5583 11.5 20.325C11.65 20.2417 11.8208 20.2 12.0125 20.2C12.2042 20.2 12.3667 20.2417 12.5 20.325C12.8833 20.5583 13.2875 20.7292 13.7125 20.8375C14.1375 20.9458 14.5667 21 15 21C15.4333 21 15.8625 20.9458 16.2875 20.8375C16.7125 20.7292 17.1167 20.5583 17.5 20.325C17.6333 20.2417 17.8 20.2 18 20.2C18.2 20.2 18.3667 20.2417 18.5 20.325C18.8833 20.5583 19.2875 20.7292 19.7125 20.8375C20.1375 20.9458 20.5667 21 21 21C21.2833 21 21.5208 21.0958 21.7125 21.2875C21.9042 21.4792 22 21.7167 22 22C22 22.2833 21.9042 22.5208 21.7125 22.7125C21.5208 22.9042 21.2833 23 21 23C20.4833 23 19.975 22.9375 19.475 22.8125C18.975 22.6875 18.4833 22.5 18 22.25C17.5167 22.5 17.025 22.6875 16.525 22.8125C16.025 22.9375 15.5167 23 15 23C14.4833 23 13.975 22.9375 13.475 22.8125C12.975 22.6875 12.4833 22.5 12 22.25C11.5167 22.5 11.025 22.6875 10.525 22.8125C10.025 22.9375 9.51667 23 9 23C8.48333 23 7.975 22.9375 7.475 22.8125C6.975 22.6875 6.48333 22.5 6 22.25C5.51667 22.5 5.025 22.6875 4.525 22.8125C4.025 22.9375 3.51667 23 3 23ZM12.175 10L16 13V16.85C16.2667 17.0333 16.525 17.225 16.775 17.425C17.025 17.625 17.2667 17.8167 17.5 18C17.15 18.3 16.7667 18.5417 16.35 18.725C15.9333 18.9083 15.4833 19 15 19C14.4 19 13.8417 18.8583 13.325 18.575C12.8083 18.2917 12.3667 17.9333 12 17.5C11.6333 17.9333 11.1917 18.2917 10.675 18.575C10.1583 18.8583 9.6 19 9 19C8.83333 19 8.67083 18.9875 8.5125 18.9625C8.35417 18.9375 8.2 18.9 8.05 18.85C6.61667 17.8667 5.41667 16.875 4.45 15.875C3.48333 14.875 3 14.0083 3 13.275C3 12.7583 3.2 12.4167 3.6 12.25C4 12.0833 4.41667 12 4.85 12C5.33333 12 5.89167 12.0708 6.525 12.2125C7.15833 12.3542 7.83333 12.5583 8.55 12.825L8.025 9.725C7.95833 9.39167 7.99583 9.0625 8.1375 8.7375C8.27917 8.4125 8.5 8.15 8.8 7.95L10.95 6.5C10.9 6.5 10.7792 6.47917 10.5875 6.4375C10.3958 6.39583 10.1833 6.35417 9.95 6.3125C9.71667 6.27083 9.50417 6.22917 9.3125 6.1875C9.12083 6.14583 9 6.125 8.95 6.125L6.95 7.5C6.71667 7.65 6.46667 7.7 6.2 7.65C5.93333 7.6 5.71667 7.45833 5.55 7.225C5.4 6.99167 5.35 6.7375 5.4 6.4625C5.45 6.1875 5.59167 5.975 5.825 5.825L8.15 4.225C8.26667 4.14167 8.3875 4.0875 8.5125 4.0625C8.6375 4.0375 8.76667 4.04167 8.9 4.075L14.05 5.025C14.2833 5.05833 14.5083 5.15 14.725 5.3C14.9417 5.45 15.125 5.65833 15.275 5.925L16.15 7.475C16.5 8.10833 16.9708 8.64167 17.5625 9.075C18.1542 9.50833 18.825 9.79167 19.575 9.925C19.8417 9.975 20.0625 10.1 20.2375 10.3C20.4125 10.5 20.5 10.7333 20.5 11C20.5 11.2833 20.4 11.5167 20.2 11.7C20 11.8833 19.7667 11.9583 19.5 11.925C18.4 11.775 17.4125 11.3917 16.5375 10.775C15.6625 10.1583 14.9583 9.39167 14.425 8.475L12.175 10ZM10.3 11.1L10.75 13.75C11.2 13.9667 11.7583 14.2542 12.425 14.6125C13.0917 14.9708 13.6167 15.2667 14 15.5V14L10.3 11.1ZM17 5.5C16.45 5.5 15.9792 5.30417 15.5875 4.9125C15.1958 4.52083 15 4.05 15 3.5C15 2.95 15.1958 2.47917 15.5875 2.0875C15.9792 1.69583 16.45 1.5 17 1.5C17.55 1.5 18.0208 1.69583 18.4125 2.0875C18.8042 2.47917 19 2.95 19 3.5C19 4.05 18.8042 4.52083 18.4125 4.9125C18.0208 5.30417 17.55 5.5 17 5.5Z"
    fill="currentColor"/>
</svg>
