<svg width="75" height="24" viewBox="0 0 75 24" fill="none" xmlns="http://www.w3.org/2000/svg">
<path d="M70.7278 8.82776H74.129C73.6988 5.51738 71.2811 3.77734 67.9207 3.77734C64.5196 3.77734 62.2453 5.58108 62.2453 8.67922C62.2453 12.2018 65.1753 12.9868 66.7324 13.3053C68.7404 13.7084 70.7073 13.7509 70.7073 15.5333C70.7073 16.7429 69.7239 17.337 68.3306 17.337C66.6095 17.337 65.4622 16.4458 65.1753 14.8331H61.8151C62.0199 18.3132 64.4582 20.1806 68.0438 20.1806C71.363 20.1806 74.088 18.6103 74.088 15.2151C74.088 11.5651 70.9533 10.9074 68.7609 10.5678C67.2651 10.3344 65.626 10.1222 65.626 8.48821C65.626 7.34234 66.4661 6.6421 67.8798 6.6421C69.519 6.6421 70.5024 7.59706 70.7278 8.82776Z" fill="#403F41"/>
<path d="M59.9514 4.30811H56.7345V19.6927H59.9514V4.30811Z" fill="#403F41"/>
<path d="M47.0215 14.3234H51.2218C50.5661 15.9787 49.0909 16.7637 47.3903 16.7637C44.3989 16.7637 43.0057 14.3659 43.0057 11.9892C43.0057 9.59128 44.3169 7.15101 47.3698 7.15101C49.2344 7.15101 50.6275 8.04225 51.1603 9.63375L54.6229 9.63376C54.0288 6.04762 50.9964 3.98926 47.4108 3.98926C42.9852 3.98926 39.6659 7.10854 39.6659 12.0317C39.6659 17.0184 43.2719 19.968 47.3903 19.968C51.4472 19.968 54.6229 17.2306 54.6229 12.9441V11.6921H47.0215V14.3234Z" fill="#403F41"/>
<path d="M32.3106 3.98926C28.6225 3.98926 25.8975 6.38708 25.918 10.3765H29.2372C29.1962 8.63643 30.2616 7.04494 32.1466 7.04494C33.7858 7.04494 34.7488 8.23328 34.7488 9.59129C34.7488 10.9494 33.7858 11.7134 32.0032 12.541C29.565 13.6656 27.8235 14.3871 26.0409 15.0237V19.6921H38.4574V16.5515H29.9333C29.9333 16.5515 29.9617 16.5423 29.9757 16.538C31.4255 16.083 32.5147 15.5887 33.8063 15.0025C36.5723 13.7293 38.15 12.1377 38.15 9.4216C38.15 6.08998 35.7733 3.98926 32.3106 3.98926Z" fill="#403F41"/>
<path d="M17.1904 14.2813C13.0106 14.3025 12.3345 16.9125 12.1091 19.1194L12.0067 20.0955H11.1666L11.0641 19.1194C10.8388 16.9125 10.1422 14.3025 6.10576 14.2813C5.42963 12.8382 5.14278 11.6711 5.14278 10.3555C5.14278 7.06641 7.74492 3.98939 11.5968 3.98939C15.4488 3.98939 18.0099 7.04507 18.0099 10.3768C18.01 11.6711 17.887 12.8382 17.1904 14.2813ZM11.5559 0C5.2043 0 0 5.38997 0 11.9893C0 18.6101 5.2043 24 11.5559 24C17.9689 24 23.1527 18.6101 23.1527 11.9893C23.1527 5.38999 17.9689 0 11.5559 0Z" fill="#29B24A"/>
</svg>
