<svg width="24" height="24" viewBox="0 0 24 24" fill="none" xmlns="http://www.w3.org/2000/svg">
  <path fill-rule="evenodd" clip-rule="evenodd"
        d="M14.41 20.5944L14.4172 18.1362C14.4172 17.8099 14.544 17.4969 14.7695 17.2662C14.9951 17.0355 15.3011 16.9058 15.6201 16.9058C15.9392 16.9058 16.2451 17.0355 16.4707 17.2662C16.6963 17.4969 16.823 17.8099 16.823 18.1362V20.5625C16.823 21.1528 16.823 21.4486 17.0078 21.6302C17.1938 21.8106 17.4758 21.7984 18.0434 21.7738C20.2788 21.6769 21.6527 21.3688 22.6198 20.3796C23.5918 19.3905 23.8929 17.9852 23.9877 15.6951C24.0057 15.241 24.0153 15.0128 23.9325 14.8618C23.8485 14.7109 23.5186 14.5219 22.8562 14.1426C22.4831 13.9299 22.1723 13.6191 21.956 13.2424C21.7396 12.8657 21.6256 12.4367 21.6256 11.9998C21.6256 11.5629 21.7396 11.134 21.956 10.7572C22.1723 10.3805 22.4831 10.0697 22.8562 9.857C23.5186 9.479 23.8497 9.28878 23.9325 9.13782C24.0153 8.98687 24.0057 8.75982 23.9865 8.3045C23.8929 6.01441 23.5906 4.61041 22.6198 3.62C21.5675 2.54491 20.034 2.27369 17.4338 2.20496C17.3542 2.20283 17.275 2.21703 17.2008 2.24673C17.1266 2.27643 17.059 2.32102 17.002 2.37787C16.945 2.43472 16.8996 2.50269 16.8687 2.57775C16.8377 2.65281 16.8218 2.73345 16.8218 2.81491V5.86346C16.8218 6.18977 16.6951 6.50271 16.4695 6.73344C16.2439 6.96418 15.938 7.0938 15.6189 7.0938C15.2999 7.0938 14.9939 6.96418 14.7683 6.73344C14.5428 6.50271 14.416 6.18977 14.416 5.86346L14.4076 2.79405C14.4073 2.63152 14.344 2.47575 14.2315 2.36094C14.119 2.24612 13.9666 2.18164 13.8077 2.18164H9.59358C5.05791 2.18164 2.79007 2.18164 1.38018 3.62C0.408247 4.60919 0.107069 6.01441 0.0122759 8.3045C-0.00572278 8.7586 -0.0153221 8.98687 0.0674719 9.13782C0.151466 9.28878 0.481441 9.479 1.14379 9.857C1.51689 10.0697 1.82767 10.3805 2.04402 10.7572C2.26037 11.134 2.37444 11.5629 2.37444 11.9998C2.37444 12.4367 2.26037 12.8657 2.04402 13.2424C1.82767 13.6191 1.51689 13.9299 1.14379 14.1426C0.481441 14.5219 0.150266 14.7109 0.0674719 14.8618C-0.0153221 15.0128 -0.00572287 15.2398 0.0134757 15.6939C0.107069 17.9852 0.409447 19.3905 1.38018 20.3796C2.79007 21.818 5.05791 21.818 9.59478 21.818H13.2065C13.7729 21.818 14.0548 21.818 14.2312 21.6388C14.4076 21.4596 14.4088 21.1725 14.41 20.5944ZM16.8218 13.2271V10.7725C16.8218 10.4462 16.6951 10.1333 16.4695 9.90257C16.2439 9.67183 15.938 9.54221 15.6189 9.54221C15.2999 9.54221 14.9939 9.67183 14.7683 9.90257C14.5428 10.1333 14.416 10.4462 14.416 10.7725V13.2271C14.416 13.5536 14.5428 13.8667 14.7685 14.0975C14.9942 14.3284 15.3003 14.4581 15.6195 14.4581C15.9387 14.4581 16.2448 14.3284 16.4705 14.0975C16.6962 13.8667 16.8218 13.5536 16.8218 13.2271Z"
        fill="url(#paint0_linear_3207_4927)"/>
  <defs>
    <linearGradient id="paint0_linear_3207_4927" x1="0" y1="11.9998" x2="24" y2="11.9998"
                    gradientUnits="userSpaceOnUse">
      <stop stop-color="#24348B"/>
      <stop offset="0.5" stop-color="#2F7D58"/>
      <stop offset="1" stop-color="#5EB12E"/>
    </linearGradient>
  </defs>
</svg>
