<svg width="40" height="40" viewBox="0 0 40 40" fill="none" xmlns="http://www.w3.org/2000/svg">
<g clip-path="url(#clip0_3358_5689)">
<path d="M38.9477 6.31751L20.4864 0.0805153C20.1705 -0.0261874 19.8291 -0.0261874 19.5133 0.0805153L1.05191 6.31751C0.74558 6.42101 0.479144 6.61957 0.29035 6.88508C0.101556 7.15059 -2.39272e-05 7.46957 4.22758e-09 7.79684V23.3893C4.22758e-09 23.8029 0.162086 24.1995 0.450601 24.4919C0.739116 24.7843 1.13043 24.9486 1.53845 24.9486C1.94647 24.9486 2.33778 24.7843 2.6263 24.4919C2.91481 24.1995 3.0769 23.8029 3.0769 23.3893V9.9603L9.53646 12.1413C7.82024 14.9515 7.27449 18.337 8.01904 21.5547C8.76359 24.7723 10.7376 27.559 13.5076 29.3028C10.0461 30.6788 7.05379 33.1678 4.86534 36.5708C4.75153 36.7423 4.67247 36.9349 4.63277 37.1376C4.59307 37.3403 4.59351 37.549 4.63408 37.7515C4.67464 37.954 4.75452 38.1463 4.86906 38.3172C4.98361 38.4882 5.13053 38.6344 5.30131 38.7472C5.47208 38.8601 5.66328 38.9375 5.86381 38.9748C6.06434 39.0122 6.27019 39.0087 6.4694 38.9647C6.66861 38.9207 6.8572 38.837 7.02421 38.7185C7.19122 38.6 7.33332 38.449 7.44224 38.2743C10.3403 33.7681 14.9172 31.1856 19.9998 31.1856C25.0825 31.1856 29.6594 33.7681 32.5574 38.2743C32.7831 38.6142 33.1316 38.8504 33.5277 38.9319C33.9239 39.0135 34.3357 38.9337 34.6743 38.7099C35.0129 38.4861 35.2509 38.1362 35.337 37.7359C35.4231 37.3357 35.3503 36.9171 35.1343 36.5708C32.9459 33.1678 29.942 30.6788 26.4921 29.3028C29.2594 27.559 31.2315 24.7742 31.976 21.5589C32.7204 18.3436 32.1764 14.9604 30.4632 12.151L38.9477 9.28593C39.2541 9.18248 39.5207 8.98394 39.7095 8.71843C39.8984 8.45292 40 8.1339 40 7.80659C40 7.47927 39.8984 7.16026 39.7095 6.89475C39.5207 6.62924 39.2541 6.43069 38.9477 6.32725V6.31751ZM29.2305 18.7116C29.2309 20.1906 28.8853 21.6487 28.2221 22.9662C27.5588 24.2837 26.5969 25.423 25.415 26.2907C24.2332 27.1584 22.8653 27.7297 21.4234 27.9578C19.9815 28.1859 18.5068 28.0643 17.1203 27.6029C15.7338 27.1415 14.475 26.3535 13.4472 25.3035C12.4193 24.2536 11.6518 22.9716 11.2074 21.5628C10.7631 20.154 10.6547 18.6584 10.891 17.1989C11.1274 15.7394 11.7018 14.3575 12.5672 13.1665L19.5133 15.5054C19.8291 15.6121 20.1705 15.6121 20.4864 15.5054L27.4325 13.1665C28.6011 14.7726 29.2313 16.716 29.2305 18.7116Z" fill="url(#paint0_linear_3358_5689)"/>
</g>
<defs>
<linearGradient id="paint0_linear_3358_5689" x1="0" y1="19.5005" x2="40" y2="19.5005" gradientUnits="userSpaceOnUse">
<stop stop-color="#24348B"/>
<stop offset="0.5" stop-color="#2F7D58"/>
<stop offset="1" stop-color="#5EB12E"/>
</linearGradient>
<clipPath id="clip0_3358_5689">
<rect width="40" height="40" fill="white" transform="translate(0 0.000488281)"/>
</clipPath>
</defs>
</svg>
