<svg width="74" height="74" viewBox="0 0 74 74" fill="none" xmlns="http://www.w3.org/2000/svg">
  <path
    d="M34.6875 6.39175C32.819 6.74017 30.6237 7.49251 27.2505 8.64876L25.4838 9.25001C16.2122 12.4258 11.5779 14.0107 10.4155 15.6695C9.27467 17.2913 9.25 22.0458 9.25 31.4808L34.6875 23.0017V6.39175ZM34.6875 27.8733L9.25 36.3525V36.9723C9.25 54.3561 22.3202 62.7921 30.5219 66.3749C32.0944 67.0625 33.1119 67.5065 34.6875 67.7069V27.8733ZM39.3125 67.71V27.8733L64.75 36.3525V36.9723C64.75 54.3561 51.6797 62.7921 43.4781 66.3749C41.9056 67.0625 40.8881 67.5096 39.3125 67.71ZM39.3125 23.0017V6.38867C41.181 6.73709 43.3763 7.48942 46.7495 8.64567L48.5162 9.25001C57.7878 12.4228 62.4221 14.0076 63.5845 15.6664C64.7253 17.2883 64.75 22.0428 64.75 31.4747L39.3125 23.0017Z"
    fill="url(#paint0_linear_362_4526)"/>
  <defs>
    <linearGradient id="paint0_linear_362_4526" x1="9.25" y1="37.0493" x2="64.75" y2="37.0493"
                    gradientUnits="userSpaceOnUse">
      <stop stop-color="#24348B"/>
      <stop offset="0.5" stop-color="#2F7D58"/>
      <stop offset="1" stop-color="#5EB12E"/>
    </linearGradient>
  </defs>
</svg>
