<svg width="74" height="75" viewBox="0 0 74 75" fill="none" xmlns="http://www.w3.org/2000/svg">
  <path
    d="M37.0026 6.9668C28.488 6.9668 21.5859 13.8688 21.5859 22.3835C21.5859 30.8981 28.488 37.8001 37.0026 37.8001C45.5172 37.8001 52.4193 30.8981 52.4193 22.3835C52.4193 13.8688 45.5172 6.9668 37.0026 6.9668ZM18.888 43.9668C17.1506 43.9668 15.4843 44.6569 14.2555 45.8853C13.0268 47.1137 12.3363 48.7799 12.3359 50.5173V51.6751C12.3359 57.4641 15.3299 61.7993 19.9209 64.5943C24.438 67.3431 30.506 68.6335 37.0026 68.6335C43.4992 68.6335 49.5672 67.3431 54.0843 64.5943C58.6754 61.7993 61.6693 57.4641 61.6693 51.6751V50.5173C61.6689 48.7799 60.9784 47.1137 59.7497 45.8853C58.521 44.6569 56.8546 43.9668 55.1172 43.9668H18.888Z"
    fill="url(#paint0_linear_3236_4838)"/>
  <defs>
    <linearGradient id="paint0_linear_3236_4838" x1="12.3359" y1="37.8001" x2="61.6693" y2="37.8001"
                    gradientUnits="userSpaceOnUse">
      <stop stop-color="#24348B"/>
      <stop offset="0.5" stop-color="#2F7D58"/>
      <stop offset="1" stop-color="#5EB12E"/>
    </linearGradient>
  </defs>
</svg>
