<svg width="74" height="74" viewBox="0 0 74 74" fill="none" xmlns="http://www.w3.org/2000/svg">
  <g clip-path="url(#clip0_3236_4842)">
    <path
      d="M56.4276 29.1975H38.8526V35.6725C38.8526 40.2628 35.1179 43.9975 30.5276 43.9975C25.9373 43.9975 22.2026 40.2628 22.2026 35.6725V21.6125L14.6986 26.1219C12.467 27.4516 11.1026 29.8681 11.1026 32.4581V37.9272L1.85264 43.2691C0.0835747 44.2866 -0.529238 46.5528 0.499825 48.3219L9.74982 64.3475C10.7673 66.1166 13.0336 66.7178 14.8026 65.7003L26.7583 58.7975H42.5526C46.6342 58.7975 49.9526 55.4791 49.9526 51.3975H51.8026C53.8492 51.3975 55.5026 49.7441 55.5026 47.6975V40.2975H56.4276C57.9654 40.2975 59.2026 39.0603 59.2026 37.5225V31.9725C59.2026 30.4347 57.9654 29.1975 56.4276 29.1975ZM73.5055 24.8731L64.2555 8.8475C63.238 7.07844 60.9717 6.47719 59.2026 7.49469L47.247 14.3975H35.4301C34.0426 14.3975 32.6898 14.7906 31.5104 15.5191L27.637 17.9356C26.5501 18.6062 25.9026 19.7972 25.9026 21.0691V35.6725C25.9026 38.2278 27.9723 40.2975 30.5276 40.2975C33.0829 40.2975 35.1526 38.2278 35.1526 35.6725V25.4975H56.4276C60.0004 25.4975 62.9026 28.3997 62.9026 31.9725V35.2678L72.1526 29.9259C73.9217 28.8969 74.523 26.6422 73.5055 24.8731Z"
      fill="url(#paint0_linear_3236_4842)"/>
  </g>
  <defs>
    <linearGradient id="paint0_linear_3236_4842" x1="0" y1="36.5975" x2="74.0001" y2="36.5975"
                    gradientUnits="userSpaceOnUse">
      <stop stop-color="#24348B"/>
      <stop offset="0.5" stop-color="#2F7D58"/>
      <stop offset="1" stop-color="#5EB12E"/>
    </linearGradient>
    <clipPath id="clip0_3236_4842">
      <rect width="74" height="74" fill="white"/>
    </clipPath>
  </defs>
</svg>
