<svg width="74" height="74" viewBox="0 0 74 74" fill="none" xmlns="http://www.w3.org/2000/svg">
  <path
    d="M27.75 30.0625C27.2926 30.0625 26.8455 29.9269 26.4652 29.6728C26.085 29.4187 25.7886 29.0575 25.6135 28.635C25.4385 28.2124 25.3927 27.7474 25.4819 27.2989C25.5712 26.8503 25.7914 26.4382 26.1148 26.1148C26.4382 25.7914 26.8503 25.5712 27.2989 25.4819C27.7474 25.3927 28.2124 25.4385 28.635 25.6135C29.0575 25.7886 29.4187 26.085 29.6728 26.4652C29.9269 26.8455 30.0625 27.2926 30.0625 27.75C30.0625 28.3633 29.8189 28.9515 29.3852 29.3852C28.9515 29.8189 28.3633 30.0625 27.75 30.0625ZM46.25 43.9375C45.7926 43.9375 45.3455 44.0731 44.9652 44.3272C44.585 44.5813 44.2886 44.9425 44.1135 45.365C43.9385 45.7876 43.8927 46.2526 43.9819 46.7011C44.0712 47.1497 44.2914 47.5618 44.6148 47.8852C44.9382 48.2086 45.3503 48.4288 45.7989 48.5181C46.2474 48.6073 46.7124 48.5615 47.135 48.3865C47.5575 48.2114 47.9187 47.915 48.1728 47.5348C48.4269 47.1545 48.5625 46.7074 48.5625 46.25C48.5625 45.6367 48.3189 45.0485 47.8852 44.6148C47.4515 44.1811 46.8633 43.9375 46.25 43.9375ZM69.375 37C69.375 40.0178 67.2041 42.2812 65.2877 44.2786C64.1979 45.4175 63.0705 46.5911 62.6456 47.623C62.2525 48.5683 62.2294 50.135 62.2062 51.6526C62.1629 54.4738 62.1166 57.6709 59.8937 59.8937C57.6709 62.1166 54.4738 62.1629 51.6526 62.2062C50.135 62.2294 48.5683 62.2525 47.623 62.6456C46.5911 63.0705 45.4175 64.1979 44.2786 65.2877C42.2812 67.2041 40.0178 69.375 37 69.375C33.9822 69.375 31.7188 67.2041 29.7214 65.2877C28.5825 64.1979 27.4089 63.0705 26.377 62.6456C25.4317 62.2525 23.865 62.2294 22.3474 62.2062C19.5262 62.1629 16.3291 62.1166 14.1062 59.8937C11.8834 57.6709 11.8371 54.4738 11.7937 51.6526C11.7706 50.135 11.7475 48.5683 11.3544 47.623C10.9295 46.5911 9.80211 45.4175 8.71234 44.2786C6.79586 42.2812 4.625 40.0178 4.625 37C4.625 33.9822 6.79586 31.7188 8.71234 29.7214C9.80211 28.5825 10.9295 27.4089 11.3544 26.377C11.7475 25.4317 11.7706 23.865 11.7937 22.3474C11.8371 19.5262 11.8834 16.3291 14.1062 14.1062C16.3291 11.8834 19.5262 11.8371 22.3474 11.7937C23.865 11.7706 25.4317 11.7475 26.377 11.3544C27.4089 10.9295 28.5825 9.80211 29.7214 8.71234C31.7188 6.79586 33.9822 4.625 37 4.625C40.0178 4.625 42.2812 6.79586 44.2786 8.71234C45.4175 9.80211 46.5911 10.9295 47.623 11.3544C48.5683 11.7475 50.135 11.7706 51.6526 11.7937C54.4738 11.8371 57.6709 11.8834 59.8937 14.1062C62.1166 16.3291 62.1629 19.5262 62.2062 22.3474C62.2294 23.865 62.2525 25.4317 62.6456 26.377C63.0705 27.4089 64.1979 28.5825 65.2877 29.7214C67.2041 31.7188 69.375 33.9822 69.375 37ZM27.75 34.6875C29.1221 34.6875 30.4634 34.2806 31.6043 33.5183C32.7451 32.756 33.6343 31.6725 34.1594 30.4049C34.6845 29.1372 34.8219 27.7423 34.5542 26.3966C34.2865 25.0508 33.6258 23.8147 32.6556 22.8444C31.6853 21.8742 30.4492 21.2135 29.1034 20.9458C27.7577 20.6781 26.3628 20.8155 25.0951 21.3406C23.8275 21.8657 22.744 22.7549 21.9817 23.8957C21.2194 25.0366 20.8125 26.3779 20.8125 27.75C20.8125 29.5899 21.5434 31.3545 22.8444 32.6556C24.1455 33.9566 25.9101 34.6875 27.75 34.6875ZM50.1986 27.0736C50.4134 26.8587 50.5839 26.6037 50.7002 26.3229C50.8164 26.0422 50.8763 25.7414 50.8763 25.4375C50.8763 25.1336 50.8164 24.8328 50.7002 24.5521C50.5839 24.2713 50.4134 24.0163 50.1986 23.8014C49.9837 23.5866 49.7287 23.4161 49.4479 23.2998C49.1672 23.1836 48.8664 23.1237 48.5625 23.1237C48.2586 23.1237 47.9578 23.1836 47.6771 23.2998C47.3963 23.4161 47.1413 23.5866 46.9264 23.8014L23.8014 46.9264C23.5866 47.1413 23.4161 47.3963 23.2998 47.6771C23.1836 47.9578 23.1237 48.2586 23.1237 48.5625C23.1237 48.8664 23.1836 49.1672 23.2998 49.4479C23.4161 49.7287 23.5866 49.9837 23.8014 50.1986C24.2353 50.6325 24.8238 50.8763 25.4375 50.8763C25.7414 50.8763 26.0422 50.8164 26.3229 50.7002C26.6037 50.5839 26.8587 50.4134 27.0736 50.1986L50.1986 27.0736ZM53.1875 46.25C53.1875 44.8779 52.7806 43.5366 52.0183 42.3957C51.256 41.2549 50.1725 40.3657 48.9049 39.8406C47.6372 39.3155 46.2423 39.1781 44.8966 39.4458C43.5508 39.7135 42.3147 40.3742 41.3444 41.3444C40.3742 42.3147 39.7135 43.5508 39.4458 44.8966C39.1781 46.2423 39.3155 47.6372 39.8406 48.9049C40.3657 50.1725 41.2549 51.256 42.3957 52.0183C43.5366 52.7806 44.8779 53.1875 46.25 53.1875C48.0899 53.1875 49.8545 52.4566 51.1556 51.1556C52.4566 49.8545 53.1875 48.0899 53.1875 46.25Z"
    fill="url(#paint0_linear_3332_5546)"/>
  <defs>
    <linearGradient id="paint0_linear_3332_5546" x1="4.625" y1="37" x2="69.375" y2="37" gradientUnits="userSpaceOnUse">
      <stop stop-color="#24348B"/>
      <stop offset="0.5" stop-color="#2F7D58"/>
      <stop offset="1" stop-color="#5EB12E"/>
    </linearGradient>
  </defs>
</svg>
