<svg width="33" height="32" viewBox="0 0 33 32" fill="none" xmlns="http://www.w3.org/2000/svg">
<g clip-path="url(#clip0_3231_6772)">
<path d="M2.91667 8C2.91667 6.93913 3.33809 5.92172 4.08824 5.17157C4.83839 4.42143 5.8558 4 6.91667 4H25.5833C26.6442 4 27.6616 4.42143 28.4118 5.17157C29.1619 5.92172 29.5833 6.93913 29.5833 8V18.6667C29.5833 19.7275 29.1619 20.7449 28.4118 21.4951C27.6616 22.2452 26.6442 22.6667 25.5833 22.6667H6.91667C5.8558 22.6667 4.83839 22.2452 4.08824 21.4951C3.33809 20.7449 2.91667 19.7275 2.91667 18.6667V8ZM1.58333 25.3333C1.22971 25.3333 0.890573 25.4738 0.640525 25.7239C0.390476 25.9739 0.25 26.313 0.25 26.6667C0.25 27.0203 0.390476 27.3594 0.640525 27.6095C0.890573 27.8595 1.22971 28 1.58333 28H30.9167C31.2703 28 31.6094 27.8595 31.8595 27.6095C32.1095 27.3594 32.25 27.0203 32.25 26.6667C32.25 26.313 32.1095 25.9739 31.8595 25.7239C31.6094 25.4738 31.2703 25.3333 30.9167 25.3333H1.58333Z" fill="black"/>
<path d="M2.91667 8C2.91667 6.93913 3.33809 5.92172 4.08824 5.17157C4.83839 4.42143 5.8558 4 6.91667 4H25.5833C26.6442 4 27.6616 4.42143 28.4118 5.17157C29.1619 5.92172 29.5833 6.93913 29.5833 8V18.6667C29.5833 19.7275 29.1619 20.7449 28.4118 21.4951C27.6616 22.2452 26.6442 22.6667 25.5833 22.6667H6.91667C5.8558 22.6667 4.83839 22.2452 4.08824 21.4951C3.33809 20.7449 2.91667 19.7275 2.91667 18.6667V8ZM1.58333 25.3333C1.22971 25.3333 0.890573 25.4738 0.640525 25.7239C0.390476 25.9739 0.25 26.313 0.25 26.6667C0.25 27.0203 0.390476 27.3594 0.640525 27.6095C0.890573 27.8595 1.22971 28 1.58333 28H30.9167C31.2703 28 31.6094 27.8595 31.8595 27.6095C32.1095 27.3594 32.25 27.0203 32.25 26.6667C32.25 26.313 32.1095 25.9739 31.8595 25.7239C31.6094 25.4738 31.2703 25.3333 30.9167 25.3333H1.58333Z" fill="url(#paint0_linear_3231_6772)"/>
</g>
<defs>
<linearGradient id="paint0_linear_3231_6772" x1="0.25" y1="16" x2="32.25" y2="16" gradientUnits="userSpaceOnUse">
<stop stop-color="#24348B"/>
<stop offset="0.5" stop-color="#2F7D58"/>
<stop offset="1" stop-color="#5EB12E"/>
</linearGradient>
<clipPath id="clip0_3231_6772">
<rect width="32" height="32" fill="white" transform="translate(0.25)"/>
</clipPath>
</defs>
</svg>
