<svg width="24" height="24" viewBox="0 0 24 24" fill="none" xmlns="http://www.w3.org/2000/svg">
  <path
    d="M14.4966 8.06552C14.0409 8.18082 13.636 8.44908 13.3468 8.82745C13.0575 9.20583 12.9004 9.67249 12.9008 10.1529V13.8365C12.9008 14.8024 12.5585 15.7356 11.9374 16.4629C11.3162 17.1902 10.4584 17.6622 9.52298 17.7915C9.30761 18.9932 8.66239 20.0696 7.71325 20.8108C6.76412 21.5519 5.57916 21.9046 4.38964 21.7999C3.20011 21.6953 2.09137 21.1408 1.27979 20.2448C0.4682 19.3487 0.0120074 18.1754 0.000233688 16.9537C-0.01154 15.732 0.42195 14.5497 1.21611 13.6375C2.01027 12.7252 3.10811 12.1485 4.29538 12.0199C5.48266 11.8912 6.67418 12.2199 7.63742 12.9417C8.60065 13.6636 9.26649 14.7268 9.50498 15.9239C9.96054 15.8087 10.3652 15.5406 10.6545 15.1625C10.9438 14.7843 11.1009 14.318 11.1009 13.8378V10.1541C11.1008 9.18823 11.4431 8.25509 12.0642 7.5278C12.6854 6.8005 13.5432 6.32843 14.4786 6.19915C14.6966 4.99549 15.3459 3.91847 16.2993 3.17907C17.2527 2.43966 18.4416 2.09113 19.633 2.20175C20.8244 2.31237 21.9325 2.87417 22.7403 3.77711C23.548 4.68005 23.9973 5.85907 24 7.08322C24.0012 8.30122 23.5601 9.47623 22.7623 10.3801C21.9645 11.2841 20.8669 11.8524 19.6827 11.9748C18.4984 12.0972 17.312 11.765 16.3537 11.0426C15.3953 10.3202 14.7335 9.25916 14.4966 8.06552Z"
    fill="url(#paint0_linear_3207_4925)"/>
  <defs>
    <linearGradient id="paint0_linear_3207_4925" x1="0" y1="11.9998" x2="24" y2="11.9998"
                    gradientUnits="userSpaceOnUse">
      <stop stop-color="#24348B"/>
      <stop offset="0.5" stop-color="#2F7D58"/>
      <stop offset="1" stop-color="#5EB12E"/>
    </linearGradient>
  </defs>
</svg>
