<svg width="74" height="74" viewBox="0 0 74 74" fill="none" xmlns="http://www.w3.org/2000/svg">
  <path
    d="M6.16667 58.5827C6.16667 63.8244 10.175 67.8327 15.4167 67.8327H58.5833C63.825 67.8327 67.8333 63.8244 67.8333 58.5827V33.916H6.16667V58.5827ZM58.5833 12.3327H52.4167V9.24935C52.4167 7.39935 51.1833 6.16602 49.3333 6.16602C47.4833 6.16602 46.25 7.39935 46.25 9.24935V12.3327H27.75V9.24935C27.75 7.39935 26.5167 6.16602 24.6667 6.16602C22.8167 6.16602 21.5833 7.39935 21.5833 9.24935V12.3327H15.4167C10.175 12.3327 6.16667 16.341 6.16667 21.5827V27.7494H67.8333V21.5827C67.8333 16.341 63.825 12.3327 58.5833 12.3327Z"
    fill="url(#paint0_linear_3332_5540)"/>
  <defs>
    <linearGradient id="paint0_linear_3332_5540" x1="6.16667" y1="36.9993" x2="67.8333" y2="36.9993"
                    gradientUnits="userSpaceOnUse">
      <stop stop-color="#24348B"/>
      <stop offset="0.5" stop-color="#2F7D58"/>
      <stop offset="1" stop-color="#5EB12E"/>
    </linearGradient>
  </defs>
</svg>
