<svg width="74" height="74" viewBox="0 0 74 74" fill="none" xmlns="http://www.w3.org/2000/svg">
  <path
    d="M33.8226 5.83647C34.6813 5.02462 35.8183 4.57227 37 4.57227C38.1817 4.57227 39.3187 5.02462 40.1774 5.83647L62.5809 27.0144C63.2191 27.6202 63.7371 28.3417 64.1025 29.128C61.6094 28.036 58.8839 27.581 56.1713 27.8038C53.4587 28.0266 50.844 28.9203 48.5625 30.4045C45.3955 28.3438 41.6147 27.4384 37.8578 27.8411C34.1009 28.2439 30.5979 29.93 27.9396 32.6152C24.8535 35.7305 23.1221 39.9383 23.1221 44.3234C23.1221 48.7085 24.8535 52.9163 27.9396 56.0316L36.593 64.7497H16.1875C14.3476 64.7497 12.583 64.0188 11.2819 62.7178C9.98091 61.4167 9.25 59.6522 9.25 57.8122V32.051C9.25 30.1501 10.0363 28.3232 11.4238 27.0144L33.8226 5.83647ZM64.75 34.8537C62.4725 33.0843 59.6256 32.2107 56.7476 32.3982C53.8696 32.5857 51.1601 33.8212 49.1314 35.8712L48.5625 36.4447L47.9936 35.8758C46.8978 34.7653 45.5923 33.8834 44.1528 33.2816C42.7134 32.6797 41.1687 32.3697 39.6085 32.3697C38.0483 32.3697 36.5036 32.6797 35.0642 33.2816C33.6247 33.8834 32.3192 34.7653 31.2234 35.8758C28.9986 38.1246 27.7507 41.1601 27.7507 44.3234C27.7507 47.4867 28.9986 50.5223 31.2234 52.771L47.0871 68.7596C47.2804 68.9533 47.51 69.1069 47.7628 69.2118C48.0156 69.3166 48.2865 69.3706 48.5602 69.3706C48.8338 69.3706 49.1048 69.3166 49.3576 69.2118C49.6103 69.1069 49.8399 68.9533 50.0332 68.7596L65.9016 52.771C67.0938 51.5648 68.017 50.1198 68.6108 48.5312C69.2045 46.9426 69.4552 45.2464 69.3464 43.5539C69.2376 41.8615 68.7718 40.2113 67.9796 38.7118C67.1874 37.2122 66.0867 35.8974 64.75 34.8537Z"
    fill="url(#paint0_linear_3332_5544)"/>
  <defs>
    <linearGradient id="paint0_linear_3332_5544" x1="9.25" y1="36.9714" x2="69.3712" y2="36.9714"
                    gradientUnits="userSpaceOnUse">
      <stop stop-color="#24348B"/>
      <stop offset="0.5" stop-color="#2F7D58"/>
      <stop offset="1" stop-color="#5EB12E"/>
    </linearGradient>
  </defs>
</svg>
