<svg xmlns="http://www.w3.org/2000/svg" xmlns:xlink="http://www.w3.org/1999/xlink"><symbol id="icon__arrow--back" viewBox="0 0 21 24"><g fill="none"><path d="M17 2.38L15.067.5 4.536 10.745a1.725 1.725 0 000 2.506L15.066 23.5l1.932-1.88L7.114 12 17 2.38z" fill="currentColor"/></g></symbol><symbol id="icon__arrow--down" viewBox="0 0 24 24"><g fill="none"><path d="M12 12.575l3.9-3.9a.948.948 0 01.7-.275c.283 0 .516.092.7.275a.948.948 0 01.275.7.948.948 0 01-.275.7l-4.6 4.6c-.2.2-.433.3-.7.3a.96.96 0 01-.7-.3l-4.6-4.6a.948.948 0 01-.275-.7c0-.283.091-.517.275-.7a.948.948 0 01.7-.275c.283 0 .516.092.7.275l3.9 3.9z" fill="currentColor"/></g></symbol><symbol id="icon__arrows" viewBox="0 0 24 24"><g fill="none"><path d="M20 14a1 1 0 01.117 1.993L20 16H6.414l2.293 2.293a1 1 0 01-1.32 1.497l-.094-.083-3.83-3.83c-.665-.664-.24-1.783.663-1.87L4.24 14H20zm-4.707-9.707a1 1 0 011.32-.083l.094.083 3.83 3.83c.665.664.239 1.783-.663 1.871l-.115.006H3.999a1 1 0 01-.116-1.993L4 8h13.586l-2.293-2.293a1 1 0 010-1.414z" fill="currentColor"/></g></symbol><symbol id="icon__building" viewBox="0 0 24 24"><g fill="none"><path d="M7 12c.609-4.148 5-9.5 5-9.5s4.391 5.352 5 9.5c.545 3.716-1.5 10-1.5 10h-7S6.455 15.716 7 12z" stroke="currentColor" stroke-width="2" stroke-linecap="round" stroke-linejoin="round"/><path d="M9 7h6m-7.5 3h9M7 13h10m-9.5 3h9M8 19h8" stroke="currentColor" stroke-width="2" stroke-linecap="round"/><path d="M2 22h20" stroke="currentColor" stroke-width="2" stroke-linecap="round" stroke-linejoin="round"/><path d="M12 2v1" stroke="currentColor" stroke-width="2" stroke-linecap="round"/></g></symbol><symbol id="icon__bus" viewBox="0 0 24 24"><g fill="none"><path d="M4.5 11.5h15m-15 0V17a1 1 0 001 1h13a1 1 0 001-1v-5.5m-15 0V4a1 1 0 011-1h13a1 1 0 011 1v7.5" stroke="currentColor" stroke-width="2" stroke-linejoin="round"/><path d="M7.5 21A1.5 1.5 0 016 19.5V18h3v1.5A1.5 1.5 0 017.5 21zm9 0a1.5 1.5 0 01-1.5-1.5V18h3v1.5a1.5 1.5 0 01-1.5 1.5z" stroke="currentColor" stroke-width="2" stroke-linecap="round" stroke-linejoin="round"/><path d="M3 6v2m18-2v2" stroke="currentColor" stroke-width="2" stroke-linecap="round"/><path d="M7.5 16a1 1 0 100-2 1 1 0 000 2zm9 0a1 1 0 100-2 1 1 0 000 2z" fill="currentColor"/><path d="M15.5 3L11 8m8-4.5l-2.5 3" stroke="currentColor" stroke-width="2" stroke-linecap="round"/></g></symbol><symbol id="icon__calendar" viewBox="0 0 24 24"><g fill="none"><path d="M5 22c-.55 0-1.02-.196-1.413-.587A1.926 1.926 0 013 20V6c0-.55.196-1.02.587-1.412A1.926 1.926 0 015 4h1V3a.97.97 0 01.287-.712A.968.968 0 017 2a.97.97 0 01.713.288A.968.968 0 018 3v1h8V3c0-.283.096-.52.288-.712A.968.968 0 0117 2c.283 0 .52.096.712.288A.965.965 0 0118 3v1h1c.55 0 1.02.196 1.413.588.391.391.587.862.587 1.412v14c0 .55-.196 1.02-.587 1.413A1.926 1.926 0 0119 22H5zm0-2h14V10H5v10zM5 8h14V6H5v2zm7 6a.968.968 0 01-.713-.287A.968.968 0 0111 13c0-.283.096-.52.287-.713A.968.968 0 0112 12c.283 0 .52.096.713.287.191.192.287.43.287.713s-.096.52-.287.713A.968.968 0 0112 14zm-4 0a.967.967 0 01-.713-.287A.968.968 0 017 13c0-.283.096-.52.287-.713A.967.967 0 018 12c.283 0 .52.096.713.287.191.192.287.43.287.713s-.096.52-.287.713A.967.967 0 018 14zm8 0a.968.968 0 01-.713-.287A.968.968 0 0115 13c0-.283.096-.52.287-.713A.968.968 0 0116 12a.97.97 0 01.712.287c.192.192.288.43.288.713s-.096.52-.288.713A.968.968 0 0116 14zm-4 4a.968.968 0 01-.713-.288A.968.968 0 0111 17a.97.97 0 01.287-.712A.968.968 0 0112 16a.97.97 0 01.713.288c.191.191.287.429.287.712s-.096.52-.287.712A.968.968 0 0112 18zm-4 0a.967.967 0 01-.713-.288A.968.968 0 017 17a.97.97 0 01.287-.712A.967.967 0 018 16a.97.97 0 01.713.288c.191.191.287.429.287.712s-.096.52-.287.712A.967.967 0 018 18zm8 0a.968.968 0 01-.713-.288A.968.968 0 0115 17a.97.97 0 01.287-.712A.968.968 0 0116 16c.283 0 .52.096.712.288.192.191.288.429.288.712s-.096.52-.288.712A.968.968 0 0116 18z" fill="currentColor"/></g></symbol><symbol id="icon__case" viewBox="0 0 24 24"><g fill="none"><path d="M14.571 6.273S14.571 3 12 3 9.429 6.273 9.429 6.273M6.857 21V6.273M17.143 21V6.273m3.857 0H3V21h18V6.273z" stroke="currentColor" stroke-width="2" stroke-linecap="round" stroke-linejoin="round"/></g></symbol><symbol id="icon__close" viewBox="0 0 44 44"><g fill="none"><rect x="14.14" y="12.213" width="23.843" height="2.725" rx="1.362" transform="rotate(45 14.14 12.213)" fill="currentColor"/><rect x="12.213" y="29.073" width="23.843" height="2.725" rx="1.362" transform="rotate(-45 12.213 29.073)" fill="currentColor"/></g></symbol><symbol id="icon__doc" viewBox="0 0 21 21"><g fill="none"><path d="M14 14.875H7.875m6.125-3.5h-2.625m6.563.875c0 3.3 0 4.95-1.09 5.974-1.09 1.025-2.842 1.026-6.348 1.026h-.676c-2.853 0-4.28 0-5.271-.698a3.587 3.587 0 01-.748-.705c-.743-.932-.743-2.275-.743-4.96v-2.228c0-2.592 0-3.89.41-4.924.66-1.665 2.055-2.978 3.825-3.6 1.099-.385 2.475-.385 5.231-.385 1.573 0 2.361 0 2.99.22 1.01.356 1.807 1.106 2.184 2.057.235.591.235 1.332.235 2.814v5.409z" stroke="currentColor" stroke-width="1.5" stroke-linecap="round" stroke-linejoin="round"/><path d="M3.063 10.5a2.916 2.916 0 012.916-2.916c.583 0 1.27.101 1.836-.05A1.461 1.461 0 008.846 6.5c.152-.566.05-1.253.05-1.836a2.916 2.916 0 012.916-2.915" stroke="currentColor" stroke-width="1.5" stroke-linecap="round" stroke-linejoin="round"/></g></symbol><symbol id="icon__docs" viewBox="0 0 24 24"><g fill="none"><path opacity=".2" d="M19.5 6.75v10.5a.75.75 0 01-.75.75H16.5V9.75L12.75 6H7.5V3.75A.75.75 0 018.25 3h7.5l3.75 3.75z" fill="currentColor"/><path d="M20.03 6.22l-3.75-3.75a.75.75 0 00-.53-.22h-7.5a1.5 1.5 0 00-1.5 1.5v1.5h-1.5a1.5 1.5 0 00-1.5 1.5v13.5a1.5 1.5 0 001.5 1.5h10.5a1.5 1.5 0 001.5-1.5v-1.5h1.5a1.5 1.5 0 001.5-1.5V6.75a.75.75 0 00-.22-.53zm-4.28 14.03H5.25V6.75h7.19l3.31 3.31v10.19zm3-3h-1.5v-7.5a.75.75 0 00-.22-.53l-3.75-3.75a.75.75 0 00-.53-.22h-4.5v-1.5h7.19l3.31 3.31v10.19zm-5.25-3a.75.75 0 01-.75.75h-4.5a.75.75 0 110-1.5h4.5a.75.75 0 01.75.75zm0 3a.75.75 0 01-.75.75h-4.5a.75.75 0 110-1.5h4.5a.75.75 0 01.75.75z" fill="currentColor"/></g></symbol><symbol id="icon__eagle" viewBox="0 0 24 24"><g fill="none"><path fill-rule="evenodd" clip-rule="evenodd" d="M11.713 3.228a2.511 2.511 0 00-.062-.488c-.01-.044-.047-.077-.06-.121-.037-.137-.032-.411.03-.542a.132.132 0 01.113-.073c.077-.007.155.03.234.032.095.001.183-.037.276-.036.05 0 .088.016.11.059.06.123.046.41.011.544-.014.052-.061.09-.074.142-.03.127-.082.351-.068.483.064-.03.107-.09.171-.115.092-.035.25.048.34.074.139.04.282.086.404.16.543.332.23 1.018-.014 1.438-.094.16-.205.35-.142.534.042.123.183.203.3.269.332.189.668.375 1.027.512-.013-.129-.085-.241-.157-.354-.07-.11-.142-.222-.159-.35-.045-.34.215-.509.55-.57.114-.02.263-.04.361.024a2.608 2.608 0 00-.049-.154c-.06-.178-.126-.37-.054-.549.058-.145.26-.05.378-.076.162-.037.192.078.193.219v.013c.002.18-.045.353-.063.527.086-.103.243-.017.35.01.199.054.397.106.49.303.096.203-.03.437-.14.64-.031.056-.06.11-.083.16.272.06.594-.041.634-.331.028-.197-.052-.405-.127-.602a3.04 3.04 0 01-.084-.239c-.045-.155-.06-.345.048-.485.197-.257.737-.563 1.04-.424.132.06.233.166.334.271.093.097.186.194.304.257.097.051.197.084.295.116.216.07.415.136.512.383.082.212-.017.348-.122.493a.95.95 0 00-.153.269c.163.048.406.033.524.158.136.145.04.54-.183.566-.101.012-.113-.136-.195-.165-.135-.049-.316.01-.465-.032.032.145.086.3.057.45-.043.217-.33.411-.568.351.05-.246.054-.43-.074-.66-.164-.293-.155-.508-.006-.81.079-.159.158-.318.124-.503-.014-.08-.02-.186-.092-.243-.075-.058-.186-.067-.276-.097a2.568 2.568 0 01-.378-.149c.013.156.053.307.094.458.066.251.21.716.022.95-.108.133-.248.197-.397.263-.201.09-.4.139-.613.186.093.155.274.101.426.174.337.162.528.506.366.842l-.007.015c-.041.085-.104.215-.21.23-.116.017-.256-.097-.362-.13a1.088 1.088 0 00-.596.002c.199.038.388.085.575.16.154.06.315.153.49.15.136 0 .352-.28.458-.217.064.037.074.138.07.2a.507.507 0 01-.316.439c-.375.15-.606-.046-.936-.146 0 .123-.02.432-.232.402-.079-.011-.098-.097-.115-.174-.039-.175-.186-.26-.356-.293-.283-.056-.737-.04-.999.085-.172.083-.26.29-.362.443-.095.143-.201.303-.237.455-.033.14-.012.373.037.508.07.195.277.347.497.374.107.012.313-.05.376.059.097.17-.135.4-.29.455-.086.03-.174.03-.256.07.186.07.434.16.639.108.113-.028.17-.23.295-.193.415.12.05.863-.21.964.237.283.72.312 1.02.1.341-.24.199-.485-.012-.758-.183-.238-.377-.49-.146-.768.424-.51.97-.91 1.405-1.415.118-.139.334-.39.456-.168.204-.187.376-.378.523-.606.076-.118.123-.288.233-.384.074-.064.14-.016.202.033.574-.751 1.168-1.508 1.578-2.365.029-.06.053-.163.127-.19.22-.08.518.334.533.503.024.265.022.585-.062.84a2.992 2.992 0 01-.304.603l-.106.179c.224-.128.589-.59.851-.571.178.013.217.29.23.414.05.454-.22.864-.506 1.212.184-.022.625-.183.796-.058.28.206-.51 1.006-.626 1.113.223 0 .698-.141.85.034.09.102-.03.264-.093.35l-.005.007c-.217.294-.52.472-.837.664.196 0 .72-.04.85.163.067.105-.053.264-.115.345-.223.292-.51.397-.863.508.17.037.78.16.793.411.018.326-.715.472-.92.507.143.115.54.304.545.526.003.208-.627.29-.758.295.137.13.268.513.148.697-.164.25-.53.099-.731.256-.175.136.018.395-.08.547-.087.132-.524.118-.657.08-.141-.042-.26-.178-.361-.271.057.086.138.168.146.274.012.152-.152.472-.297.546-.301.152-.634-.064-.828-.273 0 .17-.162.512-.343.574-.08.028-.162-.01-.252-.027-.387-.075-.415-.211-.597-.527-.03.214-.312.415-.553.409-.146-.004-.427-.122-.504-.255-.156-.269.088-.633-.093-.891-.067-.096-.426-.235-.53-.183-.247.122-.192.83-.117 1.017.041.102.17.187.187.293.015.093-.101.124-.177.137a.71.71 0 00.447.135c.086-.004.188-.05.273-.03.104.023.077.203.253.236.4.075.692.47.661.87-.01.138-.054.293-.035.43.015.116.117.17.23.195l.039.007c.053.007.12.017.138.06.032.081-.083.195-.136.246-.215.208-.54.15-.785.02.01.105.12.269.087.367-.018.05-.08.06-.13.062-.146.008-.237-.047-.34-.136-.037.092-.093.098-.192.078.174.27.476.361.782.454.242.073.45.171.708.171.183 0 .394.038.515-.118.108-.139-.153-.382-.152-.565.002-.258.173-.637.32-.84.171-.237.453-.375.743-.45-.06-.101-.053-.199-.045-.31v-.003a.854.854 0 00-.003-.108c-.006-.093-.012-.197.04-.26.077-.095.257-.06.37-.062.115-.002.278-.034.38.035.083.056.064.156.067.239a.94.94 0 00.01.121c.014.125.026.24-.075.348.538.088.86.578.996 1.016.028.092.12.174.106.274-.019.133-.117.252-.203.357-.07.086-.106.183-.174.268-.114.143-.248.37-.389.474-.163.121-.464.285-.655.324-.13.027-.282-.016-.404.016-.19.05-.286.203-.51.179-.198-.022-.383-.128-.558-.209a7.227 7.227 0 00-.528-.228c-.263-.098-.562-.109-.835-.166a9.146 9.146 0 00-.46-.085c-.193-.03-.4-.053-.552-.134-.11-.059-.204-.055-.325-.044-.144.014-.31.03-.392-.041-.134-.116.055-.44.074-.575-.229 0-.504-.017-.644-.215-.047-.067-.094-.23-.02-.296.052-.046.141-.037.212-.03.132.012.305.002.361-.143.045-.112-.015-.223-.09-.312-.166-.197-.509-.267-.755-.148-.262.126-.541.575-.362.832.12.173.34.258.486.41.117.122.097.293.202.408.156.173.436.28.632.4.135.083.266.173.404.253l.01.005a.49.49 0 00.233.088c.26-.002.041-.33.165-.38.22-.091.51.137.594.3.077.15.082.294.031.45-.02.062-.076.13-.08.195-.007.142.201.252.215.41a.93.93 0 01-.066.47c-.06.128-.168.228-.177.373-.005.073-.011.16-.077.161-.182.001-.323-.294-.401-.417-.281.79-.76.357-1.252.447-.347.063-.446.568-.94.504-.164-.021-.31-.091-.468-.13-.081.166-.317.465-.532.464-.266 0-.336-.387-.575-.43-.258-.046-.497.17-.787.072-.239-.081-.375-.413-.579-.47-.11-.03-.286.125-.4.142-.444.068-.631-.22-.83-.54-.06.108-.286.424-.444.393-.13-.024-.083-.238-.13-.326-.156-.29-.356-.663-.062-.946a.533.533 0 01.147-.098c-.059-.082-.134-.157-.16-.255a.64.64 0 01.522-.77c.162-.027.168.074.174.177.006.096.012.194.145.193.188-.002.414-.21.57-.31.2-.127.496-.228.653-.407.106-.12.101-.285.226-.406.156-.153.434-.251.528-.45.12-.255-.135-.638-.339-.769-.208-.134-.565-.154-.759.015a.544.544 0 00-.166.285c-.056.24.247.285.436.292.054.003.153-.015.19.033.04.052-.012.142-.043.193l-.005.01c-.111.192-.27.269-.504.273.057.164.276.375.098.54-.1.093-.255.09-.392.086-.333-.007-.673-.02-1.004.023-.24.032-.573.117-.785.247-.28.171-.512.37-.832.491.051.113.148.23.165.352.018.128-.03.257-.013.39.018.14.007.321-.195.33-.518.02-.48-.415-.732-.654-.126-.119-.306-.098-.412-.26-.083-.124-.247-.156-.32-.277-.055-.09-.058-.204-.116-.298-.11-.18-.059-.316.072-.464.078-.089.155-.175.118-.29-.04-.124-.141-.2-.19-.313-.075-.175-.096-.382-.193-.543-.056-.094-.14-.153-.183-.258-.05-.124.01-.236-.033-.352-.293-.788-.686-1.589-1.085-2.325-.252-.464-.902-.66-1.203-1.114-.096-.145-.085-.344-.085-.508.108.005.198.043.298.078-.09-.414.147-.425.447-.684-.165-.035-.998-.25-.957-.526.036-.24.633-.381.808-.45-.184-.023-1.282-.5-1.009-.834.182-.223.572-.118.817-.202-.306-.103-.602-.393-.767-.645-.052-.078-.14-.25-.062-.337.132-.15.688-.042.85-.015-.044-.04-.091-.08-.14-.122-.171-.148-.8-.762-.482-1.032.16-.134.56.01.729.08-.032-.047-.066-.093-.1-.139-.22-.292-.69-1.555-.07-1.48.138.017.259.153.362.239.096.08.193.16.297.227-.26-.409-.49-1.099-.284-1.583.067-.158.272-.528.516-.437.176.065.294.485.386.633.392.635.949 1.204 1.234 1.895l.234-.078c.216.336.388.76.725.99.1.07.2-.056.303.032.468.403 1.34 1.138 1.62 1.674.14.27-.005.548-.208.729-.67.595.525 1.13 1.05.697-.428-.185-.505-.596-.277-.996.142.025.247.123.383.164.098.03.532.041.532-.105-.229-.049-.413-.134-.48-.352l-.005-.014c-.074-.237.102-.237.298-.202.522.095.693-.542.607-.937-.043-.195-.215-.42-.34-.58l-.004-.006c-.067-.088-.133-.218-.229-.281-.15-.099-.59-.133-.762-.141-.178-.009-.432.045-.538.188-.062.085-.029.315-.166.328-.3.03-.28-.334-.168-.485a1.187 1.187 0 00-.181.106.854.854 0 01-.266.134c-.296.07-.713.02-.83-.279-.045-.113-.024-.256 0-.371.183.057.282.204.49.225.17.018.362-.062.538-.133.16-.066.298-.104.444-.128.07-.012.14-.023.209-.042a2.775 2.775 0 01-.199-.024c-.154-.023-.305-.045-.46-.006-.138.035-.306.197-.448.178-.105-.014-.177-.126-.215-.207a.669.669 0 01.099-.72c.105-.116.28-.166.435-.2l.064-.012c.087-.014.16-.027.192-.123a2.127 2.127 0 01-.468-.106 1.341 1.341 0 01-.32-.171.901.901 0 01-.23-.211c-.165-.243-.083-.506-.001-.77.06-.195.12-.39.083-.578-.046.017-.091.036-.136.055-.136.058-.336.075-.454.157-.208.143-.076.51.005.677a.884.884 0 01-.055.916c-.15.221-.098.372-.02.598-.252.063-.517-.17-.547-.391-.018-.138.049-.293.121-.41-.195.057-.42.057-.617 0-.04.158-.16.221-.277.057a.397.397 0 01-.03-.389c.114-.206.492.01.556-.16.036-.093-.15-.241-.203-.31a.522.522 0 01-.087-.488c.12-.352.533-.323.829-.465.223-.108.308-.348.51-.48.327-.213.81.072 1.064.27.129.102.15.234.15.382-.001.174-.06.345-.12.515a2.75 2.75 0 00-.094.306c-.056.255-.007.48.298.551.11.026.229.015.34.015-.164-.225-.35-.517-.29-.8.053-.252.52-.392.758-.385.055.001.102.032.15.052-.1-.141-.13-.359-.127-.527 0-.06.004-.138.045-.187.062-.077.339-.066.443-.065.262.005.072.569.064.74.207 0 .458.03.639.136.46.272.067.847-.128 1.154.141-.074.288-.14.434-.205.185-.083.37-.166.545-.266l.044-.024c.111-.062.253-.14.296-.248.073-.183-.04-.397-.128-.56-.223-.422-.555-1.104 0-1.42.15-.086.309-.132.47-.19.089-.031.194-.069.272-.042.058.02.098.075.152.102zm-1.192 2.93c.172.066.392 0 .574 0-.044.174-.228.283-.383.372.095.037.217.02.32.02-.054.175-.272.258-.426.351.303.302.727.15 1.012.352.175.124-.322.25-.374.254.279.547.585 1.004.724 1.622C12 8.5 12.5 8 12.713 7.487c-.183-.03-.5.01-.49-.234.382-.028.825-.088 1.107-.352-.101-.044-.45-.146-.38-.287.04-.077.241-.045.316-.045-.166-.133-.347-.218-.447-.41.2-.044.416.015.617.039-.245-.228-.675-.47-.979-.588-.234-.09-.716-.098-.957-.017-.34.113-.651.407-.98.566zm-3.235 8.344c-.14.194-.137.501-.341.656-.1.076-.41.192-.538.136-.204-.09-.308-.44-.29-.636-.127.09-.187.286-.342.34-.12.041-.417.032-.524-.042-.298-.205-.284-.535-.094-.784a1.12 1.12 0 00.108-.159 1.4 1.4 0 00-.213.185c-.258.255-.44.264-.787.264.158.505.502.992.748 1.457.103.194.183.41.306.592.048.073.15.082.19.16.053.102.022.227.066.332.042.096.15.148.209.234.101.147.113.493.255.587.081.054.174.03.266.005.219-.057.337.022.445.216.052.093.104.187.217.237.312.138 1.32-.056 1.553-.354.03-.04.022-.099.022-.144-.102.018-.196.014-.298.023-.08.008-.155.048-.234.062-.057.01-.136.014-.159-.049-.034-.097.09-.26.095-.368a2.465 2.465 0 00-.19.024c-.288.042-.637.043-.746-.278.121-.035.336-.03.41-.139.137-.198-.069-.63.008-.877.102-.331.471-.572.837-.586a1.477 1.477 0 00-.042-.196c.093-.016.192-.007.29.003.183.018.364.036.497-.12-.195-.028-.12-.157-.053-.273a.74.74 0 00.05-.098c.073-.19.168-.968-.106-1.077-.132-.054-.421.134-.501.246-.163.228.066.62-.13.867-.082.105-.358.205-.494.207-.36.007-.49-.351-.49-.653z" fill="currentColor"/></g></symbol><symbol id="icon__folder" viewBox="0 0 24 24"><g fill="none"><path d="M5.25 6.75v-3h13.5V9m-15 3h16.5M3.75 6.75v12h16.5V9h-9L9 6.75H3.75z" stroke="currentColor" stroke-width="2" stroke-linejoin="round"/></g></symbol><symbol id="icon__globe" viewBox="0 0 24 24"><g fill="none"><path d="M12 22a9.676 9.676 0 01-3.875-.788 10.144 10.144 0 01-3.188-2.15 10.142 10.142 0 01-2.15-3.187A9.676 9.676 0 012 12c0-1.383.263-2.68.788-3.887a10.183 10.183 0 012.15-3.175 10.143 10.143 0 013.187-2.15A9.676 9.676 0 0112 2c1.383 0 2.68.263 3.887.788a10.183 10.183 0 013.175 2.15 10.184 10.184 0 012.15 3.175A9.649 9.649 0 0122 12a9.676 9.676 0 01-.788 3.875 10.143 10.143 0 01-2.15 3.188 10.184 10.184 0 01-3.175 2.15A9.649 9.649 0 0112 22zm0-2.05c.433-.6.808-1.225 1.125-1.875.317-.65.575-1.342.775-2.075h-3.8c.2.733.458 1.425.775 2.075.317.65.692 1.275 1.125 1.875zm-2.6-.4c-.3-.55-.563-1.12-.787-1.713A14.688 14.688 0 018.05 16H5.1a8.3 8.3 0 001.813 2.175A7.195 7.195 0 009.4 19.55zm5.2 0a7.195 7.195 0 002.487-1.375A8.299 8.299 0 0018.9 16h-2.95c-.15.633-.337 1.246-.563 1.837a13.857 13.857 0 01-.787 1.713zM4.25 14h3.4a13.208 13.208 0 01-.15-2 13.208 13.208 0 01.15-2h-3.4A7.959 7.959 0 004 12a7.959 7.959 0 00.25 2zm5.4 0h4.7a13.208 13.208 0 00.15-2 13.208 13.208 0 00-.15-2h-4.7a13.208 13.208 0 00-.15 2 13.208 13.208 0 00.15 2zm6.7 0h3.4a7.953 7.953 0 00.25-2 7.953 7.953 0 00-.25-2h-3.4a13.208 13.208 0 01.15 2 13.208 13.208 0 01-.15 2zm-.4-6h2.95a8.298 8.298 0 00-1.813-2.175A7.196 7.196 0 0014.6 4.45c.3.55.563 1.12.787 1.712.226.592.413 1.205.563 1.838zM10.1 8h3.8a11.82 11.82 0 00-.775-2.075A12.701 12.701 0 0012 4.05c-.433.6-.808 1.225-1.125 1.875A11.82 11.82 0 0010.1 8zm-5 0h2.95c.15-.633.337-1.246.563-1.838C8.838 5.571 9.1 5 9.4 4.45c-.933.3-1.763.758-2.488 1.375A8.298 8.298 0 005.1 8z" fill="currentColor"/></g></symbol><symbol id="icon__home" viewBox="0 0 24 24"><g fill="none"><path d="M6 19h3v-5c0-.283.096-.52.287-.713A.967.967 0 0110 13h4c.283 0 .52.096.713.287.191.192.287.43.287.713v5h3v-9l-6-4.5L6 10v9zm-2 0v-9a1.986 1.986 0 01.8-1.6l6-4.5c.35-.267.75-.4 1.2-.4.45 0 .85.133 1.2.4l6 4.5A1.985 1.985 0 0120 10v9c0 .55-.196 1.02-.587 1.413A1.926 1.926 0 0118 21h-4a.968.968 0 01-.713-.288A.968.968 0 0113 20v-5h-2v5a.97.97 0 01-.287.712A.968.968 0 0110 21H6c-.55 0-1.02-.196-1.412-.587A1.926 1.926 0 014 19z" fill="currentColor"/></g></symbol><symbol id="icon__hotel" viewBox="0 0 24 24"><g fill="none"><path d="M2 18v-5c0-.45.092-.858.275-1.225.183-.367.425-.692.725-.975V8c0-.833.292-1.542.875-2.125A2.893 2.893 0 016 5h4c.383 0 .742.07 1.075.213.333.141.642.337.925.587.283-.25.592-.446.925-.587A2.72 2.72 0 0114 5h4c.833 0 1.542.292 2.125.875S21 7.167 21 8v2.8c.3.283.542.608.725.975.183.367.275.775.275 1.225v5c0 .283-.096.52-.288.712A.968.968 0 0121 19a.968.968 0 01-.712-.288A.968.968 0 0120 18v-1H4v1c0 .283-.096.52-.288.712A.967.967 0 013 19a.967.967 0 01-.712-.288A.968.968 0 012 18zm11-8h6V8a.967.967 0 00-.288-.713A.968.968 0 0018 7h-4a.968.968 0 00-.713.287A.967.967 0 0013 8v2zm-8 0h6V8a.967.967 0 00-.287-.713A.968.968 0 0010 7H6a.968.968 0 00-.713.287A.968.968 0 005 8v2zm-1 5h16v-2a.968.968 0 00-.288-.713A.968.968 0 0019 12H5a.967.967 0 00-.713.287A.968.968 0 004 13v2z" fill="currentColor"/></g></symbol><symbol id="icon__logout" viewBox="0 0 24 24"><g fill="none"><path d="M11 13c.283 0 .52-.096.713-.287A.968.968 0 0012 12a.968.968 0 00-.287-.713A.968.968 0 0011 11a.968.968 0 00-.713.287A.968.968 0 0010 12c0 .283.096.52.287.713.192.191.43.287.713.287zm-4 8v-2l6-1V6.875c0-.25-.075-.475-.225-.675a.848.848 0 00-.575-.35L7 5V3l5.5.9a2.988 2.988 0 011.8 1.025c.467.55.7 1.192.7 1.925v11.1c0 .483-.158.913-.475 1.288a1.96 1.96 0 01-1.2.687L7 21zm0-2h10V5H7v14zm-3 2a.967.967 0 01-.712-.288A.968.968 0 013 20c0-.283.096-.52.288-.712A.967.967 0 014 19h1V5c0-.55.196-1.02.588-1.413A1.926 1.926 0 017 3h10c.55 0 1.02.196 1.413.587.39.393.587.863.587 1.413v14h1c.283 0 .52.096.712.288.192.191.288.429.288.712s-.096.52-.288.712A.968.968 0 0120 21H4z" fill="currentColor"/></g></symbol><symbol id="icon__loyalty" viewBox="0 0 24 24"><g fill="none"><path d="M12 20.325c-.233 0-.47-.042-.713-.125a1.652 1.652 0 01-.637-.4l-1.725-1.575a68.355 68.355 0 01-4.788-4.813C2.714 11.822 2 10.067 2 8.15c0-1.567.525-2.875 1.575-3.925C4.625 3.175 5.933 2.65 7.5 2.65c.883 0 1.717.188 2.5.563.783.375 1.45.887 2 1.537a5.956 5.956 0 012-1.537 5.717 5.717 0 012.5-.563c1.567 0 2.875.525 3.925 1.575C21.475 5.275 22 6.583 22 8.15c0 1.917-.708 3.675-2.125 5.275a59.847 59.847 0 01-4.825 4.825l-1.7 1.55a1.652 1.652 0 01-.637.4c-.242.083-.48.125-.713.125zM11.05 6.75c-.483-.683-1-1.204-1.55-1.562-.55-.359-1.217-.538-2-.538-1 0-1.833.333-2.5 1s-1 1.5-1 2.5c0 .867.308 1.788.925 2.762a19.094 19.094 0 002.213 2.838 38.412 38.412 0 002.65 2.575c.908.8 1.645 1.458 2.212 1.975a180.24 180.24 0 012.213-1.975c.908-.8 1.791-1.658 2.65-2.575a19.092 19.092 0 002.212-2.838c.617-.974.925-1.895.925-2.762 0-1-.333-1.833-1-2.5s-1.5-1-2.5-1c-.783 0-1.45.18-2 .538-.55.358-1.067.879-1.55 1.562a1.138 1.138 0 01-.95.5 1.138 1.138 0 01-.95-.5z" fill="currentColor"/></g></symbol><symbol id="icon__mail" viewBox="0 0 24 24"><g fill="none"><path d="M15.95 22l-4.25-4.25 1.4-1.4 2.85 2.85 5.65-5.65 1.4 1.4L15.95 22zM12 11l8-5H4l8 5zm0 2L4 8v10h5.15l2 2H4c-.55 0-1.02-.196-1.413-.587A1.926 1.926 0 012 18V6c0-.55.196-1.02.587-1.412A1.926 1.926 0 014 4h16c.55 0 1.02.196 1.413.588.391.391.587.862.587 1.412v4.35l-2 2V8l-8 5z" fill="currentColor"/></g></symbol><symbol id="icon__map" viewBox="0 0 24 24"><g fill="none"><path d="M.48 2.88a.6.6 0 00-.6.6v17.04a.6.6 0 00.6.6h16.05l-.63-.828c-.262-.387-.642-.718-.754-1.188a7.088 7.088 0 01-4.9.168c-.035-.012-.069-.026-.103-.037-.182.177-.378.487-.409.685h-2.28c.17-.58-.193-1.487.151-2.078.028-.007.06-.054.076-.101-.039-.037-.078-.072-.116-.11-.338.103-.473.357-.66.58.102.486-.638.371-.563.867.515.4-.476.095-.77.127-.313.003-1.228-.324-.91.345-.05.184-.004.297.087.37h-.14c-.022-.21-.418-.242-.57-.345-.257-.062-.564-.093-.83-.212-.069.19-.686.408-.821.557H1.08v-8.768c.184.124.597.075.034-.192H1.08V8.197c.11-.055.187-.073.182.02.27-.091.389-.75.857-.48.291.043.774.495.532.552.189.462.323.164.555.714-.159.753.45 1.31.783 1.79.4.167.558.684 1.208.704.089.077.202.147.32.214.033-.248.078-.494.136-.737-.016-.004-.03-.006-.047-.012-.626.577-.754-.421-.143-.46a.602.602 0 01.132.006.39.39 0 01.179.017 6.936 6.936 0 011.573-2.718c-.126-.211-.255-.329-.407-.053-.012-.41-1.118-.838-.304-.446.427.368.567-.063.634-.358.366-.382-.375-.512-.24-.761a3.108 3.108 0 00-.899-.89c-.663.076-.895-.064-.009-.064.08-.414.213-.708.304-1.056-.096-.028-.196-.023-.295-.024-.424-.056-.676.108-.667.431-.319-.025-.032-.568-.523-.402-.745-.012.155.24.086.276-.085.19-.622.072-.559.265-.245-.454-.357.217-.548-.243-.116-.11.482.11.346-.293-.301-.115-.409.086-.643.169-.7.387.122.751.477.88.536-.142.535-.323.908-.124.418.231-.422.068-.396.425-.048-.222-.108-.355-.367-.071-.346.062-.5-.413-.758-.38-.588-.08-.369 1.243.116.793.293.507-.375.133-.573.076-.447.5-.928-.013-1.462-.034a.509.509 0 00-.488-.057V4.08h6.293c-.448.012-.85.071-.686.394-.026.623.779.128.895.691.335.394-.199 1.23.38 1.083-.213.26-.187.672-.02.997a7.152 7.152 0 012.06-1.209.443.443 0 00-.04-.259c-.076-.376.274-.497.151-.914a.557.557 0 00-.245-.783H22.92v1.699a.96.96 0 00-.115-.04c-.338.306-.064.335.115.266v.268c-.4-.225-.84-.25-1.266-.156-.193-.337-.879-.329-1.105-.632-.397-.476.122-.334.468-.371-.098-.298-.688-.439-.938-.39-.45.247.237.469.168.8 0 .24-.294.242-.55.229.103-.255-.49-.568-.726-.361-.445-.135-.615-.056-.321-.52-.103-.357-.528-.363-.718-.611-.243.515-.648.36-1.083.673-.174.254-.536.483-.554.65-.27.127-.54-.518-.728.054-.171.484.01.718-.569.322-.598-.638 1.202-1.184.533-1.455-.555.162-.889.553-1 1.11-.06.126-.032.214.031.285 2.108.629 3.853 2.324 4.562 4.404.011-.125.032-.246.074-.334.177-.135.037.52.403.147-.27.58.679.077.807-.162-.188-.472.677-.695.657-.784-.319-.334-.138-.002-.489.075-.116-.155.223-1.005-.229-.927-.675-.174.574-.671.912-.488.153-.568.374-.116-.005.146-.145.504-.076 1.192.35.518.19-.186.143-.671.391-.756.334-.157.93-.28.915-.767l.01-.001V19.92h-.95c.206-.285.478-.773.19-.95-.435-.075-.76-.6-1.285-.577-.237-.273-.783-.412-.93-.465-.147-.053-.402.255-.663.119a.671.671 0 00-.237.004c.786 1.02 1.564 2.046 2.345 3.069h2.13a.6.6 0 00.6-.6V3.48a.6.6 0 00-.6-.6H.48zm11.686 1.277c-.387.19.298.948.317.224.071.106.546.212.39-.128-.344-.203-.292.03-.708-.096m5.54 0c.365.207-.417.203 0 0zm-13.244.07c-.312.231.458.46.041.012l-.04-.013zm2.555.137c.078.075-.077.048 0 0zm-3.013.296c.037.043-.02.003 0 0zm1.069.1c.376.064-.029.153 0 0zm.527.042c.357-.023.13.09 0 0zm-1.05.016c.232.024-.03.108 0 0zm.744.338c.235.054-.116.073 0 0zm.166.374c-.142.452.503 1.063.003.549-.138-.206-.21-.404-.003-.549zm-.84.046c.207.344.52.436.258.555-.175-.085-.215-.348-.258-.555zm3.235.347c.03.02-.078.005 0 0zm-4.866.109c-.027.109-.037.001 0 0zm1.859.176c-.017.227-.11-.004 0 0zm1.38.001c-.09.444.266.416.242.46-.295.13-.224.664-.45.257-.142-.067.074-.653.17-.704l.037-.013zm-1.447 0c.031.008-.002.105 0 0zm17.36.04c.01.017-.041.041 0 0zm-17.343.059c.164.17-.22.156 0 0zm7.627.235a6.038 6.038 0 00-3.62 1.237 6.082 6.082 0 00-1.153 8.51c1.898 2.491 5.362 3.092 7.98 1.497l.5.657c-.098.229-.089.448.026.598l3.628 4.765c.216.284.738.25 1.165-.075.427-.326.599-.82.383-1.103l-3.629-4.765c-.115-.15-.323-.218-.57-.184l-.5-.657c2.234-2.1 2.576-5.599.68-8.09a6.054 6.054 0 00-4.89-2.39zm-6.814.602c.15.357.73.148.503.633.252.238-.04 1.075-.138.361-.629-.003-.929-.63-.401-.959l.036-.035zm.548.06c.192.163-.303.09 0 0zm15.078.438c.06.074.017-.012 0 0zm-8.57.245A4.709 4.709 0 0116.24 9.75a4.712 4.712 0 01-.896 6.619 4.71 4.71 0 01-6.619-.896 4.712 4.712 0 01.896-6.619 4.704 4.704 0 013.044-.966zm9.26.247c.453.255-.376.312 0 0zm.45.26c.364.204-.418.204 0 0zm.271.095c.38.147-.372.31 0 0zm-.015.067c.02 0-.013.022 0 0zm.036.039c.01.018-.03.004 0 0zm-10.162.25a3.615 3.615 0 00-1.52.319c.025.03.06.06.113.086-.48-.156-.62.45-.417.724l.324.026.272-.12c.175-.182.219-.15.275-.427l.106.014.084-.035.192.095c.229.09.24.283.163.34-.109.066.02.076.03.118.054-.016.086-.063.12-.088l.062-.022c.224-.147.067-.195-.089-.394l.083.021c.12.137.192.292.263.456.008.007.016.015.025.018a.37.37 0 00.197-.006c.064-.018.069-.141.058-.26.092.422.998.297.459.554-.31.007-.805-.164-.896.051-.2-.09-.304-.15-.344-.197-.124-.047-.48-.182-.493-.182-.015 0-.469.083-.469.083l-.374.142c-.122.392-.314.182-.38.486-.05.195-.49.615-.26.946.206.956 1.398.32 1.676.779-.13.283.515.82.154 1.284.17.674.628 1.799 1.365.84.194-.573.613-.883.598-1.452-.222-.56 1.087-.976.563-1.43-.125.015-.14.042-.24.075-.208-.007-.262-.176-.334-.282a1.765 1.765 0 01-.144-.244c.134.206.271.381.464.49.334-.076.717-.323.872-.504-.003-.706.946.026.927.557a.724.724 0 00.208.3 3.73 3.73 0 00-1.511-2.442c-.01.016-.034.017-.029-.02a3.998 3.998 0 00-.215-.141c.008.033.018.067.029.102-.032-.047-.065-.095-.092-.14a3.658 3.658 0 00-1.874-.52zm7.81.032c.173.496-.606 1.645-.72.89.08-.372.72-.316.72-.89zm-14.61.131c.034-.004-.006.018 0 0zm.369.174c.07.059-.084.044 0 0zm7.207.016c.193.164.788.38.159.207-.328.15-.429.054-.16-.207zm-1.497.29c-.043.014-.007.101-.033.129.18.088.079-.083.106-.111-.037-.018-.06-.022-.073-.017zm2.743.18c.056.144.093.237-.05.057a.096.096 0 00.05-.057zm-2.727.018c-.07-.008-.108.04-.108.105.186.101.167-.066.19-.078a.24.24 0 00-.082-.027zm2.874 1.027c.106.005-.102.154-.066.009a.24.24 0 01.066-.009zm7.31.94c.412.431-.345.367 0 0zm-.023.056c.035-.003-.007.025 0 0zm.03.053c.003.025-.037-.006 0 0zm.25.048c.405.185-.334.291 0 0zm.037.083c.025-.005-.005.035 0 0zm-.048.012c.022.03-.02.017 0 0zm-2.735.378c.006.15.007.3.004.449.275.043.62.031.627.336.493.021-.051.742-.07.074a.972.972 0 00-.586.1 7.191 7.191 0 01-.32 1.54c.404-.127.815-.115 1.058.277.64-.002.096.434.549.523.193-.395-.102-.345.26-.667.352-.45.122-1.03-.229-1.275-.073-.278-.363-.428-.226-.618.266.361.643.09.328-.105.233-.217 1.064.56.597-.038-.23-.042-.547-.519-.618-.212-.021.254-.656-.386-.89-.124-.068-.236-.399-.094-.418.012.102-.159.038-.24-.066-.272zm1.221.205c.31.189-.344.195 0 0zm-8.984.017c.027.062-.008.01 0 0zm-3.013.03c-.007.332.03.665.11.989.276-.418.265-.811-.11-.99zm11.98.01c.02.016-.026.006 0 0zm.232.03c.112.079-.112.079 0 0zm0 .002c.102.073-.102.073 0 0zm-.21.02c.004.025-.035-.004 0 0zm-1.224.261c-.002.058-.008.116-.011.173.077-.087.11-.178.011-.173zm-5.47.249c-.278.152.297.222.057.043l-.01-.025-.047-.018zm.324.043c-.274.171-.699.988-.11 1.014.143-.17.503-.923.11-1.014zm7.435.52c.637.26-.22.433 0 0zm-6.995.058c.345.209-.357.239 0 0zm7.567.987c.203.46-.47.735-.42 1.162.346.167.524-.46.768-.652.287-.252-.227-.326-.348-.51zM6.397 16.13c.04.253.158.498.37.572a6.938 6.938 0 01-.37-.572z" fill="currentColor"/></g></symbol><symbol id="icon__new" viewBox="0 0 24 24"><g fill="none"><path d="M11 15v2c0 .283.096.52.287.712.192.192.43.288.713.288s.52-.096.713-.288A.968.968 0 0013 17v-2h2c.283 0 .52-.096.713-.287A.968.968 0 0016 14a.968.968 0 00-.287-.713A.968.968 0 0015 13h-2v-2a.968.968 0 00-.287-.713A.968.968 0 0012 10a.968.968 0 00-.713.287A.968.968 0 0011 11v2H9a.967.967 0 00-.713.287A.968.968 0 008 14c0 .283.096.52.287.713.192.191.43.287.713.287h2zm-5 7c-.55 0-1.02-.196-1.412-.587A1.926 1.926 0 014 20V4c0-.55.196-1.02.588-1.413A1.926 1.926 0 016 2h7.175a1.975 1.975 0 011.4.575l4.85 4.85a1.975 1.975 0 01.575 1.4V20c0 .55-.196 1.02-.587 1.413A1.926 1.926 0 0118 22H6zm7-14V4H6v16h12V9h-4a.968.968 0 01-.713-.287A.967.967 0 0113 8z" fill="currentColor"/></g></symbol><symbol id="icon__pass--2" viewBox="0 0 24 24"><g fill="none"><path d="M4 6v13a3 3 0 003 3h10a3 3 0 003-3V9a3 3 0 00-3-3H4zm0 0V5" stroke="currentColor" stroke-width="2"/><path d="M12 16a3 3 0 100-6 3 3 0 000 6z" stroke="currentColor" stroke-width="2"/><path d="M18 6v.75h.75V6H18zm-12.93.75H18v-1.5H5.071l-.001 1.5zM18.75 6V4.306h-1.5V6h1.5zm-3.139-4.416L4.814 3.126l.212 1.485 10.797-1.54-.212-1.487zM4.814 3.126A1.82 1.82 0 003.25 4.93h1.5a.32.32 0 01.276-.319l-.212-1.485zm13.936 1.18a2.75 2.75 0 00-3.139-2.722l.212 1.486a1.25 1.25 0 011.427 1.236h1.5zM5.071 5.25a.32.32 0 01-.321-.32h-1.5a1.815 1.815 0 001.124 1.682c.221.091.457.138.696.138l.001-1.5z" fill="currentColor"/><path d="M10 19h4" stroke="currentColor" stroke-width="2" stroke-linecap="round"/></g></symbol><symbol id="icon__pass" viewBox="0 0 24 24"><g fill="none"><path d="M4 20c-.55 0-1.02-.196-1.413-.587A1.926 1.926 0 012 18V6c0-.55.196-1.02.587-1.412A1.926 1.926 0 014 4h16c.55 0 1.02.196 1.413.588.391.391.587.862.587 1.412v12c0 .55-.196 1.02-.587 1.413A1.926 1.926 0 0120 20H4zm0-2h7V6H4v12zm9 0h7V6h-7v12zm-8-2h5v-2H5v2zm0-3h5v-2H5v2zm0-3h5V8H5v2zm9 6h5v-2h-5v2zm0-3h5v-2h-5v2zm0-3h5V8h-5v2z" fill="currentColor"/></g></symbol><symbol id="icon__payment" viewBox="0 0 24 24"><g fill="none"><path d="M22 6v12c0 .55-.196 1.02-.587 1.413A1.926 1.926 0 0120 20H4c-.55 0-1.02-.196-1.413-.587A1.926 1.926 0 012 18V6c0-.55.196-1.02.587-1.412A1.926 1.926 0 014 4h16c.55 0 1.02.196 1.413.588.391.391.587.862.587 1.412zM4 8h16V6H4v2zm0 4v6h16v-6H4z" fill="currentColor"/></g></symbol><symbol id="icon__phone-user" viewBox="0 0 24 24"><g fill="none"><path d="M17.25 1.5H6.75A2.25 2.25 0 004.5 3.75v16.5a2.25 2.25 0 002.25 2.25h10.5a2.25 2.25 0 002.25-2.25V3.75a2.25 2.25 0 00-2.25-2.25z" stroke="currentColor" stroke-width="2" stroke-linejoin="round"/><path d="M9.75 3.75h4.5" stroke="currentColor" stroke-width="2" stroke-linecap="round" stroke-linejoin="round"/><path d="M15.632 13.336a1.86 1.86 0 00-1.382-.586c-.544 0-1.036.207-1.385.583s-.525.896-.484 1.453c.08 1.1.918 1.995 1.869 1.995.95 0 1.788-.895 1.869-1.994a1.897 1.897 0 00-.487-1.45zM17.422 21h-6.345a.565.565 0 01-.56-.437.61.61 0 01-.006-.27c.153-.823.627-1.515 1.374-2 .662-.43 1.502-.668 2.365-.668.863 0 1.703.237 2.365.668.747.485 1.221 1.177 1.374 2a.61.61 0 01-.13.512.566.566 0 01-.436.195z" fill="currentColor"/></g></symbol><symbol id="icon__phone" viewBox="0 0 24 24"><g fill="none"><path d="M19.95 21c-2.083 0-4.142-.454-6.175-1.363-2.033-.908-3.883-2.195-5.55-3.862-1.667-1.667-2.954-3.517-3.862-5.55C3.454 8.192 3 6.133 3 4.05c0-.3.1-.55.3-.75.2-.2.45-.3.75-.3H8.1a.93.93 0 01.625.237.914.914 0 01.325.563l.65 3.5a1.77 1.77 0 01-.025.675c-.05.183-.142.342-.275.475L6.975 10.9c.333.617.73 1.213 1.188 1.787.458.575.962 1.13 1.512 1.663.517.517 1.058.996 1.625 1.438.567.441 1.167.845 1.8 1.212l2.35-2.35a1.4 1.4 0 01.588-.338 1.61 1.61 0 01.712-.062l3.45.7c.233.067.425.188.575.363A.88.88 0 0121 15.9v4.05c0 .3-.1.55-.3.75-.2.2-.45.3-.75.3zM6.025 9l1.65-1.65L7.25 5H5.025c.083.683.2 1.358.35 2.025.15.667.367 1.325.65 1.975zm8.95 8.95c.65.283 1.313.508 1.987.675.675.167 1.355.275 2.038.325v-2.2l-2.35-.475-1.675 1.675z" fill="currentColor"/></g></symbol><symbol id="icon__right" viewBox="0 0 24 24"><g fill="none"><path d="M14.186 2.753v3.596c0 .487.194.955.54 1.3.347.345.816.54 1.306.539h4.125" stroke="currentColor" stroke-width="2" stroke-linecap="round" stroke-linejoin="round"/><path d="M20.25 8.568v8.568a4.25 4.25 0 01-1.362 2.97 4.282 4.282 0 01-3.072 1.14h-7.59a4.298 4.298 0 01-3.1-1.124 4.26 4.26 0 01-1.376-2.986V6.862a4.25 4.25 0 011.362-2.97 4.28 4.28 0 013.072-1.14h5.714a3.5 3.5 0 012.361.905l2.96 2.722a2.969 2.969 0 011.031 2.189z" stroke="currentColor" stroke-width="2" stroke-linecap="round" stroke-linejoin="round"/><path d="M8.36 13.682l1.879 1.88a.708.708 0 001.01 0l3.787-3.787" stroke="currentColor" stroke-width="2" stroke-linecap="round" stroke-linejoin="round"/></g></symbol><symbol id="icon__search" viewBox="0 0 24 24"><g fill="none"><path d="M9.5 16c-1.817 0-3.354-.63-4.612-1.887C3.629 12.854 3 11.317 3 9.5c0-1.817.63-3.354 1.888-4.612C6.146 3.629 7.683 3 9.5 3c1.817 0 3.354.63 4.613 1.888C15.37 6.146 16 7.683 16 9.5a6.096 6.096 0 01-1.3 3.8l5.6 5.6a.948.948 0 01.275.7.948.948 0 01-.275.7.948.948 0 01-.7.275.948.948 0 01-.7-.275l-5.6-5.6A6.096 6.096 0 019.5 16zm0-2c1.25 0 2.313-.438 3.188-1.313C13.562 11.813 14 10.75 14 9.5c0-1.25-.438-2.313-1.313-3.188C11.813 5.438 10.75 5 9.5 5c-1.25 0-2.313.438-3.188 1.313S5 8.25 5 9.5c0 1.25.438 2.313 1.313 3.188C7.188 13.562 8.25 14 9.5 14z" fill="currentColor"/></g></symbol><symbol id="icon__services" viewBox="0 0 24 24"><g fill="none"><path d="M14.05 15.55l-.7-.7a1.02 1.02 0 00-.713-.313.93.93 0 00-.712.288c-.2.2-.3.438-.3.713 0 .274.1.512.3.712l1.425 1.425c.2.2.433.3.7.3.267 0 .5-.1.7-.3l3.575-3.575c.2-.2.296-.433.288-.7a1.006 1.006 0 00-.313-.7c-.2-.183-.433-.28-.7-.287a.916.916 0 00-.7.287l-2.85 2.85zM8 15h1c.283 0 .52-.096.713-.287A.968.968 0 0010 14a.968.968 0 00-.287-.713A.967.967 0 009 13H8a.967.967 0 00-.713.287A.968.968 0 007 14c0 .283.096.52.287.713.192.191.43.287.713.287zm0-3h5c.283 0 .52-.096.713-.287A.968.968 0 0014 11a.968.968 0 00-.287-.713A.968.968 0 0013 10H8a.967.967 0 00-.713.287A.968.968 0 007 11c0 .283.096.52.287.713.192.191.43.287.713.287zm0-3h5c.283 0 .52-.096.713-.287A.967.967 0 0014 8a.967.967 0 00-.287-.713A.968.968 0 0013 7H8a.968.968 0 00-.713.287A.968.968 0 007 8c0 .283.096.52.287.713.192.191.43.287.713.287zm4 13a9.738 9.738 0 01-3.9-.788 10.099 10.099 0 01-3.175-2.137c-.9-.9-1.612-1.958-2.137-3.175A9.738 9.738 0 012 12a9.74 9.74 0 01.788-3.9 10.099 10.099 0 012.137-3.175c.9-.9 1.958-1.612 3.175-2.137A9.738 9.738 0 0112 2a9.74 9.74 0 013.9.788 10.098 10.098 0 013.175 2.137c.9.9 1.613 1.958 2.137 3.175A9.738 9.738 0 0122 12a9.738 9.738 0 01-.788 3.9 10.098 10.098 0 01-2.137 3.175c-.9.9-1.958 1.613-3.175 2.137A9.738 9.738 0 0112 22zm0-2c2.233 0 4.125-.775 5.675-2.325C19.225 16.125 20 14.233 20 12c0-2.233-.775-4.125-2.325-5.675C16.125 4.775 14.233 4 12 4c-2.233 0-4.125.775-5.675 2.325C4.775 7.875 4 9.767 4 12c0 2.233.775 4.125 2.325 5.675C7.875 19.225 9.767 20 12 20z" fill="currentColor"/></g></symbol><symbol id="icon__shield" viewBox="0 0 24 24"><g fill="none"><path d="M3 10.417c0-3.198 0-4.797.378-5.335.377-.537 1.88-1.052 4.887-2.081l.573-.196C10.405 2.268 11.188 2 12 2c.812 0 1.595.268 3.162.805l.573.196c3.007 1.029 4.51 1.544 4.887 2.081C21 5.62 21 7.22 21 10.417v1.574c0 5.638-4.239 8.375-6.899 9.536C13.38 21.842 13.02 22 12 22s-1.38-.158-2.101-.473C7.239 20.365 3 17.63 3 11.991v-1.574z" stroke="currentColor" stroke-width="2"/><path d="M3 11l9-3 9 3m-9-9v19.5" stroke="currentColor" stroke-width="2"/></g></symbol><symbol id="icon__social--tg" viewBox="0 0 44 44"><g fill="none"><path fill-rule="evenodd" clip-rule="evenodd" d="M40.334 22c0 10.125-8.21 18.333-18.334 18.333-10.124 0-18.333-8.208-18.333-18.333C3.667 11.875 11.876 3.667 22 3.667c10.125 0 18.334 8.208 18.334 18.333zm-17.677-4.799c-1.782.742-5.346 2.277-10.691 4.605-.868.345-1.323.683-1.364 1.013-.07.56.629.78 1.58 1.077l.401.128c.937.304 2.195.66 2.85.674.593.012 1.256-.232 1.989-.733 4.992-3.372 7.57-5.075 7.732-5.112.114-.026.273-.06.38.037.107.094.096.274.086.323-.07.295-2.812 2.845-4.232 4.165-.443.411-.757.703-.82.77a24.1 24.1 0 01-.432.426c-.87.837-1.521 1.467.037 2.494.749.493 1.348.901 1.945 1.307.652.445 1.303.888 2.147 1.441.213.143.42.285.618.428.76.542 1.443 1.028 2.286.952.489-.046.996-.506 1.253-1.88.606-3.247 1.8-10.281 2.077-13.181a3.06 3.06 0 00-.03-.721.764.764 0 00-.263-.497c-.218-.178-.558-.217-.71-.214-.69.013-1.747.38-6.839 2.498z" fill="currentColor"/></g></symbol><symbol id="icon__social--vk" viewBox="0 0 44 44"><g fill="none"><path d="M20.714 4.045c-4.298.32-8.217 2.087-11.296 5.094a17.95 17.95 0 00-5.271 15.157c.896 7.023 5.848 12.872 12.65 14.94 5.26 1.603 11.114.652 15.573-2.52 5.479-3.904 8.33-10.38 7.483-17.007-.896-7.023-5.848-12.872-12.651-14.94a18.316 18.316 0 00-6.488-.724zM22.086 15.2c.921.091 1.382.236 1.589.506.08.128.144.264.19.407.109.315.113.676.046 3.372-.042 1.685-.017 2.203.12 2.577.162.427.519.622.834.461.287-.15.954-.883 1.39-1.535 1.007-1.493 1.62-2.65 2.36-4.444.149-.352.348-.585.555-.639.083-.024 1.257-.044 2.7-.049l2.551-.008.216.09c.278.124.386.288.386.581 0 .56-.585 1.71-1.589 3.116a93.84 93.84 0 01-1.149 1.534c-1.091 1.434-1.328 1.772-1.493 2.12-.209.44-.158.8.17 1.228.095.12.576.605 1.07 1.078 1.38 1.323 2.008 2.02 2.517 2.783.366.552.506.958.448 1.307-.03.191-.22.42-.435.531-.258.13-.652.154-2.821.182l-2.053.03-.338-.113c-.846-.281-1.41-.75-2.692-2.236-.709-.821-1.236-1.224-1.6-1.228-.337 0-.764.448-.946 1.004-.124.374-.17.66-.208 1.307-.045.763-.137.942-.606 1.136-.17.075-2.285.1-2.846.042-1.124-.124-2.166-.477-3.198-1.087-1.498-.88-2.415-1.667-3.398-2.92-1.709-2.182-2.869-4.04-4.289-6.844-.547-1.091-1.19-2.501-1.294-2.837-.103-.349.045-.635.386-.743.116-.037.763-.058 2.256-.078l2.095-.021.244.091c.386.15.548.34.81.975.223.534 1.43 2.958 1.808 3.634.386.684.796 1.256 1.149 1.597.435.428.63.531.938.507.261-.025.337-.083.494-.436.393-.85.455-3.725.103-4.853-.203-.643-.506-.888-1.344-1.066-.145-.034-.145-.083-.013-.278.324-.465.9-.689 2-.78.601-.05 2.384-.054 2.878-.004l.01.003z" fill="currentColor"/></g></symbol><symbol id="icon__social--wa" viewBox="0 0 44 44"><g fill="none"><path d="M25.281 4.84l-1.045-.147a16.738 16.738 0 00-16.353 7.334 16.684 16.684 0 00-1.302 17.71 2.383 2.383 0 01.184 1.833c-.752 2.585-1.449 5.188-2.182 7.92l.917-.275c2.475-.66 4.95-1.32 7.425-1.925a2.658 2.658 0 011.558.147A17.324 17.324 0 1025.281 4.84zm4.62 24.053a5.06 5.06 0 01-4.986 1.027 16.866 16.866 0 01-9.405-6.802 15.584 15.584 0 01-2.035-3.813 4.566 4.566 0 011.008-4.62 2.255 2.255 0 012.42-.77c.367.092.623.623.953 1.027.27.757.58 1.497.935 2.218a1.723 1.723 0 01-.366 2.402c-.825.733-.697 1.338-.11 2.163a12.283 12.283 0 005.17 4.253c.586.257 1.026.312 1.411-.293.165-.238.385-.44.569-.66 1.063-1.338.733-1.32 2.42-.587.537.226 1.057.49 1.558.789.495.293 1.247.605 1.357 1.045a2.659 2.659 0 01-.899 2.621z" fill="currentColor"/></g></symbol><symbol id="icon__surf" viewBox="0 0 24 24"><g fill="none"><path d="M3 23a.967.967 0 01-.712-.288A.968.968 0 012 22c0-.283.096-.52.288-.712A.967.967 0 013 21a5.16 5.16 0 001.287-.163c.426-.108.83-.279 1.213-.512.15-.083.317-.125.5-.125s.35.042.5.125c.383.233.787.404 1.213.512a5.195 5.195 0 002.574 0c.425-.108.83-.279 1.213-.512.15-.083.32-.125.512-.125s.355.042.488.125c.383.233.787.404 1.213.512a5.195 5.195 0 002.575 0 4.426 4.426 0 001.212-.512.927.927 0 01.5-.125c.2 0 .367.042.5.125.383.233.788.404 1.212.512.425.109.855.163 1.288.163.283 0 .52.096.712.288.192.191.288.429.288.712s-.096.52-.288.712A.968.968 0 0121 23a6.264 6.264 0 01-1.525-.188A6.79 6.79 0 0118 22.25a6.79 6.79 0 01-1.475.563 6.264 6.264 0 01-3.05 0A6.79 6.79 0 0112 22.25a6.79 6.79 0 01-1.475.563 6.264 6.264 0 01-3.05 0A6.79 6.79 0 016 22.25a6.79 6.79 0 01-1.475.563C4.025 22.938 3.517 23 3 23zm9.175-13L16 13v3.85c.267.183.525.375.775.575.25.2.492.392.725.575-.35.3-.733.542-1.15.725A3.315 3.315 0 0115 19c-.6 0-1.158-.142-1.675-.425A4.638 4.638 0 0112 17.5a4.638 4.638 0 01-1.325 1.075 3.429 3.429 0 01-2.163.387 2.88 2.88 0 01-.462-.112c-1.433-.983-2.633-1.975-3.6-2.975-.967-1-1.45-1.867-1.45-2.6 0-.517.2-.858.6-1.025.4-.167.817-.25 1.25-.25.483 0 1.042.07 1.675.213a15.61 15.61 0 012.025.612l-.525-3.1a1.622 1.622 0 01.112-.987c.142-.325.363-.588.663-.788l2.15-1.45c-.05 0-.17-.02-.362-.063a17.537 17.537 0 00-.638-.125 17.512 17.512 0 01-.637-.125 2.42 2.42 0 00-.363-.062l-2 1.375a1 1 0 01-.75.15 1.005 1.005 0 01-.65-.425c-.15-.233-.2-.487-.15-.762a.924.924 0 01.425-.638l2.325-1.6a.874.874 0 01.75-.15l5.15.95c.233.033.458.125.675.275.217.15.4.358.55.625l.875 1.55c.35.633.82 1.167 1.413 1.6a4.77 4.77 0 002.012.85c.267.05.488.175.663.375.175.2.262.433.262.7 0 .283-.1.517-.3.7a.838.838 0 01-.7.225 6.614 6.614 0 01-2.962-1.15 7.237 7.237 0 01-2.113-2.3L12.175 10zM10.3 11.1l.45 2.65c.45.217 1.008.504 1.675.863A35.46 35.46 0 0114 15.5V14l-3.7-2.9zM17 5.5c-.55 0-1.02-.196-1.412-.588A1.926 1.926 0 0115 3.5c0-.55.196-1.02.588-1.413A1.926 1.926 0 0117 1.5c.55 0 1.02.196 1.413.587.391.392.587.863.587 1.413s-.196 1.02-.587 1.412A1.926 1.926 0 0117 5.5z" fill="currentColor"/></g></symbol><symbol id="icon__ticket--2" viewBox="0 0 24 24"><g fill="none"><path d="M17.159 6.844a2.19 2.19 0 01-.114-2.973.181.181 0 00-.01-.247l-2.069-2.07a.182.182 0 00-.258 0L11.411 4.85a1.12 1.12 0 00-.268.433 1.109 1.109 0 01-.7.703 1.11 1.11 0 00-.434.267l-8.456 8.454a.182.182 0 000 .258l2.069 2.069a.181.181 0 00.247.01 2.189 2.189 0 013.086 3.086.182.182 0 00.01.247l2.069 2.069a.182.182 0 00.257 0l8.457-8.456a1.11 1.11 0 00.267-.434 1.11 1.11 0 01.701-.703c.163-.054.312-.146.433-.268l3.297-3.297a.182.182 0 000-.258l-2.068-2.068a.181.181 0 00-.247-.01 2.189 2.189 0 01-2.973-.11z" stroke="currentColor" stroke-width="2" stroke-miterlimit="10"/><path d="M11.742 6.583l-.774-.774m2.838 2.838l-.516-.516m2.579 2.58l-.516-.517m2.838 2.838l-.774-.774" stroke="currentColor" stroke-width="2" stroke-miterlimit="10" stroke-linecap="round"/></g></symbol><symbol id="icon__ticket" viewBox="0 0 24 24"><g fill="none"><path d="M11.8 12.9l-2.4.6-1.075-.8c-.05-.033-.183-.067-.4-.1l-.125.05a.451.451 0 00-.325.262.407.407 0 00.025.413l1.15 2c.067.1.15.17.25.213a.48.48 0 00.325.012l8.525-2.25a.864.864 0 00.563-.463.997.997 0 00.087-.737.877.877 0 00-.438-.563.925.925 0 00-.712-.087l-2.45.65-3.725-3.5a.59.59 0 00-.3-.162.712.712 0 00-.35.012l-.125.025a.647.647 0 00-.488.4.665.665 0 00.038.625l1.95 3.4zM4 20c-.55 0-1.02-.196-1.413-.587A1.926 1.926 0 012 18v-3.375c0-.183.058-.342.175-.475a.76.76 0 01.45-.25c.4-.133.73-.375.987-.725A1.93 1.93 0 004 12c0-.433-.13-.825-.388-1.175a1.983 1.983 0 00-.987-.725.76.76 0 01-.45-.25A.698.698 0 012 9.375V6c0-.55.196-1.02.587-1.412A1.926 1.926 0 014 4h16c.55 0 1.02.196 1.413.588.391.391.587.862.587 1.412v12c0 .55-.196 1.02-.587 1.413A1.926 1.926 0 0120 20H4zm0-2h16V6H4v2.55a4.1 4.1 0 011.463 1.462C5.82 10.621 6 11.284 6 12c0 .717-.18 1.38-.537 1.988A4.1 4.1 0 014 15.45V18z" fill="currentColor"/></g></symbol><symbol id="icon__translate" viewBox="0 0 24 24"><g fill="none"><path d="M5 5.828h2.7m0 0h1.8m-1.8 0V5m3.3.828H9.5m0 0c-.316 1.131-.98 2.201-1.736 3.141l1.157 1.203M5.836 11a18.997 18.997 0 001.928-2.03c-.385-.453-.925-1.184-1.08-1.515M13.5 19l.833-2m0 0L16 13l1.667 4m-3.334 0h3.334m.833 2l-.833-2" stroke="currentColor" stroke-width="2" stroke-linecap="round" stroke-linejoin="round"/><path d="M14 10V8c0-2.828 0-4.243-.879-5.121C12.243 2 10.828 2 8 2c-2.828 0-4.243 0-5.121.879C2 3.757 2 5.172 2 8c0 2.828 0 4.243.879 5.121C3.757 14 5.172 14 8 14h2" stroke="currentColor" stroke-width="2" stroke-linecap="round" stroke-linejoin="round"/><path d="M4 16.5c0 1.404 0 2.107.337 2.611a2 2 0 00.552.552C5.393 20 6.096 20 7.5 20M20 7.5c0-1.404 0-2.107-.337-2.611a2 2 0 00-.552-.552C18.607 4 17.904 4 16.5 4M10 16c0-2.828 0-4.243.879-5.121C11.757 10 13.172 10 16 10c2.828 0 4.243 0 5.121.879C22 11.757 22 13.172 22 16c0 2.828 0 4.243-.879 5.121C20.243 22 18.828 22 16 22c-2.828 0-4.243 0-5.121-.879C10 20.243 10 18.828 10 16z" stroke="currentColor" stroke-width="2" stroke-linecap="round" stroke-linejoin="round"/></g></symbol><symbol id="icon__upload" viewBox="0 0 25 25"><g fill="none"><path d="M11.25 16.492v-8.15l-2.6 2.6-1.4-1.45 5-5 5 5-1.4 1.45-2.6-2.6v8.15h-2zm-5 4c-.55 0-1.02-.196-1.412-.587a1.926 1.926 0 01-.588-1.413v-3h2v3h12v-3h2v3a1.93 1.93 0 01-.587 1.413 1.926 1.926 0 01-1.413.587h-12z" fill="currentColor"/></g></symbol><symbol id="icon__user--2" viewBox="0 0 24 24"><g fill="none"><path d="M19 20.75a1 1 0 001-1v-1.246c.004-2.806-3.974-5.004-8-5.004s-8 2.198-8 5.004v1.246a1 1 0 001 1h14zM15.604 6.854a3.604 3.604 0 11-7.209 0 3.604 3.604 0 017.209 0z" stroke="currentColor" stroke-width="2" stroke-linecap="round" stroke-linejoin="round"/></g></symbol><symbol id="icon__user--alt" viewBox="0 0 16 16"><g fill="none"><path d="M8 0C3.589 0 0 3.589 0 8s3.589 8 8 8 8-3.589 8-8-3.589-8-8-8zM5.333 14.11V14A2.67 2.67 0 018 11.333 2.67 2.67 0 0110.667 14v.11A6.629 6.629 0 018 14.666c-.948 0-1.85-.2-2.667-.558zm6.617-.743A4.006 4.006 0 008 10a4.007 4.007 0 00-3.95 3.367A6.662 6.662 0 011.333 8 6.674 6.674 0 018 1.333 6.674 6.674 0 0114.667 8a6.662 6.662 0 01-2.717 5.367zM8 3.333A2.67 2.67 0 005.333 6 2.67 2.67 0 008 8.667 2.67 2.67 0 0010.667 6 2.67 2.67 0 008 3.333zm0 4A1.335 1.335 0 016.667 6c0-.735.598-1.333 1.333-1.333S9.333 5.265 9.333 6 8.735 7.333 8 7.333z" fill="currentColor"/></g></symbol><symbol id="icon__user" viewBox="0 0 24 24"><g fill="none"><path d="M5.85 17.1c.85-.65 1.8-1.163 2.85-1.538A9.737 9.737 0 0112 15c1.15 0 2.25.188 3.3.563 1.05.374 2 .887 2.85 1.537a7.73 7.73 0 001.363-2.325A7.838 7.838 0 0020 12c0-2.217-.78-4.104-2.337-5.662C16.104 4.779 14.217 4 12 4s-4.104.78-5.662 2.338C4.779 7.896 4 9.783 4 12c0 .983.162 1.908.487 2.775A7.73 7.73 0 005.85 17.1zM12 13c-.983 0-1.813-.338-2.488-1.012C8.837 11.313 8.5 10.483 8.5 9.5c0-.983.338-1.813 1.012-2.487C10.188 6.338 11.017 6 12 6c.983 0 1.813.338 2.488 1.013.675.675 1.012 1.504 1.012 2.487 0 .983-.338 1.813-1.012 2.488C13.813 12.663 12.983 13 12 13zm0 9a9.738 9.738 0 01-3.9-.788 10.099 10.099 0 01-3.175-2.137c-.9-.9-1.612-1.958-2.137-3.175A9.738 9.738 0 012 12a9.74 9.74 0 01.788-3.9 10.099 10.099 0 012.137-3.175c.9-.9 1.958-1.612 3.175-2.137A9.738 9.738 0 0112 2a9.74 9.74 0 013.9.788 10.098 10.098 0 013.175 2.137c.9.9 1.613 1.958 2.137 3.175A9.738 9.738 0 0122 12a9.738 9.738 0 01-.788 3.9 10.098 10.098 0 01-2.137 3.175c-.9.9-1.958 1.613-3.175 2.137A9.738 9.738 0 0112 22zm0-2a7.97 7.97 0 002.5-.387 7.53 7.53 0 002.15-1.113 7.53 7.53 0 00-2.15-1.113A7.933 7.933 0 0012 17a7.97 7.97 0 00-2.5.387A7.53 7.53 0 007.35 18.5a7.53 7.53 0 002.15 1.113A7.933 7.933 0 0012 20zm0-9c.433 0 .792-.142 1.075-.425.283-.283.425-.642.425-1.075 0-.433-.142-.792-.425-1.075C12.792 8.142 12.433 8 12 8c-.433 0-.792.142-1.075.425-.283.283-.425.642-.425 1.075 0 .433.142.792.425 1.075.283.283.642.425 1.075.425z" fill="currentColor"/></g></symbol><symbol id="icon__visa" viewBox="0 0 24 24"><g fill="none"><path d="M4 22c-.55 0-1.02-.196-1.413-.587A1.926 1.926 0 012 20V9c0-.55.196-1.02.587-1.412A1.926 1.926 0 014 7h5V4c0-.55.196-1.02.588-1.413A1.926 1.926 0 0111 2h2c.55 0 1.02.196 1.412.587C14.804 2.98 15 3.45 15 4v3h5c.55 0 1.02.196 1.413.588.391.391.587.862.587 1.412v11c0 .55-.196 1.02-.587 1.413A1.926 1.926 0 0120 22H4zm0-2h16V9h-5c0 .55-.196 1.02-.588 1.412A1.926 1.926 0 0113 11h-2c-.55 0-1.02-.196-1.412-.588A1.926 1.926 0 019 9H4v11zm2-2h6v-.45c0-.283-.08-.546-.238-.788a1.57 1.57 0 00-.662-.562 5.158 5.158 0 00-1.012-.337A5.063 5.063 0 009 15.75a5.009 5.009 0 00-2.1.45 1.57 1.57 0 00-.663.563A1.41 1.41 0 006 17.55V18zm8-1.5h4V15h-4v1.5zM9 15c.417 0 .77-.146 1.063-.438.291-.291.437-.645.437-1.062 0-.417-.146-.77-.438-1.063A1.446 1.446 0 009 12c-.417 0-.77.146-1.063.438A1.447 1.447 0 007.5 13.5c0 .417.146.77.438 1.063.291.291.645.437 1.062.437zm5-1.5h4V12h-4v1.5zM11 9h2V4h-2v5z" fill="currentColor"/></g></symbol><symbol id="icon__wallet" viewBox="0 0 16 16"><g fill="none"><path fill-rule="evenodd" clip-rule="evenodd" d="M14.824 7.078v1.748a.237.237 0 01-.24.234H9.32a.237.237 0 01-.239-.234V7.078a.237.237 0 01.239-.234h5.265a.237.237 0 01.24.234zm-2.271-5.891c.734.035 1.288.18 1.646.509.353.325.527.79.561 1.384v1.664a.63.63 0 01-.636.624.631.631 0 01-.638-.624V3.119c-.017-.291-.086-.444-.16-.512-.03-.028-.109-.067-.253-.1a3.15 3.15 0 00-.553-.071H2.192a2.363 2.363 0 00-.502.065.684.684 0 00-.269.122c-.028.024-.067.084-.097.2a1.93 1.93 0 00-.05.472l-.002 9.295c.04.4.127.643.22.753a.54.54 0 00.218.118c.119.042.276.079.466.103h10.359c.238.005.423-.01.558-.038.14-.028.21-.066.237-.093a.538.538 0 00.106-.248c.03-.133.05-.313.05-.54v-1.616c0-.347.287-.625.637-.625.35 0 .637.278.637.625v1.616c0 .72-.146 1.284-.514 1.657-.38.384-.971.527-1.725.511l-10.426-.002c-.718-.083-1.257-.283-1.584-.67-.293-.346-.448-.831-.51-1.486L0 12.645v-9.35c.002-.706.17-1.261.583-1.614.374-.321.904-.47 1.583-.495h10.387zm2.032 4.506c.78 0 1.415.618 1.415 1.385v1.748c0 .767-.636 1.385-1.415 1.385H9.32c-.779 0-1.415-.619-1.415-1.385V7.078c0-.767.636-1.385 1.415-1.385h5.265zM9.88 7.96c0-.408.342-.733.757-.733s.757.325.757.733a.746.746 0 01-.757.733.746.746 0 01-.757-.733z" fill="currentColor"/></g></symbol><view id="icon__calendar-view" viewBox="0 0 24 24"/><use href="#icon__calendar" width="24" height="24" x="0" y="0"/><view id="icon__arrow--down-view" viewBox="0 24 24 24"/><use href="#icon__arrow--down" width="24" height="24" x="0" y="24"/><view id="icon__search-view" viewBox="0 48 24 24"/><use href="#icon__search" width="24" height="24" x="0" y="48"/></svg>