<svg width="33" height="32" viewBox="0 0 33 32" fill="none" xmlns="http://www.w3.org/2000/svg">
<g clip-path="url(#clip0_3231_6771)">
<path d="M14.918 25.3333V26.6667C14.918 27.0203 14.7775 27.3594 14.5274 27.6095C14.2774 27.8595 13.9382 28 13.5845 28H10.9176V29.3333C10.9176 30.0406 10.6366 30.7189 10.1365 31.219C9.63636 31.719 8.95803 32 8.25072 32H2.91691C2.2096 32 1.53126 31.719 1.03112 31.219C0.530977 30.7189 0.25 30.0406 0.25 29.3333V25.8853C0.250151 25.1781 0.531227 24.5 1.0314 24L11.3497 13.6813C10.7166 11.5328 10.7759 9.23947 11.5194 7.12656C12.2628 5.01364 13.6526 3.18836 15.4917 1.9095C17.3307 0.630647 19.5258 -0.0368785 21.7655 0.0015726C24.0052 0.0400237 26.176 0.7825 27.9701 2.12373C29.7642 3.46496 31.0905 5.33687 31.761 7.47406C32.4314 9.61124 32.412 11.9052 31.7056 14.0308C30.9991 16.1564 29.6413 18.0056 27.8248 19.3163C26.0084 20.627 23.8253 21.3327 21.5853 21.3333H18.9183V24C18.9183 24.3536 18.7779 24.6928 18.5278 24.9428C18.2777 25.1929 17.9385 25.3333 17.5849 25.3333H14.918ZM24.2522 10.6667C24.9595 10.6667 25.6378 10.3857 26.1379 9.88562C26.6381 9.38552 26.9191 8.70724 26.9191 8C26.9191 7.29276 26.6381 6.61448 26.1379 6.11438C25.6378 5.61429 24.9595 5.33333 24.2522 5.33333C23.5448 5.33333 22.8665 5.61429 22.3664 6.11438C21.8662 6.61448 21.5853 7.29276 21.5853 8C21.5853 8.70724 21.8662 9.38552 22.3664 9.88562C22.8665 10.3857 23.5448 10.6667 24.2522 10.6667Z" fill="black"/>
<path d="M14.918 25.3333V26.6667C14.918 27.0203 14.7775 27.3594 14.5274 27.6095C14.2774 27.8595 13.9382 28 13.5845 28H10.9176V29.3333C10.9176 30.0406 10.6366 30.7189 10.1365 31.219C9.63636 31.719 8.95803 32 8.25072 32H2.91691C2.2096 32 1.53126 31.719 1.03112 31.219C0.530977 30.7189 0.25 30.0406 0.25 29.3333V25.8853C0.250151 25.1781 0.531227 24.5 1.0314 24L11.3497 13.6813C10.7166 11.5328 10.7759 9.23947 11.5194 7.12656C12.2628 5.01364 13.6526 3.18836 15.4917 1.9095C17.3307 0.630647 19.5258 -0.0368785 21.7655 0.0015726C24.0052 0.0400237 26.176 0.7825 27.9701 2.12373C29.7642 3.46496 31.0905 5.33687 31.761 7.47406C32.4314 9.61124 32.412 11.9052 31.7056 14.0308C30.9991 16.1564 29.6413 18.0056 27.8248 19.3163C26.0084 20.627 23.8253 21.3327 21.5853 21.3333H18.9183V24C18.9183 24.3536 18.7779 24.6928 18.5278 24.9428C18.2777 25.1929 17.9385 25.3333 17.5849 25.3333H14.918ZM24.2522 10.6667C24.9595 10.6667 25.6378 10.3857 26.1379 9.88562C26.6381 9.38552 26.9191 8.70724 26.9191 8C26.9191 7.29276 26.6381 6.61448 26.1379 6.11438C25.6378 5.61429 24.9595 5.33333 24.2522 5.33333C23.5448 5.33333 22.8665 5.61429 22.3664 6.11438C21.8662 6.61448 21.5853 7.29276 21.5853 8C21.5853 8.70724 21.8662 9.38552 22.3664 9.88562C22.8665 10.3857 23.5448 10.6667 24.2522 10.6667Z" fill="url(#paint0_linear_3231_6771)"/>
</g>
<defs>
<linearGradient id="paint0_linear_3231_6771" x1="0.25" y1="16" x2="32.25" y2="16" gradientUnits="userSpaceOnUse">
<stop stop-color="#24348B"/>
<stop offset="0.5" stop-color="#2F7D58"/>
<stop offset="1" stop-color="#5EB12E"/>
</linearGradient>
<clipPath id="clip0_3231_6771">
<rect width="32" height="32" fill="white" transform="translate(0.25)"/>
</clipPath>
</defs>
</svg>
