<svg width="24" height="25" viewBox="0 0 24 25" fill="none" xmlns="http://www.w3.org/2000/svg">
  <g clip-path="url(#clip0_3207_4920)">
    <path fill-rule="evenodd" clip-rule="evenodd"
          d="M11.6548 1.94375C11.6526 1.76645 11.6215 1.52822 11.5814 1.35852C11.5688 1.30521 11.5242 1.26564 11.5096 1.21295C11.464 1.04837 11.4704 0.719379 11.5459 0.562995C11.571 0.511215 11.6192 0.479655 11.6807 0.474459C11.7732 0.466623 11.867 0.511623 11.9612 0.513099C12.0753 0.514887 12.1807 0.469503 12.2927 0.470223C12.3519 0.470595 12.3983 0.489123 12.4235 0.540471C12.4968 0.689091 12.4802 1.03394 12.4382 1.19339C12.4215 1.2567 12.3642 1.30161 12.3491 1.3643C12.3121 1.51695 12.2508 1.78564 12.2676 1.94375C12.3438 1.90841 12.3953 1.83587 12.4729 1.80616C12.5827 1.7641 12.773 1.86353 12.8804 1.89416C13.0472 1.9417 13.2193 1.9975 13.3656 2.08689C14.0163 2.48474 13.6417 3.30816 13.3482 3.8117C13.2357 4.00476 13.1028 4.23273 13.178 4.45248C13.2286 4.60049 13.3971 4.69614 13.5374 4.7757C13.9369 5.00241 14.3399 5.22591 14.77 5.39032C14.7548 5.2358 14.6686 5.10094 14.5819 4.96521C14.4971 4.83275 14.4119 4.69947 14.3917 4.54626C14.3375 4.1369 14.6488 3.93519 15.0508 3.86183C15.1875 3.83688 15.3666 3.81366 15.485 3.88977C15.4686 3.83025 15.4476 3.76862 15.426 3.70565C15.3528 3.49157 15.2744 3.262 15.361 3.04674C15.431 2.87309 15.6724 2.98774 15.8147 2.95533C16.0083 2.91124 16.0451 3.04928 16.0464 3.21819C16.0465 3.22334 16.0465 3.22838 16.0467 3.23328C16.0491 3.44927 15.9918 3.65728 15.9701 3.86633C16.0732 3.74205 16.2622 3.84548 16.3895 3.87916C16.6288 3.94251 16.8664 4.0054 16.9778 4.24146C17.0932 4.48566 16.9417 4.76564 16.81 5.00925C16.7733 5.07708 16.7381 5.14211 16.7106 5.20275C17.0372 5.27415 17.423 5.15234 17.4719 4.80417C17.5049 4.56827 17.4096 4.31907 17.319 4.08218C17.2814 3.98406 17.2448 3.88806 17.2183 3.79599C17.1647 3.60908 17.147 3.38184 17.2758 3.21384C17.512 2.9056 18.1601 2.53782 18.5235 2.70474C18.6825 2.7777 18.8034 2.90362 18.9244 3.02985C19.0359 3.14604 19.1476 3.2625 19.2896 3.33812C19.4054 3.39976 19.5265 3.43931 19.6436 3.47753C19.9027 3.56212 20.1418 3.64017 20.2576 3.93666C20.357 4.19093 20.2379 4.35471 20.1113 4.52901C20.0402 4.62704 19.9665 4.7284 19.928 4.85106C20.1232 4.90851 20.4157 4.89141 20.5563 5.04116C20.7199 5.21525 20.6045 5.68966 20.3377 5.72042C20.2157 5.73443 20.2017 5.5576 20.1033 5.52204C19.9417 5.46357 19.7239 5.534 19.545 5.4841C19.5841 5.6581 19.648 5.84416 19.6131 6.02336C19.5624 6.28385 19.2171 6.5173 18.9321 6.44538C18.9927 6.15008 18.997 5.92798 18.8431 5.65299C18.6461 5.30098 18.6566 5.04356 18.8358 4.6817C18.9304 4.49057 19.0251 4.2993 18.9853 4.07734C18.9679 3.98081 18.9609 3.85388 18.8739 3.78576C18.785 3.71612 18.6516 3.70532 18.5435 3.66929C18.3888 3.61779 18.2316 3.56542 18.0895 3.49119C18.1055 3.67774 18.1538 3.85919 18.2019 4.04036C18.2821 4.34178 18.4541 4.8989 18.2285 5.1793C18.0989 5.34033 17.9306 5.41604 17.7528 5.49603C17.5112 5.60472 17.2727 5.66201 17.0171 5.71857C17.1286 5.90507 17.3456 5.84018 17.5277 5.92768C17.9319 6.12197 18.1617 6.53528 17.967 6.93776C17.9642 6.94349 17.9613 6.94947 17.9585 6.95564C17.9091 7.05831 17.8344 7.21434 17.7061 7.23263C17.5682 7.25231 17.3999 7.11634 17.2723 7.07526C17.0516 7.00415 16.7793 7.01651 16.5574 7.07843C16.7961 7.12364 17.0227 7.18115 17.2469 7.26952C17.4326 7.3428 17.6251 7.45398 17.8342 7.45162C17.9983 7.44977 18.2577 7.11572 18.3852 7.18985C18.4617 7.23432 18.4736 7.3562 18.4698 7.43012C18.4584 7.65264 18.3143 7.86642 18.0895 7.9569C17.6394 8.13801 17.3628 7.90241 16.966 7.78181C16.9655 7.92981 16.9429 8.30081 16.6878 8.26416C16.5936 8.25064 16.5706 8.14728 16.5501 8.05505C16.5034 7.84545 16.3273 7.74398 16.1233 7.70372C15.7838 7.63667 15.2387 7.6549 14.9242 7.80592C14.7179 7.90497 14.6116 8.15423 14.4896 8.33775C14.3761 8.50854 14.2479 8.70148 14.2051 8.88377C14.1658 9.05141 14.1904 9.33085 14.2491 9.49337C14.3332 9.72662 14.5816 9.90923 14.8466 9.94126C14.9745 9.95672 15.222 9.88124 15.297 10.0126C15.4133 10.2164 15.1355 10.4931 14.9487 10.5587C14.8456 10.5949 14.7405 10.5939 14.6423 10.6423C14.8648 10.726 15.1625 10.8353 15.4083 10.7727C15.5439 10.7381 15.6128 10.4966 15.7632 10.5405C16.2612 10.6857 15.8238 11.5767 15.5105 11.6973C15.7948 12.0375 16.3749 12.0713 16.7358 11.8168C17.1442 11.5288 16.9732 11.2357 16.7208 10.9075C16.5011 10.6217 16.2687 10.3195 16.5455 9.98573C17.0534 9.37344 17.7098 8.89444 18.2307 8.28768C18.3731 8.12195 18.6325 7.81994 18.7789 8.08661C19.0227 7.8628 19.2297 7.63286 19.4058 7.35978C19.4976 7.21737 19.5538 7.01362 19.6862 6.89843C19.7742 6.82174 19.8527 6.87958 19.928 6.93776C20.6165 6.03665 21.3294 5.12889 21.8211 4.10079C21.8557 4.0283 21.8847 3.90459 21.9742 3.87198C22.2389 3.77536 22.5958 4.27263 22.6139 4.47592C22.6421 4.79416 22.6398 5.17767 22.5396 5.4841C22.4567 5.73765 22.3145 5.97416 22.1742 6.20757C22.1311 6.27918 22.0883 6.35051 22.0474 6.42195C22.3159 6.26838 22.7534 5.71326 23.0687 5.73671C23.2819 5.75256 23.329 6.08463 23.3453 6.23438C23.4046 6.7784 23.0794 7.27062 22.7368 7.68803C22.9583 7.66176 23.4876 7.46878 23.6917 7.61835C24.0287 7.86538 23.0804 8.8261 22.941 8.95412C23.2086 8.95409 23.7782 8.78501 23.9617 8.99495C24.0689 9.11747 23.925 9.31234 23.849 9.41512L23.8431 9.42303C23.5832 9.77564 23.2184 9.9896 22.8389 10.2202C23.0742 10.2202 23.7026 10.1715 23.8592 10.4157C23.9399 10.5416 23.7955 10.7325 23.7212 10.8298C23.4539 11.1802 23.1094 11.3067 22.6858 11.4394C22.8887 11.4843 23.621 11.6313 23.6372 11.9326C23.6583 12.3239 22.7794 12.4993 22.5325 12.5414C22.705 12.6784 23.1822 12.9057 23.1869 13.1722C23.1913 13.4218 22.4344 13.5199 22.2772 13.5261C22.4416 13.6816 22.5994 14.1418 22.4551 14.3625C22.2585 14.6635 21.819 14.4813 21.5776 14.6696C21.3681 14.833 21.5993 15.1436 21.4809 15.3261C21.378 15.4846 20.8526 15.4675 20.6941 15.4214C20.5241 15.3721 20.3822 15.2091 20.2599 15.097C20.3293 15.2002 20.426 15.2991 20.4356 15.4252C20.4495 15.6076 20.2534 15.9923 20.0786 16.081C19.7178 16.264 19.318 16.004 19.0854 15.7534C19.0848 15.9567 18.8918 16.3677 18.6744 16.4423C18.5784 16.4753 18.4801 16.4311 18.3714 16.4098C17.9072 16.3192 17.8734 16.1566 17.6554 15.7769C17.6189 16.0347 17.2813 16.2753 16.9915 16.2679C16.8159 16.2634 16.479 16.1215 16.3867 15.9623C16.2 15.6399 16.4925 15.203 16.2759 14.893C16.1951 14.7777 15.7646 14.6116 15.6396 14.6732C15.3432 14.8196 15.4084 15.6687 15.4992 15.8942C15.5486 16.0165 15.703 16.1182 15.7234 16.2454C15.7413 16.3569 15.6021 16.3947 15.5105 16.4099C15.657 16.5184 15.8564 16.582 16.0467 16.5719C16.1499 16.5664 16.2727 16.5125 16.3749 16.5356C16.4998 16.5637 16.4677 16.7797 16.678 16.8193C17.1582 16.9095 17.509 17.3819 17.472 17.8636C17.4592 18.029 17.4062 18.2143 17.429 18.3794C17.4481 18.5179 17.5696 18.584 17.7065 18.6135C17.7196 18.6163 17.7354 18.6185 17.7523 18.6209C17.8162 18.6302 17.8971 18.6418 17.9181 18.6944C17.9569 18.7909 17.8188 18.9269 17.7552 18.9886C17.4974 19.2385 17.107 19.1696 16.8127 19.0125C16.8247 19.1384 16.9571 19.3349 16.9168 19.4525C16.8957 19.5141 16.822 19.5241 16.7616 19.5272C16.5863 19.5365 16.4765 19.4715 16.3531 19.3641C16.3091 19.4741 16.2412 19.4824 16.1233 19.4579C16.332 19.7812 16.6939 19.8911 17.0611 20.0027C17.3513 20.0908 17.6009 20.2082 17.9107 20.2082C18.1301 20.2082 18.383 20.2532 18.5286 20.0666C18.6587 19.8999 18.3456 19.6075 18.3469 19.3876C18.3486 19.079 18.5537 18.6232 18.7305 18.3794C18.936 18.0962 19.2744 17.9307 19.6215 17.8401C19.5506 17.7188 19.5588 17.6015 19.568 17.4681L19.5682 17.465C19.5709 17.4271 19.568 17.3821 19.5649 17.3347C19.5577 17.2233 19.5496 17.099 19.6114 17.023C19.7047 16.9085 19.9205 16.9517 20.0557 16.9489C20.1944 16.946 20.3901 16.9084 20.5115 16.99C20.6121 17.0577 20.5895 17.1773 20.5923 17.2774C20.5936 17.3273 20.599 17.3759 20.6043 17.4231C20.6211 17.573 20.6365 17.71 20.5153 17.8401C21.1601 17.9457 21.5469 18.5344 21.7098 19.0593C21.744 19.1697 21.8533 19.2685 21.8368 19.3876C21.8147 19.5477 21.6972 19.6909 21.5942 19.8164C21.5093 19.9196 21.4659 20.0365 21.3854 20.1379C21.2482 20.3104 21.0866 20.5821 20.918 20.7075C20.7228 20.8528 20.3607 21.0491 20.1322 21.0963C19.9751 21.1287 19.7931 21.0767 19.6471 21.1153C19.4203 21.1753 19.304 21.3589 19.0342 21.3293C18.7979 21.3033 18.576 21.1765 18.366 21.079C18.1574 20.9822 17.9485 20.8852 17.732 20.8049C17.4167 20.6881 17.0578 20.6746 16.7296 20.606C16.548 20.5681 16.3669 20.5337 16.1783 20.5042C15.9469 20.4681 15.6983 20.4401 15.5156 20.3428C15.3844 20.273 15.2704 20.2769 15.1256 20.2907C14.9525 20.3073 14.7536 20.3264 14.6554 20.2413C14.4943 20.1016 14.7207 19.7132 14.7445 19.5517C14.4694 19.5517 14.1392 19.5311 13.9717 19.2934C13.9148 19.2127 13.8582 19.0168 13.9462 18.9388C14.0091 18.8833 14.1165 18.8933 14.2012 18.9014C14.3602 18.9163 14.5673 18.9043 14.6355 18.731C14.6885 18.5961 14.6163 18.4624 14.5267 18.356C14.3275 18.1193 13.9165 18.0364 13.6209 18.1787C13.3065 18.3303 12.9715 18.8684 13.186 19.1765C13.3309 19.3846 13.594 19.487 13.7694 19.669C13.9106 19.8157 13.8862 20.0201 14.012 20.1589C14.1998 20.3659 14.5352 20.4943 14.77 20.638C14.9329 20.738 15.0898 20.8457 15.2552 20.9422C15.2589 20.9444 15.2626 20.9465 15.2663 20.9487C15.3488 20.9969 15.4469 21.0543 15.5469 21.0538C15.8597 21.052 15.5966 20.6587 15.7445 20.5975C16.0085 20.4883 16.356 20.7616 16.4575 20.9584C16.5498 21.1375 16.5563 21.3101 16.4951 21.4977C16.4707 21.5726 16.4037 21.6544 16.3995 21.7322C16.3902 21.9017 16.6401 22.0336 16.6572 22.2245C16.6741 22.4138 16.6575 22.6111 16.5771 22.7872C16.5064 22.9419 16.3765 23.0615 16.3649 23.2353C16.3589 23.323 16.3518 23.4285 16.2727 23.4289C16.0543 23.4301 15.8852 23.0756 15.7913 22.928C15.4545 23.8771 14.8804 23.3563 14.2895 23.4644C13.8729 23.5406 13.7541 24.1467 13.1613 24.0698C12.9642 24.0442 12.7891 23.9602 12.5995 23.9127C12.5024 24.1126 12.2191 24.4709 11.9612 24.4702C11.6418 24.4697 11.5586 24.0057 11.2717 23.9545C10.9613 23.8989 10.6751 24.1586 10.327 24.0403C10.0407 23.9431 9.87723 23.5449 9.6322 23.4777C9.50053 23.4416 9.28883 23.6263 9.15236 23.6471C8.61971 23.7289 8.39496 23.383 8.15652 22.9983C8.08404 23.1286 7.81341 23.5078 7.62307 23.4711C7.46822 23.4413 7.52437 23.1849 7.46765 23.0792C7.28044 22.7308 7.04025 22.2837 7.3931 21.9442C7.44604 21.8933 7.50201 21.8581 7.56923 21.826C7.49894 21.728 7.40891 21.6383 7.37853 21.5212C7.27581 21.1252 7.54928 20.6714 8.0033 20.5966C8.19822 20.5646 8.20551 20.6857 8.21296 20.8094C8.21991 20.9247 8.227 21.0423 8.38635 21.0405C8.61252 21.0379 8.88332 20.7878 9.07114 20.6681C9.30966 20.5161 9.66604 20.3951 9.85419 20.1805C9.98139 20.0354 9.97587 19.8385 10.125 19.6928C10.3126 19.5097 10.6467 19.3915 10.7587 19.1531C10.9031 18.8464 10.5971 18.3877 10.3525 18.2305C10.1026 18.0699 9.67444 18.0451 9.44164 18.2479C9.33842 18.3379 9.2724 18.4634 9.24258 18.5905C9.17522 18.8775 9.53855 18.932 9.76516 18.9412C9.82996 18.9439 9.94899 18.9229 9.99327 18.9797C10.0419 19.0421 9.97863 19.1501 9.94227 19.2122C9.93999 19.2161 9.93771 19.2199 9.93567 19.2235C9.80235 19.4536 9.61156 19.5464 9.33111 19.5517C9.39896 19.7486 9.66208 20.0018 9.44872 20.1989C9.328 20.3105 9.14304 20.3066 8.97845 20.3031C8.57867 20.2947 8.17075 20.2779 7.7735 20.3303C7.4851 20.3685 7.0857 20.4701 6.83108 20.6265C6.49638 20.8322 6.21656 21.0697 5.83286 21.2164C5.89435 21.352 6.01086 21.4912 6.03132 21.6385C6.05272 21.7923 5.99473 21.9469 6.01557 22.1073C6.03724 22.2743 6.02386 22.4918 5.7818 22.5013C5.15988 22.5257 5.20579 22.0039 4.90292 21.718C4.75142 21.5751 4.53631 21.6001 4.40812 21.406C4.30965 21.2569 4.11216 21.218 4.02438 21.0735C3.9584 20.9649 3.95527 20.8285 3.88596 20.7152C3.754 20.4995 3.81522 20.3362 3.97191 20.1587C4.066 20.0522 4.15763 19.9484 4.11306 19.8097C4.06564 19.6621 3.94417 19.571 3.88554 19.4345C3.79579 19.2254 3.77038 18.976 3.6544 18.7829C3.58712 18.6709 3.4866 18.6003 3.4343 18.4732C3.37339 18.3253 3.44683 18.1911 3.39482 18.0512C3.04345 17.1058 2.57121 16.1447 2.0923 15.2612C1.79052 14.7044 1.01 14.4699 0.649471 13.9246C0.534093 13.7501 0.547197 13.5113 0.547197 13.315C0.676615 13.3211 0.785224 13.3663 0.904682 13.4089C0.796492 12.9118 1.08069 12.8981 1.44091 12.5883C1.24331 12.5463 0.243879 12.287 0.29339 11.9561C0.336481 11.6683 1.05222 11.4988 1.26217 11.4159C1.04161 11.3887 -0.275446 10.8169 0.0520153 10.4155C0.270183 10.1481 0.738065 10.2745 1.03236 10.1733C0.665059 10.0496 0.310142 9.70125 0.111234 9.39958C0.0493513 9.30573 -0.0555266 9.1002 0.0372195 8.99495C0.195292 8.81558 0.863091 8.94435 1.05789 8.97757C1.00476 8.92877 0.947977 8.87998 0.890294 8.8304C0.68391 8.65304 -0.0717501 7.91598 0.310802 7.59279C0.502246 7.43111 0.982224 7.60529 1.18556 7.68803C1.14704 7.63122 1.10581 7.57637 1.06461 7.52154C0.801016 7.1708 0.237207 5.65538 0.981288 5.74557C1.14662 5.7656 1.29231 5.92911 1.41612 6.0319C1.53134 6.12755 1.64724 6.22377 1.77286 6.30471C1.46117 5.81436 1.18375 4.98609 1.43108 4.40559C1.51195 4.21577 1.75784 3.77102 2.05098 3.88049C2.26136 3.95906 2.40354 4.46238 2.51337 4.64004C2.98437 5.40195 3.65249 6.08472 3.99438 6.91431L4.27526 6.82053C4.53446 7.2241 4.74127 7.73153 5.14573 8.00933C5.2663 8.09219 5.38629 7.94094 5.50944 8.04717C6.07056 8.53114 7.11799 9.4121 7.45266 10.0561C7.62115 10.3803 7.44695 10.7128 7.20298 10.9301C6.40055 11.6447 7.83352 12.2864 8.46293 11.7676C7.9503 11.545 7.85728 11.0521 8.13098 10.5719C8.30156 10.6021 8.42736 10.7192 8.59061 10.7689C8.70836 10.8046 9.22897 10.8184 9.22897 10.6423C8.95471 10.5839 8.73301 10.4818 8.6526 10.2202C8.65088 10.2146 8.64906 10.2088 8.64716 10.2028C8.55778 9.91853 8.76895 9.91867 9.00419 9.96148C9.63124 10.0756 9.83596 9.3106 9.73252 8.83688C9.6814 8.60227 9.47443 8.33362 9.32495 8.13956L9.32028 8.1335C9.23921 8.02826 9.16072 7.87194 9.04553 7.79595C8.86654 7.6779 8.33821 7.63619 8.13098 7.62648C7.91718 7.61648 7.61215 7.68142 7.48567 7.85309C7.41058 7.95498 7.45081 8.23014 7.28683 8.24625C6.92523 8.28176 6.95 7.84542 7.08406 7.66458C7.00724 7.6981 6.93728 7.74472 6.86735 7.79133C6.76746 7.85789 6.66762 7.92444 6.54783 7.95278C6.19275 8.03674 5.6924 7.97676 5.55121 7.61769C5.49788 7.48203 5.524 7.31057 5.55198 7.17221C5.7713 7.24068 5.89027 7.41674 6.13929 7.44236C6.34313 7.46333 6.57525 7.3684 6.78546 7.28242C6.97777 7.20377 7.14296 7.15752 7.31832 7.12871C7.40266 7.11484 7.48681 7.10102 7.56923 7.07843C7.48902 7.07261 7.40963 7.06106 7.33059 7.04955C7.14643 7.02275 6.9641 6.99622 6.77765 7.04303C6.6131 7.08431 6.41145 7.27857 6.24142 7.25601C6.11475 7.23922 6.02913 7.1056 5.98301 7.00809C5.85352 6.73438 5.88914 6.37533 6.10172 6.14277C6.22842 6.00418 6.43898 5.94479 6.62444 5.90376C6.65031 5.89804 6.67571 5.89378 6.7002 5.88966C6.80524 5.87204 6.8936 5.8572 6.93085 5.742C6.74369 5.71887 6.54459 5.67924 6.36909 5.61416C6.23014 5.56263 6.10382 5.49356 5.98607 5.40881C5.88343 5.33494 5.77861 5.25891 5.70887 5.15586C5.51195 4.86486 5.60971 4.54928 5.70785 4.23249C5.78033 3.99854 5.853 3.76392 5.80733 3.53808C5.75231 3.55912 5.69826 3.58193 5.64424 3.60473C5.481 3.67361 5.24121 3.69438 5.09948 3.79264C4.85075 3.96507 5.00837 4.4041 5.10604 4.60558C5.28289 4.97045 5.27502 5.3587 5.0394 5.70468C4.85889 5.96975 4.92245 6.15063 5.01576 6.42195C4.7137 6.498 4.39547 6.21798 4.35993 5.95302C4.33772 5.78752 4.41786 5.60147 4.50506 5.46065C4.2705 5.52893 3.99997 5.529 3.76456 5.46065C3.7164 5.651 3.57328 5.72658 3.43248 5.52999C3.3435 5.40576 3.32166 5.19768 3.39618 5.0631C3.53305 4.8157 3.98616 5.07365 4.06316 4.87103C4.10572 4.75899 3.88399 4.58139 3.81969 4.49937C3.68888 4.33253 3.64751 4.11207 3.71489 3.91322C3.85812 3.49054 4.35492 3.52584 4.70935 3.35462C4.97737 3.22512 5.07942 2.93787 5.32218 2.77932C5.71441 2.52316 6.29461 2.8656 6.59842 3.10352C6.75343 3.2249 6.77826 3.38357 6.77763 3.56153C6.77689 3.77052 6.70554 3.9754 6.63458 4.17918C6.59191 4.30172 6.54937 4.42385 6.5224 4.54626C6.45489 4.85272 6.51375 5.12224 6.87978 5.20835C7.0109 5.2392 7.15405 5.2262 7.28833 5.2262C7.09009 4.95615 6.86786 4.60546 6.93954 4.26491C7.00288 3.96393 7.56397 3.79528 7.84911 3.80343C7.91455 3.8053 7.97086 3.84251 8.02884 3.86633C7.9089 3.69705 7.87326 3.43541 7.87612 3.23328C7.87711 3.16173 7.88151 3.06879 7.93027 3.009C8.00514 2.91717 8.33733 2.92995 8.46255 2.93196C8.77654 2.93708 8.54914 3.61427 8.53954 3.81944C8.78688 3.8196 9.08847 3.85451 9.30555 3.98285C9.85719 4.30901 9.38595 4.99938 9.15236 5.36687C9.32176 5.27834 9.49729 5.19976 9.67288 5.12116C9.89487 5.02178 10.117 4.92234 10.327 4.80267C10.3435 4.7932 10.3613 4.7834 10.3797 4.77321C10.5133 4.69907 10.683 4.60506 10.7346 4.47557C10.8221 4.25597 10.6863 3.99959 10.5819 3.8027C10.3144 3.29784 9.91503 2.47946 10.5823 2.09894C10.7615 1.99672 10.9522 1.94156 11.1443 1.87284C11.252 1.83432 11.378 1.7893 11.4713 1.82139C11.541 1.84538 11.5888 1.91128 11.6548 1.94375ZM10.2249 5.46065C10.4309 5.53932 10.695 5.46065 10.9143 5.46065C10.8605 5.66818 10.6408 5.79891 10.4547 5.90613C10.5688 5.95012 10.7147 5.92958 10.8377 5.92958C10.7731 6.14045 10.5119 6.23922 10.327 6.3516C10.6911 6.71348 11.1994 6.53217 11.5418 6.77429C11.7509 6.92206 11.155 7.07391 11.093 7.07843C11.4271 7.73471 11.7946 8.28306 11.9612 9.02445C12.0002 8.27021 12.6002 7.67021 12.8549 7.05498C12.6356 7.01762 12.2546 7.06637 12.2676 6.77363C12.7259 6.74042 13.2576 6.66796 13.5954 6.3516C13.4743 6.2989 13.0555 6.17637 13.1402 6.00737C13.1868 5.91465 13.4292 5.95302 13.5188 5.95302C13.3195 5.7935 13.1022 5.69134 12.9825 5.46065C13.2228 5.40814 13.482 5.47958 13.723 5.50755C13.4286 5.23426 12.9132 4.94356 12.5485 4.80262C12.2671 4.6939 11.6885 4.68488 11.3994 4.78148C10.9907 4.91799 10.6183 5.27034 10.2249 5.46065ZM6.34356 15.4721C6.17447 15.706 6.17911 16.0742 5.93389 16.2601C5.81414 16.3508 5.44296 16.4902 5.28847 16.4224C5.04354 16.3149 4.91831 15.8939 4.93915 15.6597C4.78809 15.7682 4.71553 16.0033 4.53022 16.0676C4.38653 16.1175 4.02895 16.1057 3.90064 16.0174C3.54351 15.7717 3.56011 15.3759 3.7881 15.0764C3.83815 15.0107 3.88684 14.9468 3.91777 14.8859C3.82638 14.9451 3.74442 15.0262 3.66177 15.1081C3.35311 15.4136 3.13494 15.4252 2.71764 15.4252C2.90775 16.0311 3.31976 16.6147 3.61535 17.1731C3.73881 17.4064 3.83563 17.6644 3.98234 17.8839C4.04029 17.9707 4.1625 17.9815 4.21106 18.0759C4.27406 18.1984 4.23664 18.3479 4.29029 18.4732C4.33975 18.5888 4.47024 18.652 4.54074 18.7545C4.66224 18.9313 4.67622 19.3461 4.84708 19.4593C4.94393 19.5235 5.05499 19.4944 5.16618 19.4653C5.42813 19.3967 5.5707 19.4915 5.69993 19.7245C5.76171 19.8359 5.82436 19.9489 5.96056 20.0091C6.33482 20.1743 7.54445 19.9413 7.82385 19.5833C7.86041 19.5365 7.8499 19.4653 7.8501 19.411C7.72787 19.4323 7.61563 19.4282 7.49262 19.4391C7.3974 19.4476 7.30609 19.4957 7.21174 19.5124C7.14399 19.5245 7.04829 19.5296 7.02165 19.4545C6.98042 19.3379 7.1287 19.1416 7.13513 19.0125C7.0594 19.0185 6.98265 19.0299 6.90603 19.0412C6.56189 19.0921 6.14319 19.0933 6.01161 18.7077C6.15744 18.6652 6.41508 18.6707 6.50461 18.541C6.66867 18.3033 6.42109 17.786 6.51303 17.4885C6.63591 17.0911 7.0789 16.8025 7.51815 16.7851C7.50697 16.7055 7.48897 16.6283 7.46708 16.5506C7.57904 16.5305 7.69789 16.5423 7.81563 16.5539C8.03561 16.5758 8.25171 16.5971 8.41186 16.4099C8.17812 16.3765 8.26775 16.2214 8.34807 16.0826C8.37243 16.0405 8.39592 15.9998 8.40928 15.9645C8.49552 15.7365 8.60965 14.8036 8.28143 14.6717C8.1224 14.6078 7.77547 14.8336 7.67948 14.9679C7.48468 15.2404 7.75851 15.7106 7.52484 16.0083C7.42586 16.1343 7.09417 16.2533 6.93086 16.2566C6.49867 16.265 6.34362 15.8349 6.34356 15.4721Z"
          fill="url(#paint0_linear_3207_4920)"/>
  </g>
  <defs>
    <linearGradient id="paint0_linear_3207_4920" x1="0" y1="12.4702" x2="24" y2="12.4702"
                    gradientUnits="userSpaceOnUse">
      <stop stop-color="#24348B"/>
      <stop offset="0.5" stop-color="#2F7D58"/>
      <stop offset="1" stop-color="#5EB12E"/>
    </linearGradient>
    <clipPath id="clip0_3207_4920">
      <rect width="24" height="24" fill="white" transform="translate(0 0.470215)"/>
    </clipPath>
  </defs>
</svg>
