<svg width="24" height="25" viewBox="0 0 24 25" fill="none" xmlns="http://www.w3.org/2000/svg">
  <path
    d="M14 13.5046H19V11.5041H14V13.5046ZM14 10.5038H19V8.50333H14V10.5038ZM5 16.5054H13V15.9552C13 15.205 12.6333 14.6092 11.9 14.1678C11.1667 13.7263 10.2 13.5053 9 13.5046C7.8 13.5039 6.83333 13.725 6.1 14.1678C5.36667 14.6105 5 15.2064 5 15.9552V16.5054ZM9 12.5043C9.55 12.5043 10.021 12.3086 10.413 11.9172C10.805 11.5258 11.0007 11.0546 11 10.5038C10.9993 9.95303 10.8037 9.48224 10.413 9.09148C10.0223 8.70071 9.55133 8.50466 9 8.50333C8.44867 8.502 7.978 8.69805 7.588 9.09148C7.198 9.48491 7.002 9.9557 7 10.5038C6.998 11.052 7.194 11.5231 7.588 11.9172C7.982 12.3113 8.45267 12.507 9 12.5043ZM4 20.5064C3.45 20.5064 2.97933 20.3106 2.588 19.9192C2.19667 19.5278 2.00067 19.0567 2 18.5059V6.50282C2 5.95269 2.196 5.4819 2.588 5.09047C2.98 4.69904 3.45067 4.50299 4 4.50232H20C20.55 4.50232 21.021 4.69837 21.413 5.09047C21.805 5.48257 22.0007 5.95335 22 6.50282V18.5059C22 19.056 21.8043 19.5271 21.413 19.9192C21.0217 20.3113 20.5507 20.507 20 20.5064H4Z"
    fill="#FF9900"/>
  <path
    d="M14 13.5046H19V11.5041H14V13.5046ZM14 10.5038H19V8.50333H14V10.5038ZM5 16.5054H13V15.9552C13 15.205 12.6333 14.6092 11.9 14.1678C11.1667 13.7263 10.2 13.5053 9 13.5046C7.8 13.5039 6.83333 13.725 6.1 14.1678C5.36667 14.6105 5 15.2064 5 15.9552V16.5054ZM9 12.5043C9.55 12.5043 10.021 12.3086 10.413 11.9172C10.805 11.5258 11.0007 11.0546 11 10.5038C10.9993 9.95303 10.8037 9.48224 10.413 9.09148C10.0223 8.70071 9.55133 8.50466 9 8.50333C8.44867 8.502 7.978 8.69805 7.588 9.09148C7.198 9.48491 7.002 9.9557 7 10.5038C6.998 11.052 7.194 11.5231 7.588 11.9172C7.982 12.3113 8.45267 12.507 9 12.5043ZM4 20.5064C3.45 20.5064 2.97933 20.3106 2.588 19.9192C2.19667 19.5278 2.00067 19.0567 2 18.5059V6.50282C2 5.95269 2.196 5.4819 2.588 5.09047C2.98 4.69904 3.45067 4.50299 4 4.50232H20C20.55 4.50232 21.021 4.69837 21.413 5.09047C21.805 5.48257 22.0007 5.95335 22 6.50282V18.5059C22 19.056 21.8043 19.5271 21.413 19.9192C21.0217 20.3113 20.5507 20.507 20 20.5064H4Z"
    fill="url(#paint0_linear_3202_4902)"/>
  <defs>
    <linearGradient id="paint0_linear_3202_4902" x1="2" y1="12.5043" x2="22" y2="12.5043"
                    gradientUnits="userSpaceOnUse">
      <stop stop-color="#24348B"/>
      <stop offset="0.5" stop-color="#2F7D58"/>
      <stop offset="1" stop-color="#5EB12E"/>
    </linearGradient>
  </defs>
</svg>
