<svg width="24" height="25" viewBox="0 0 24 25" fill="none" xmlns="http://www.w3.org/2000/svg">
  <path
    d="M18 21.5044V7.29387H20C20.55 7.29387 21.021 7.47955 21.413 7.85092C21.805 8.22229 22.0007 8.66818 22 9.1886V19.6097C22 20.1307 21.8043 20.5769 21.413 20.9483C21.0217 21.3197 20.5507 21.505 20 21.5044H18ZM10 7.29387H14V5.39913H10V7.29387ZM8 21.5044V5.39913C8 4.87808 8.196 4.43218 8.588 4.06145C8.98 3.69071 9.45067 3.50503 10 3.50439H14C14.55 3.50439 15.021 3.69008 15.413 4.06145C15.805 4.43282 16.0007 4.87871 16 5.39913V21.5044H8ZM4 21.5044C3.45 21.5044 2.97933 21.319 2.588 20.9483C2.19667 20.5776 2.00067 20.1313 2 19.6097V9.1886C2 8.66755 2.196 8.22166 2.588 7.85092C2.98 7.48018 3.45067 7.2945 4 7.29387H6V21.5044H4Z"
    fill="#FF9900"/>
  <path
    d="M18 21.5044V7.29387H20C20.55 7.29387 21.021 7.47955 21.413 7.85092C21.805 8.22229 22.0007 8.66818 22 9.1886V19.6097C22 20.1307 21.8043 20.5769 21.413 20.9483C21.0217 21.3197 20.5507 21.505 20 21.5044H18ZM10 7.29387H14V5.39913H10V7.29387ZM8 21.5044V5.39913C8 4.87808 8.196 4.43218 8.588 4.06145C8.98 3.69071 9.45067 3.50503 10 3.50439H14C14.55 3.50439 15.021 3.69008 15.413 4.06145C15.805 4.43282 16.0007 4.87871 16 5.39913V21.5044H8ZM4 21.5044C3.45 21.5044 2.97933 21.319 2.588 20.9483C2.19667 20.5776 2.00067 20.1313 2 19.6097V9.1886C2 8.66755 2.196 8.22166 2.588 7.85092C2.98 7.48018 3.45067 7.2945 4 7.29387H6V21.5044H4Z"
    fill="url(#paint0_linear_3202_4903)"/>
  <defs>
    <linearGradient id="paint0_linear_3202_4903" x1="2" y1="12.5044" x2="22" y2="12.5044"
                    gradientUnits="userSpaceOnUse">
      <stop stop-color="#24348B"/>
      <stop offset="0.5" stop-color="#2F7D58"/>
      <stop offset="1" stop-color="#5EB12E"/>
    </linearGradient>
  </defs>
</svg>
