<svg width="74" height="74" viewBox="0 0 74 74" fill="none" xmlns="http://www.w3.org/2000/svg">
  <path
    d="M44.8809 47.9405L43.478 49.4205C43.478 49.4205 40.1387 52.9324 31.0275 43.3401C21.9162 33.7479 25.2555 30.236 25.2555 30.236L26.1404 29.3017C28.3172 27.0077 28.5238 23.3262 26.6214 20.6375L22.7364 15.14C20.3807 11.81 15.8328 11.3721 13.1349 14.2119L8.29713 19.3025C6.96205 20.7116 6.06788 22.5338 6.1758 24.5596C6.4533 29.7395 8.66713 40.8796 21.0128 53.882C34.1077 67.6646 46.3948 68.2134 51.4176 67.717C53.0086 67.5628 54.3899 66.7025 55.503 65.5309L59.8813 60.9182C62.8413 57.8041 62.0088 52.4699 58.2225 50.2931L52.3333 46.9014C49.8481 45.4738 46.8234 45.8931 44.8809 47.9374"
    fill="url(#paint0_linear_362_4538)"/>
  <path
    d="M52.4164 36.9994C55.769 36.9988 59.03 35.9054 61.7053 33.8848C64.3805 31.8642 66.3242 29.0266 67.2418 25.802C68.1594 22.5774 68.0008 19.1416 66.79 16.0153C65.5793 12.8889 63.3825 10.2425 60.5324 8.47694C57.6824 6.71141 54.3345 5.92306 50.9961 6.23135C47.6577 6.53965 44.5108 7.92779 42.0323 10.1854C39.5538 12.443 37.8787 15.447 37.261 18.7422C36.6433 22.0374 37.1166 25.4442 38.6092 28.4462C38.8905 28.9915 38.964 29.6206 38.8158 30.216L37.8969 33.6478C37.806 33.9876 37.806 34.3453 37.8971 34.685C37.9882 35.0248 38.167 35.3346 38.4158 35.5833C38.6645 35.832 38.9743 36.0109 39.314 36.102C39.6538 36.193 40.0115 36.1931 40.3513 36.1021L43.783 35.1833C44.3785 35.0351 45.0075 35.1085 45.5529 35.3899C47.6857 36.4493 50.0349 37.0002 52.4164 36.9994Z"
    fill="url(#paint1_linear_362_4538)"/>
  <defs>
    <linearGradient id="paint0_linear_362_4538" x1="6.16699" y1="40.0824" x2="61.6674" y2="40.0824"
                    gradientUnits="userSpaceOnUse">
      <stop stop-color="#24348B"/>
      <stop offset="0.5" stop-color="#2F7D58"/>
      <stop offset="1" stop-color="#5EB12E"/>
    </linearGradient>
    <linearGradient id="paint1_linear_362_4538" x1="36.9971" y1="21.5827" x2="67.8304" y2="21.5827"
                    gradientUnits="userSpaceOnUse">
      <stop stop-color="#24348B"/>
      <stop offset="0.5" stop-color="#2F7D58"/>
      <stop offset="1" stop-color="#5EB12E"/>
    </linearGradient>
  </defs>
</svg>
