<svg width="24" height="25" viewBox="0 0 24 25" fill="none" xmlns="http://www.w3.org/2000/svg">
  <path
    d="M6.00079 2.50439C5.47036 2.50439 4.96165 2.71511 4.58658 3.09018C4.21151 3.46525 4.00079 3.97396 4.00079 4.50439V20.5044C4.00079 21.0348 4.21151 21.5435 4.58658 21.9186C4.96165 22.2937 5.47036 22.5044 6.00079 22.5044H18.0008C18.5312 22.5044 19.0399 22.2937 19.415 21.9186C19.7901 21.5435 20.0008 21.0348 20.0008 20.5044V4.50439C20.0008 3.97396 19.7901 3.46525 19.415 3.09018C19.0399 2.71511 18.5312 2.50439 18.0008 2.50439H6.00079ZM12.0008 5.50439C13.3269 5.50439 14.5986 6.03118 15.5363 6.96886C16.474 7.90654 17.0008 9.17831 17.0008 10.5044C17.0008 11.8305 16.474 13.1022 15.5363 14.0399C14.5986 14.9776 13.3269 15.5044 12.0008 15.5044C10.6747 15.5044 9.40294 14.9776 8.46526 14.0399C7.52758 13.1022 7.00079 11.8305 7.00079 10.5044C7.00079 9.17831 7.52758 7.90654 8.46526 6.96886C9.40294 6.03118 10.6747 5.50439 12.0008 5.50439ZM12.0008 6.5044C11.5908 7.1244 11.2508 7.7944 11.0408 8.5044H12.9608C12.746 7.79214 12.4222 7.11746 12.0008 6.5044ZM10.7008 6.72439C9.78079 7.03439 9.00079 7.6744 8.54079 8.5044H10.0008C10.1808 7.8844 10.4008 7.28439 10.7008 6.72439ZM13.2908 6.72439C13.5908 7.28439 13.8208 7.8844 14.0008 8.5044H15.4608C15.0008 7.6744 14.2108 7.04439 13.2908 6.72439ZM8.13079 9.5044C8.05079 9.8244 8.00079 10.1544 8.00079 10.5044C8.00079 10.8544 8.05079 11.1844 8.13079 11.5044H9.82079C9.78079 11.1744 9.75079 10.8444 9.75079 10.5044C9.75079 10.1644 9.78079 9.8344 9.82079 9.5044H8.13079ZM10.8308 9.5044C10.7808 9.8244 10.7508 10.1644 10.7508 10.5044C10.7508 10.8444 10.7808 11.1744 10.8308 11.5044H13.1708C13.2108 11.1744 13.2508 10.8444 13.2508 10.5044C13.2508 10.1644 13.2108 9.8244 13.1708 9.5044H10.8308ZM14.1808 9.5044C14.2208 9.8344 14.2508 10.1644 14.2508 10.5044C14.2508 10.8444 14.2208 11.1744 14.1808 11.5044H15.8708C15.9508 11.1844 16.0008 10.8544 16.0008 10.5044C16.0008 10.1544 15.9508 9.8244 15.8708 9.5044H14.1808ZM8.54079 12.5044C9.00079 13.3344 9.78079 13.9644 10.7008 14.2844C10.4008 13.7244 10.1808 13.1344 10.0008 12.5044H8.54079ZM11.0408 12.5044C11.2508 13.2244 11.5908 13.8844 12.0008 14.5044C12.4208 13.8844 12.7508 13.2244 12.9608 12.5044H11.0408ZM14.0008 12.5044C13.8208 13.1344 13.5908 13.7244 13.2908 14.2844C14.2108 13.9644 15.0008 13.3344 15.4608 12.5044H14.0008ZM7.00079 17.5044H17.0008V19.5044H7.00079V17.5044Z"
    fill="#FF9900"/>
  <path
    d="M6.00079 2.50439C5.47036 2.50439 4.96165 2.71511 4.58658 3.09018C4.21151 3.46525 4.00079 3.97396 4.00079 4.50439V20.5044C4.00079 21.0348 4.21151 21.5435 4.58658 21.9186C4.96165 22.2937 5.47036 22.5044 6.00079 22.5044H18.0008C18.5312 22.5044 19.0399 22.2937 19.415 21.9186C19.7901 21.5435 20.0008 21.0348 20.0008 20.5044V4.50439C20.0008 3.97396 19.7901 3.46525 19.415 3.09018C19.0399 2.71511 18.5312 2.50439 18.0008 2.50439H6.00079ZM12.0008 5.50439C13.3269 5.50439 14.5986 6.03118 15.5363 6.96886C16.474 7.90654 17.0008 9.17831 17.0008 10.5044C17.0008 11.8305 16.474 13.1022 15.5363 14.0399C14.5986 14.9776 13.3269 15.5044 12.0008 15.5044C10.6747 15.5044 9.40294 14.9776 8.46526 14.0399C7.52758 13.1022 7.00079 11.8305 7.00079 10.5044C7.00079 9.17831 7.52758 7.90654 8.46526 6.96886C9.40294 6.03118 10.6747 5.50439 12.0008 5.50439ZM12.0008 6.5044C11.5908 7.1244 11.2508 7.7944 11.0408 8.5044H12.9608C12.746 7.79214 12.4222 7.11746 12.0008 6.5044ZM10.7008 6.72439C9.78079 7.03439 9.00079 7.6744 8.54079 8.5044H10.0008C10.1808 7.8844 10.4008 7.28439 10.7008 6.72439ZM13.2908 6.72439C13.5908 7.28439 13.8208 7.8844 14.0008 8.5044H15.4608C15.0008 7.6744 14.2108 7.04439 13.2908 6.72439ZM8.13079 9.5044C8.05079 9.8244 8.00079 10.1544 8.00079 10.5044C8.00079 10.8544 8.05079 11.1844 8.13079 11.5044H9.82079C9.78079 11.1744 9.75079 10.8444 9.75079 10.5044C9.75079 10.1644 9.78079 9.8344 9.82079 9.5044H8.13079ZM10.8308 9.5044C10.7808 9.8244 10.7508 10.1644 10.7508 10.5044C10.7508 10.8444 10.7808 11.1744 10.8308 11.5044H13.1708C13.2108 11.1744 13.2508 10.8444 13.2508 10.5044C13.2508 10.1644 13.2108 9.8244 13.1708 9.5044H10.8308ZM14.1808 9.5044C14.2208 9.8344 14.2508 10.1644 14.2508 10.5044C14.2508 10.8444 14.2208 11.1744 14.1808 11.5044H15.8708C15.9508 11.1844 16.0008 10.8544 16.0008 10.5044C16.0008 10.1544 15.9508 9.8244 15.8708 9.5044H14.1808ZM8.54079 12.5044C9.00079 13.3344 9.78079 13.9644 10.7008 14.2844C10.4008 13.7244 10.1808 13.1344 10.0008 12.5044H8.54079ZM11.0408 12.5044C11.2508 13.2244 11.5908 13.8844 12.0008 14.5044C12.4208 13.8844 12.7508 13.2244 12.9608 12.5044H11.0408ZM14.0008 12.5044C13.8208 13.1344 13.5908 13.7244 13.2908 14.2844C14.2108 13.9644 15.0008 13.3344 15.4608 12.5044H14.0008ZM7.00079 17.5044H17.0008V19.5044H7.00079V17.5044Z"
    fill="url(#paint0_linear_3202_4889)"/>
  <defs>
    <linearGradient id="paint0_linear_3202_4889" x1="4.00079" y1="12.5044" x2="20.0008" y2="12.5044"
                    gradientUnits="userSpaceOnUse">
      <stop stop-color="#24348B"/>
      <stop offset="0.5" stop-color="#2F7D58"/>
      <stop offset="1" stop-color="#5EB12E"/>
    </linearGradient>
  </defs>
</svg>
