<svg width="24" height="25" viewBox="0 0 24 25" fill="none" xmlns="http://www.w3.org/2000/svg">
  <g clip-path="url(#clip0_3202_4892)">
    <path
      d="M6.20249 18.5044C5.04949 18.5044 3.89849 18.1514 2.92449 17.4584L0.849488 15.9824C0.401488 15.6644 0.0994883 15.1704 0.0214883 14.6294C-0.0525117 14.1204 0.0754883 13.6254 0.382488 13.2334C0.900488 12.5714 1.77149 12.3184 2.55149 12.6034L5.79849 13.7954L20.4535 6.73442C21.7055 6.15542 23.1905 6.70442 23.7685 7.95442C24.3465 9.20242 23.8065 10.6994 22.5655 11.2924L8.61649 17.9594C7.85149 18.3244 7.02749 18.5044 6.20249 18.5044ZM24.0005 23.5044C24.0005 22.9514 23.5525 22.5044 23.0005 22.5044H1.00049C0.448488 22.5044 0.000488281 22.9514 0.000488281 23.5044C0.000488281 24.0574 0.448488 24.5044 1.00049 24.5044H23.0005C23.5525 24.5044 24.0005 24.0574 24.0005 23.5044ZM8.61449 10.2194L14.0335 7.60842L8.18449 3.99642C7.45049 3.45142 6.47749 3.35142 5.64249 3.73642L4.86149 4.10342C4.40349 4.31842 4.08749 4.74642 4.01549 5.24742C3.94349 5.74942 4.12649 6.24842 4.50549 6.58442L8.61349 10.2204L8.61449 10.2194Z"
      fill="#FF9900"/>
    <path
      d="M6.20249 18.5044C5.04949 18.5044 3.89849 18.1514 2.92449 17.4584L0.849488 15.9824C0.401488 15.6644 0.0994883 15.1704 0.0214883 14.6294C-0.0525117 14.1204 0.0754883 13.6254 0.382488 13.2334C0.900488 12.5714 1.77149 12.3184 2.55149 12.6034L5.79849 13.7954L20.4535 6.73442C21.7055 6.15542 23.1905 6.70442 23.7685 7.95442C24.3465 9.20242 23.8065 10.6994 22.5655 11.2924L8.61649 17.9594C7.85149 18.3244 7.02749 18.5044 6.20249 18.5044ZM24.0005 23.5044C24.0005 22.9514 23.5525 22.5044 23.0005 22.5044H1.00049C0.448488 22.5044 0.000488281 22.9514 0.000488281 23.5044C0.000488281 24.0574 0.448488 24.5044 1.00049 24.5044H23.0005C23.5525 24.5044 24.0005 24.0574 24.0005 23.5044ZM8.61449 10.2194L14.0335 7.60842L8.18449 3.99642C7.45049 3.45142 6.47749 3.35142 5.64249 3.73642L4.86149 4.10342C4.40349 4.31842 4.08749 4.74642 4.01549 5.24742C3.94349 5.74942 4.12649 6.24842 4.50549 6.58442L8.61349 10.2204L8.61449 10.2194Z"
      fill="url(#paint0_linear_3202_4892)"/>
  </g>
  <defs>
    <linearGradient id="paint0_linear_3202_4892" x1="0.000488281" y1="14.0045" x2="24.0005" y2="14.0045"
                    gradientUnits="userSpaceOnUse">
      <stop stop-color="#24348B"/>
      <stop offset="0.5" stop-color="#2F7D58"/>
      <stop offset="1" stop-color="#5EB12E"/>
    </linearGradient>
    <clipPath id="clip0_3202_4892">
      <rect width="24" height="24" fill="white" transform="translate(0 0.504395)"/>
    </clipPath>
  </defs>
</svg>
