<svg width="273" height="100" viewBox="0 0 273 100" fill="none" xmlns="http://www.w3.org/2000/svg">
  <path
    d="M214.531 36.6226C214.531 34.7064 215.234 33.1273 216.642 31.9009V31.8549C218.049 30.6132 219.847 30 222.037 30C223.992 30 226.04 30.3219 228.198 30.9658V34.1851C225.54 33.158 223.554 32.6521 222.24 32.6521C221.005 32.6521 219.988 32.9741 219.175 33.6179C218.362 34.2618 217.955 35.0743 217.955 36.0554C217.955 36.8679 218.252 37.6038 218.847 38.2323C219.441 38.8608 220.536 39.6273 222.099 40.5012L223.913 41.513C226.103 42.7241 227.62 43.8738 228.48 44.9623C229.34 46.0354 229.778 47.3385 229.778 48.8561C229.778 51.0024 228.964 52.7347 227.354 54.0377C225.743 55.3408 223.601 56 220.926 56C219.206 56 217.033 55.6321 214.405 54.9116V51.4163C217.236 52.7193 219.597 53.3786 221.427 53.3786C222.834 53.3786 223.96 53.0106 224.82 52.2901C225.665 51.5696 226.103 50.6191 226.103 49.4387C226.103 48.4882 225.821 47.645 225.258 46.9705C224.695 46.296 223.663 45.5448 222.146 44.7017L220.41 43.7205C218.252 42.5094 216.736 41.375 215.86 40.3172C214.968 39.2594 214.531 38.033 214.531 36.6226Z"
    fill="white"/>
  <path fill-rule="evenodd" clip-rule="evenodd"
        d="M118.686 55.4175L128.694 30.6592H132.244L142.096 55.4175H138.233L135.481 48.5802H124.816L122.032 55.4175H118.686ZM134.433 45.9434L130.148 35.3042L125.848 45.9434H134.433Z"
        fill="white"/>
  <path d="M102 46.3266L108.74 53.7465L110.413 52.5047L105.347 46.3266L110.413 40.1486L108.74 38.9222L102 46.3266Z"
        fill="white"/>
  <path
    d="M108.74 46.3266L115.48 53.7465L117.153 52.5047L112.086 46.3266L117.153 40.1486L115.48 38.9222L108.74 46.3266Z"
    fill="white"/>
  <path
    d="M261.914 46.3266L256.847 40.1486L258.536 38.9222L265.26 46.3266L258.536 53.7465L256.847 52.5047L261.914 46.3266Z"
    fill="white"/>
  <path
    d="M263.587 40.1486L268.638 46.3266L263.587 52.5047L265.244 53.7465L272 46.3266L265.244 38.9222L263.587 40.1486Z"
    fill="white"/>
  <path d="M145.755 30.6592V55.4175H160.72V52.7807H149.367V30.6592H145.755Z" fill="white"/>
  <path d="M164.395 55.4175V30.6592H167.992V52.7807H179.345V55.4175H164.395Z" fill="white"/>
  <path d="M199.346 30.6592L191.793 50.9717L183.974 30.6592H180.393L189.932 55.4175H193.31L202.474 30.6592H199.346Z"
        fill="white"/>
  <path d="M209.448 55.4175H205.852V30.6592H209.448V55.4175Z" fill="white"/>
  <path fill-rule="evenodd" clip-rule="evenodd"
        d="M241.772 30.6592L231.764 55.4175H235.094L237.878 48.5802H248.543L251.295 55.4175H255.158L245.306 30.6592H241.772ZM243.226 35.3042L247.511 45.9434H238.926L243.226 35.3042Z"
        fill="white"/>
  <path
    d="M190.489 62.02H189.24C189.334 62.8927 189.709 63.588 190.317 64.1057C190.941 64.6234 191.706 64.8897 192.627 64.8897C193.548 64.8897 194.312 64.6234 194.937 64.1057C195.545 63.5732 195.92 62.8927 196.013 62.02H194.765C194.546 62.9963 193.829 63.4696 192.627 63.4696C191.425 63.4696 190.707 62.9815 190.489 62.02Z"
    fill="white"/>
  <path
    d="M186.931 66.0878V80.3916H189.069L196.341 69.0462V80.3916H198.495V66.0878H196.357L189.084 77.4332V66.0878H186.931Z"
    fill="white"/>
  <path d="M180.891 66.0878H183.045V80.3768H180.891V66.0878Z" fill="white"/>
  <path fill-rule="evenodd" clip-rule="evenodd"
        d="M170.154 66.0878V80.3916L170.17 80.362H172.901C174.992 80.362 176.49 80.0958 177.38 79.5633C178.691 78.7793 179.346 77.5959 179.346 75.9984C179.346 74.6523 178.769 73.6169 177.614 72.9217C177.13 72.6258 176.615 72.4335 176.069 72.3448C175.523 72.256 174.665 72.2117 173.463 72.2117H172.308V66.0878H170.154ZM173.042 78.8976H172.292V73.6909H173.338C174.696 73.6909 175.663 73.8831 176.272 74.2677C176.881 74.6523 177.177 75.2884 177.177 76.1463C177.177 77.0782 176.818 77.7882 176.1 78.2911C175.523 78.6905 174.508 78.8976 173.042 78.8976Z"
        fill="white"/>
  <path fill-rule="evenodd" clip-rule="evenodd"
        d="M158.154 80.3768V66.0878H162.055C163.569 66.0878 164.724 66.3541 165.519 66.9014C166.331 67.4339 166.721 68.2178 166.721 69.2385C166.721 70.0668 166.456 70.7917 165.925 71.4425C165.395 72.0786 164.63 72.5815 163.647 72.9365C166.097 73.6465 167.33 74.9334 167.33 76.812C167.33 77.6551 167.064 78.3947 166.518 79.0455C166.097 79.5485 165.598 79.8887 165.02 80.081C164.443 80.2881 163.631 80.3768 162.586 80.3768H158.154ZM160.292 72.3744H160.963C162.102 72.3744 162.976 72.1377 163.6 71.6791C164.224 71.2206 164.536 70.555 164.536 69.697C164.536 68.3066 163.397 67.6114 161.119 67.6114H160.292V72.3744ZM160.292 78.868H160.728C162.273 78.868 163.288 78.7793 163.74 78.587C164.614 78.232 165.051 77.5812 165.051 76.6197C165.051 75.7765 164.661 75.0665 163.865 74.5044C163.069 73.9423 162.086 73.6613 160.885 73.6613H160.292V78.868Z"
        fill="white"/>
  <path fill-rule="evenodd" clip-rule="evenodd"
        d="M142.985 78.7053C144.264 80.0662 145.981 80.7466 148.119 80.7466C150.257 80.7466 151.974 80.0662 153.253 78.7053C154.533 77.3445 155.173 75.525 155.173 73.2471C155.173 70.9691 154.533 69.1497 153.253 67.7889C151.974 66.428 150.257 65.7476 148.119 65.7476C145.981 65.7476 144.264 66.428 142.985 67.7889C141.705 69.1497 141.065 70.9691 141.065 73.2471C141.065 75.525 141.705 77.3445 142.985 78.7053ZM151.63 77.6403C150.788 78.6905 149.617 79.223 148.119 79.223C146.621 79.223 145.45 78.6905 144.608 77.6403C143.765 76.5901 143.344 75.0961 143.344 73.2323C143.344 71.3685 143.765 69.9041 144.608 68.8539C145.45 67.8037 146.621 67.2712 148.119 67.2712C149.617 67.2712 150.788 67.8037 151.63 68.8539C152.473 69.9041 152.894 71.3537 152.894 73.2323C152.894 75.1109 152.473 76.5901 151.63 77.6403Z"
        fill="white"/>
  <path
    d="M129.392 80.1549V78.3799C130.968 78.9272 132.341 79.1935 133.481 79.1935C134.511 79.1935 135.338 78.9568 135.946 78.4687C136.555 77.9805 136.867 77.3297 136.867 76.5161C136.867 75.5398 136.461 74.8003 135.665 74.2825C134.87 73.7796 133.683 73.5134 132.138 73.5134H131.826V72.0933H132.123C133.512 72.0933 134.604 71.8567 135.369 71.3833C136.134 70.91 136.524 70.2295 136.524 69.3716C136.524 67.996 135.478 67.3008 133.403 67.3008C132.326 67.3008 131.062 67.5374 129.657 68.0108V66.3689C130.952 65.9695 132.248 65.7772 133.527 65.7772C135.182 65.7772 136.461 66.073 137.366 66.6795C138.272 67.2712 138.724 68.1143 138.724 69.2089C138.724 70.8952 137.632 72.049 135.431 72.6554C136.602 72.8329 137.523 73.2619 138.178 73.8979C138.833 74.5488 139.161 75.3771 139.161 76.3534C139.161 77.6107 138.631 78.6609 137.554 79.5189C136.477 80.362 135.15 80.791 133.559 80.791C132.138 80.791 130.75 80.5839 129.423 80.1993L129.392 80.1549Z"
    fill="white"/>
  <path
    d="M115.222 66.0878V80.3916H117.36L124.632 69.0462V80.3916H126.786V66.0878H124.648L117.375 77.4332V66.0878H115.222Z"
    fill="white"/>
  <path fill-rule="evenodd" clip-rule="evenodd"
        d="M103.221 80.3916V66.0878H107.122C108.62 66.0878 109.775 66.3541 110.587 66.9014C111.398 67.4339 111.804 68.2178 111.804 69.2385C111.804 70.0668 111.539 70.7917 111.008 71.4425C110.478 72.0786 109.713 72.5815 108.73 72.9365C111.18 73.6465 112.413 74.9334 112.413 76.812C112.413 77.6551 112.147 78.3947 111.601 79.0455C111.18 79.5485 110.68 79.8887 110.103 80.081C109.526 80.2881 108.714 80.3768 107.668 80.3768H103.236L103.221 80.3916ZM106.03 72.3744C107.169 72.3744 108.043 72.1377 108.667 71.6791C109.291 71.2206 109.588 70.555 109.588 69.697C109.588 68.3066 108.449 67.6114 106.17 67.6114H105.343V72.3744H106.03ZM105.359 78.868H105.796C107.341 78.868 108.355 78.7793 108.808 78.587C109.682 78.232 110.119 77.5812 110.119 76.6197C110.119 75.7765 109.728 75.0665 108.933 74.5044C108.137 73.9423 107.153 73.6613 105.952 73.6613H105.359V78.868Z"
        fill="white"/>
  <path fill-rule="evenodd" clip-rule="evenodd"
        d="M263.829 80.059V66.4515H267.91C269.09 66.4515 269.99 66.5359 270.641 66.7189C271.278 66.8877 271.805 67.1973 272.209 67.6476C272.736 68.2245 273 69.0126 273 70.0257C273 71.4752 272.472 72.615 271.386 73.4311C270.316 74.2473 268.81 74.6695 266.902 74.6695H265.971V80.059H263.829ZM265.955 73.206H266.824C268.066 73.206 269.028 72.9386 269.71 72.418C270.393 71.8832 270.735 71.1374 270.735 70.1665C270.735 69.3503 270.471 68.7733 269.928 68.4216C269.385 68.0838 268.5 67.9009 267.259 67.9009H265.955V73.206Z"
        fill="white"/>
  <path d="M254.271 67.8868V80.0449H256.397V67.8868H261.719V66.4374H248.964V67.8868H254.271Z" fill="white"/>
  <path
    d="M235.464 80.0449V66.4515H237.605V72.1787H244.712V66.4515H246.854V80.0449H244.712V73.6282H237.605V80.0449H235.464Z"
    fill="white"/>
  <path
    d="M224.214 66.4515V80.059H233.028V78.6096H226.356V73.7126H231.585V72.2632H226.356V67.9009H232.593V66.4515H224.214Z"
    fill="white"/>
  <path
    d="M208.263 80.0449V66.4515H210.404V78.3563H217.511V66.4515H219.652V78.3563H221.654V83H219.652V80.0449H208.263Z"
    fill="white"/>
  <path fill-rule="evenodd" clip-rule="evenodd"
        d="M68.309 7.7713C69.0952 3.97154 69.9173 1.75292 70.9399 1.10541C71.0529 1.03514 71.1608 1 71.2584 1C72.6355 1 72.4094 7.69601 72.3478 8.3636C72.3478 8.3636 74.3055 9.79415 78.2261 12.6553C78.2261 12.6553 78.1028 13.9252 77.8561 16.4701C77.8561 16.4701 75.5798 15.2754 71.0221 12.8912C71.0426 12.7757 71.0323 12.7707 70.9964 12.8761C71.0067 12.8811 71.0169 12.8862 71.0221 12.8912C70.9655 13.2124 70.6983 14.4071 70.2205 16.4851C71.6489 18.0663 72.3632 18.8594 72.3632 18.8594C72.245 20.1945 72.1833 20.8571 72.1833 20.8571C71.0261 20.1127 69.9626 19.5365 68.4416 19.4116C69.2392 86.6379 -1.12697 100.57 0.0137206 59.8531C2.41334 73.9277 13.6921 76.051 25.3151 73.3404V73.3455C48.246 68.0001 65.9988 45.0891 68.4416 19.4116C67.4706 19.332 66.3125 19.4362 64.8252 19.798C64.8252 19.798 64.9639 19.1455 65.2363 17.8304L67.9801 16.1438C68.124 14.0256 68.2165 12.8008 68.2576 12.4796C63.2015 13.5086 60.6682 14.0206 60.6682 14.0206C61.1718 11.5158 61.4236 10.261 61.4236 10.261C66.0173 8.59951 68.309 7.7713 68.309 7.7713ZM68.2884 12.4796C68.2884 12.4796 68.273 12.4796 68.2576 12.4846C68.273 12.3692 68.2833 12.3641 68.2884 12.4796Z"
        fill="#1A1A18"/>
  <path
    d="M6.01904 48.0521C3.81981 45.5625 3.67594 41.3611 7.2317 35.6841L7.23684 35.6941C14.0914 24.7516 28.3915 18.4873 41.6383 18.4873C44.1612 18.4873 46.6482 18.7132 49.0324 19.18C44.0225 18.7232 38.8379 19.2101 33.905 20.5704C25.5449 22.8794 17.9093 27.7081 13.0792 34.7705C4.73958 46.9629 21.9172 50.9634 32.7797 37.2602C25.55 50.7225 10.844 53.5033 6.01904 48.0521Z"
    fill="#1A1A18"/>
  <path
    d="M18.1746 65.5862C7.12713 67.1121 -1.74171 61.4501 1.72156 47.8523C0.621945 72.8444 44.7709 55.4819 50.0018 29.9879C49.2105 52.3949 31.8376 63.7039 18.1746 65.5862Z"
    fill="#1A1A18"/>
  <path
    d="M32.8465 32.9903L28.8848 31.645L31.2895 34.9981L28.7563 38.2607L32.7642 37.0611L35.1639 40.4191L35.2358 36.3282L39.2437 35.1386L35.2769 33.8085L35.3643 29.7176L32.8465 32.9903Z"
    fill="#1A1A18"/>
  <path
    d="M74.7868 50.9578C72.1275 87.6707 24.1709 107.407 6.87438 81.5887C28.8057 99.9843 66.4503 80.7541 74.7652 50.9662L69.7514 52.9024L72.6854 48.425L69.2119 44.3341L74.4736 45.6743L77.3922 41.1869L77.7108 46.4925L82.9827 47.8126L77.9163 49.7501L78.2606 55.0507L74.8076 50.9498L74.7868 50.9578Z"
    fill="#1A1A18"/>
  <path
    d="M49.796 24.552L44.5292 23.2118L47.9976 27.3077L45.0636 31.78L50.1249 29.8224L53.5778 33.9284L53.2336 28.6278L58.3 26.6903L53.028 25.3701L52.7095 20.0645L49.796 24.552Z"
    fill="#1A1A18"/>
  <path
    d="M82.6979 67.7663C75.5823 97.4762 41.0412 107.696 20.2216 94.0266C43.6219 104.463 69.2196 91.6786 82.6868 67.7706L78.8003 69.2762L81.0612 65.8228L78.3841 62.6656L82.4434 63.6996L84.6889 60.2412L84.9355 64.327L89 65.346L85.0948 66.8418L85.362 70.9327L82.7003 67.7654L82.6979 67.7663Z"
    fill="#1A1A18"/>
  <path fill-rule="evenodd" clip-rule="evenodd"
        d="M68.3073 6.7713C69.0934 2.97154 69.9156 0.752924 70.9381 0.105409C71.0512 0.0351365 71.1591 0 71.2567 0C72.6338 0 72.4077 6.69601 72.346 7.3636C72.346 7.3636 74.3037 8.79415 78.2243 11.6553C78.2243 11.6553 78.101 12.9252 77.8544 15.4701C77.8544 15.4701 75.5781 14.2754 71.0203 11.8912C71.0409 11.7757 71.0306 11.7707 70.9946 11.8761C71.0049 11.8811 71.0152 11.8862 71.0203 11.8912C70.9638 12.2124 70.6966 13.4071 70.2187 15.4851C71.6472 17.0663 72.3614 17.8594 72.3614 17.8594C72.2433 19.1945 72.1816 19.8571 72.1816 19.8571C71.0248 19.113 69.9617 18.5369 68.4416 18.4118C69.2391 85.6379 -1.12697 99.57 0.0137206 58.8531C2.41334 72.9277 13.6921 75.051 25.3151 72.3404V72.3455C48.246 67.0001 65.9988 44.0892 68.4416 18.4118C67.4703 18.3319 66.3117 18.436 64.8234 18.798C64.8234 18.798 64.9622 18.1455 65.2345 16.8304L67.9784 15.1438C68.1223 13.0256 68.2148 11.8008 68.2559 11.4796C63.1997 12.5086 60.6665 13.0206 60.6665 13.0206C61.1701 10.5158 61.4218 9.26097 61.4218 9.26097C66.0155 7.59952 68.3073 6.7713 68.3073 6.7713ZM68.2867 11.4796C68.2867 11.4796 68.2713 11.4796 68.2559 11.4846C68.2713 11.3692 68.2816 11.3641 68.2867 11.4796Z"
        fill="white"/>
  <path
    d="M6.0161 47.0521C3.81687 44.5625 3.673 40.3611 7.22875 34.6841L7.23389 34.6941C14.0885 23.7516 28.3886 17.4873 41.6353 17.4873C44.1583 17.4873 46.6453 17.7132 49.0295 18.18C44.0196 17.7232 38.8349 18.2101 33.9021 19.5704C25.5419 21.8794 17.9063 26.7081 13.0762 33.7705C4.73664 45.9629 21.9142 49.9634 32.7768 36.2602C25.5471 49.7225 10.841 52.5033 6.0161 47.0521Z"
    fill="white"/>
  <path
    d="M18.1702 64.5847C7.12272 66.1056 -1.74613 60.4486 1.71714 46.8508C0.617529 71.8429 44.7665 54.4805 49.9974 28.9865C49.206 51.3935 31.8332 62.7024 18.1702 64.5847Z"
    fill="white"/>
  <path
    d="M32.8418 31.9888L28.8801 30.6436L31.2849 33.9966L28.7517 37.2593L32.7596 36.0596L35.1592 39.4227L35.2312 35.3268L39.2391 34.1371L35.2723 32.807L35.3596 28.7161L32.8418 31.9888Z"
    fill="white"/>
  <path
    d="M74.785 49.9585C72.1244 86.6703 24.169 106.406 6.87271 80.5877C28.8036 98.9829 66.4471 79.7539 74.763 49.967L69.7514 51.9024L72.6854 47.425L69.2119 43.3341L74.4736 44.6743L77.3922 40.1869L77.7108 45.4925L82.9827 46.8126L77.9163 48.7501L78.2606 54.0558L74.8076 49.9498L74.785 49.9585Z"
    fill="white"/>
  <path
    d="M49.7913 23.552L44.5245 22.2118L47.9929 26.3077L45.0589 30.78L50.1202 28.8275L53.5732 32.9284L53.2289 27.6278L58.2953 25.6903L53.0234 24.3701L52.7048 19.0645L49.7913 23.552Z"
    fill="white"/>
  <path
    d="M82.6994 66.7648C75.5847 96.4758 41.0427 106.696 20.2227 93.0266C43.6237 103.463 69.222 90.6779 82.689 66.7688L78.8003 68.2753L81.0612 64.8219L78.3841 61.6646L82.4434 62.6986L84.6889 59.2402L84.9355 63.3261L89 64.345L85.0948 65.8408L85.362 69.9317L82.7003 66.7644L82.6994 66.7648Z"
    fill="white"/>
</svg>
