<svg width="24" height="24" viewBox="0 0 24 24" fill="none" xmlns="http://www.w3.org/2000/svg">
  <g clip-path="url(#clip0_111_872)">
    <path
      d="M17.713 18.233C17.5269 18.0441 17.2734 17.9368 17.0083 17.9347C16.7431 17.9326 16.488 18.036 16.299 18.222L13.414 21.056C13.306 21.164 13.159 21.3 13 21.445V5C12.9984 3.67441 12.4711 2.40356 11.5338 1.46622C10.5964 0.528882 9.32559 0.00158786 8 0H1C0.734784 0 0.48043 0.105357 0.292893 0.292893C0.105357 0.48043 0 0.734784 0 1C0 1.26522 0.105357 1.51957 0.292893 1.70711C0.48043 1.89464 0.734784 2 1 2H8C8.79565 2 9.55871 2.31607 10.1213 2.87868C10.6839 3.44129 11 4.20435 11 5V21.445C10.84 21.299 10.692 21.161 10.58 21.05L7.7 18.222C7.60812 18.1225 7.49701 18.0428 7.37338 17.9876C7.24976 17.9323 7.11621 17.9028 6.98083 17.9007C6.84545 17.8986 6.71105 17.924 6.58579 17.9755C6.46054 18.0269 6.34702 18.1032 6.25213 18.1998C6.15724 18.2963 6.08295 18.4112 6.03377 18.5373C5.98459 18.6635 5.96154 18.7983 5.96601 18.9336C5.97049 19.069 6.0024 19.202 6.05981 19.3246C6.11722 19.4472 6.19894 19.5569 6.3 19.647L9.172 22.47C9.372 22.67 9.685 22.957 10.012 23.247C10.5606 23.7326 11.2679 24.0007 12.0005 24.0007C12.7331 24.0007 13.4404 23.7326 13.989 23.247C14.315 22.958 14.625 22.675 14.822 22.478L17.7 19.647C17.8892 19.4612 17.9969 19.2079 17.9993 18.9427C18.0017 18.6775 17.8988 18.4222 17.713 18.233Z"
      fill="black"/>
  </g>
  <defs>
    <clipPath id="clip0_111_872">
      <rect width="24" height="24" fill="white"/>
    </clipPath>
  </defs>
</svg>
