<svg width="24" height="24" viewBox="0 0 24 24" fill="none" xmlns="http://www.w3.org/2000/svg">
  <g clip-path="url(#clip0_3207_4923)">
    <path
      d="M2.424 24C1.752 24 1.18 23.764 0.708 23.292C0.236 22.82 0 22.2485 0 21.5775V5.229C0 4.937 0.0464999 4.662 0.1395 4.404C0.2325 4.146 0.3725 3.9085 0.5595 3.6915L2.8965 0.8865C3.1135 0.5935 3.385 0.3725 3.711 0.2235C4.037 0.0745003 4.3865 0 4.7595 0H19.1835C19.5555 0 19.9095 0.0745003 20.2455 0.2235C20.5815 0.3725 20.858 0.593 21.075 0.885L23.4405 3.75C23.6275 3.967 23.7675 4.2095 23.8605 4.4775C23.9535 4.7445 24 5.0245 24 5.3175V21.5775C24 22.2475 23.764 22.819 23.292 23.292C22.82 23.764 22.2485 24 21.5775 24H2.424ZM2.07 4.212H21.9L19.905 1.815C19.808 1.719 19.697 1.6425 19.572 1.5855C19.447 1.5285 19.317 1.5 19.182 1.5H4.788C4.654 1.5 4.524 1.529 4.398 1.587C4.272 1.645 4.162 1.722 4.068 1.818L2.07 4.212ZM16.4985 5.712H7.5V15.894L12 13.644L16.5 15.894L16.4985 5.712Z"
      fill="url(#paint0_linear_3207_4923)"/>
  </g>
  <defs>
    <linearGradient id="paint0_linear_3207_4923" x1="0" y1="12" x2="24" y2="12" gradientUnits="userSpaceOnUse">
      <stop stop-color="#24348B"/>
      <stop offset="0.5" stop-color="#2F7D58"/>
      <stop offset="1" stop-color="#5EB12E"/>
    </linearGradient>
    <clipPath id="clip0_3207_4923">
      <rect width="24" height="24" fill="white"/>
    </clipPath>
  </defs>
</svg>
