<svg width="33" height="32" viewBox="0 0 33 32" fill="none" xmlns="http://www.w3.org/2000/svg">
<g clip-path="url(#clip0_3231_6773)">
<path fill-rule="evenodd" clip-rule="evenodd" d="M16.25 3.3219e-06C15.738 -0.000797134 15.236 0.143078 14.8009 0.415348L1.29229 9.34526C0.332286 9.98443 0.0397143 11.0851 0.41 12.0242C0.766571 12.9288 1.66714 13.5402 2.74143 13.5402H29.7586C30.8329 13.5402 31.7334 12.9288 32.09 12.0242C32.4603 11.0851 32.1677 9.98443 31.21 9.34757L31.2077 9.34526L17.6991 0.415348C17.264 0.143078 16.762 -0.000797134 16.25 3.3219e-06ZM0.25 27.2535C0.25 25.8691 1.55743 25.2022 2.53571 25.2022H2.66143L2.65457 25.0776V17.6683C2.65457 17.3623 2.77498 17.0689 2.98931 16.8525C3.20363 16.6361 3.49432 16.5146 3.79743 16.5146H7.60086C7.90396 16.5146 8.19465 16.6361 8.40898 16.8525C8.62331 17.0689 8.74371 17.3623 8.74371 17.6683V25.0776L8.73686 25.2022H13.2123L13.2054 25.0776V17.6683C13.2054 17.3623 13.3258 17.0689 13.5402 16.8525C13.7545 16.6361 14.0452 16.5146 14.3483 16.5146H18.1517C18.3018 16.5146 18.4504 16.5444 18.5891 16.6024C18.7277 16.6604 18.8537 16.7454 18.9598 16.8525C19.066 16.9596 19.1501 17.0868 19.2076 17.2268C19.265 17.3668 19.2946 17.5168 19.2946 17.6683V25.0776L19.2877 25.2022H23.7631L23.7563 25.0776V17.6683C23.7563 17.3623 23.8767 17.0689 24.091 16.8525C24.3053 16.6361 24.596 16.5146 24.8991 16.5146H28.7026C29.0057 16.5146 29.2964 16.6361 29.5107 16.8525C29.725 17.0689 29.8454 17.3623 29.8454 17.6683V25.0776L29.8386 25.2022H29.9643C30.9426 25.2022 32.25 25.8691 32.25 27.2558V29.9487C32.25 31.3331 30.9426 32 29.9643 32H2.53571C1.55743 32 0.25 31.3331 0.25 29.9464V27.2535Z" fill="black"/>
<path fill-rule="evenodd" clip-rule="evenodd" d="M16.25 3.3219e-06C15.738 -0.000797134 15.236 0.143078 14.8009 0.415348L1.29229 9.34526C0.332286 9.98443 0.0397143 11.0851 0.41 12.0242C0.766571 12.9288 1.66714 13.5402 2.74143 13.5402H29.7586C30.8329 13.5402 31.7334 12.9288 32.09 12.0242C32.4603 11.0851 32.1677 9.98443 31.21 9.34757L31.2077 9.34526L17.6991 0.415348C17.264 0.143078 16.762 -0.000797134 16.25 3.3219e-06ZM0.25 27.2535C0.25 25.8691 1.55743 25.2022 2.53571 25.2022H2.66143L2.65457 25.0776V17.6683C2.65457 17.3623 2.77498 17.0689 2.98931 16.8525C3.20363 16.6361 3.49432 16.5146 3.79743 16.5146H7.60086C7.90396 16.5146 8.19465 16.6361 8.40898 16.8525C8.62331 17.0689 8.74371 17.3623 8.74371 17.6683V25.0776L8.73686 25.2022H13.2123L13.2054 25.0776V17.6683C13.2054 17.3623 13.3258 17.0689 13.5402 16.8525C13.7545 16.6361 14.0452 16.5146 14.3483 16.5146H18.1517C18.3018 16.5146 18.4504 16.5444 18.5891 16.6024C18.7277 16.6604 18.8537 16.7454 18.9598 16.8525C19.066 16.9596 19.1501 17.0868 19.2076 17.2268C19.265 17.3668 19.2946 17.5168 19.2946 17.6683V25.0776L19.2877 25.2022H23.7631L23.7563 25.0776V17.6683C23.7563 17.3623 23.8767 17.0689 24.091 16.8525C24.3053 16.6361 24.596 16.5146 24.8991 16.5146H28.7026C29.0057 16.5146 29.2964 16.6361 29.5107 16.8525C29.725 17.0689 29.8454 17.3623 29.8454 17.6683V25.0776L29.8386 25.2022H29.9643C30.9426 25.2022 32.25 25.8691 32.25 27.2558V29.9487C32.25 31.3331 30.9426 32 29.9643 32H2.53571C1.55743 32 0.25 31.3331 0.25 29.9464V27.2535Z" fill="url(#paint0_linear_3231_6773)"/>
</g>
<defs>
<linearGradient id="paint0_linear_3231_6773" x1="0.25" y1="16" x2="32.25" y2="16" gradientUnits="userSpaceOnUse">
<stop stop-color="#24348B"/>
<stop offset="0.5" stop-color="#2F7D58"/>
<stop offset="1" stop-color="#5EB12E"/>
</linearGradient>
<clipPath id="clip0_3231_6773">
<rect width="32" height="32" fill="white" transform="translate(0.25)"/>
</clipPath>
</defs>
</svg>
