<svg width="24" height="24" viewBox="0 0 24 24" fill="none" xmlns="http://www.w3.org/2000/svg">
  <g clip-path="url(#clip0_3207_4929)">
    <path
      d="M18 17.5C18 17.7967 17.912 18.0867 17.7472 18.3334C17.5824 18.58 17.3481 18.7723 17.074 18.8858C16.7999 18.9993 16.4983 19.0291 16.2074 18.9712C15.9164 18.9133 15.6491 18.7704 15.4393 18.5607C15.2296 18.3509 15.0867 18.0836 15.0288 17.7926C14.9709 17.5017 15.0007 17.2001 15.1142 16.926C15.2277 16.6519 15.42 16.4176 15.6666 16.2528C15.9133 16.088 16.2033 16 16.5 16C16.8978 16 17.2794 16.158 17.5607 16.4393C17.842 16.7206 18 17.1022 18 17.5ZM7.5 8C7.79667 8 8.08668 7.91203 8.33335 7.7472C8.58003 7.58238 8.77229 7.34811 8.88582 7.07403C8.99935 6.79994 9.02906 6.49834 8.97118 6.20736C8.9133 5.91639 8.77044 5.64912 8.56066 5.43934C8.35088 5.22956 8.08361 5.0867 7.79264 5.02882C7.50166 4.97094 7.20006 5.00065 6.92597 5.11418C6.65189 5.22771 6.41762 5.41997 6.2528 5.66665C6.08797 5.91332 6 6.20333 6 6.5C6 6.89782 6.15804 7.27936 6.43934 7.56066C6.72064 7.84196 7.10218 8 7.5 8ZM24 2V22C24 22.5304 23.7893 23.0391 23.4142 23.4142C23.0391 23.7893 22.5304 24 22 24H2C1.46957 24 0.960859 23.7893 0.585786 23.4142C0.210714 23.0391 0 22.5304 0 22V2C0 1.46957 0.210714 0.960859 0.585786 0.585786C0.960859 0.210714 1.46957 0 2 0H22C22.5304 0 23.0391 0.210714 23.4142 0.585786C23.7893 0.960859 24 1.46957 24 2ZM4 6.5C4 7.19223 4.20527 7.86892 4.58986 8.4445C4.97444 9.02007 5.52107 9.46867 6.16061 9.73358C6.80015 9.99849 7.50388 10.0678 8.18282 9.93275C8.86175 9.7977 9.48539 9.46436 9.97487 8.97487C10.4644 8.48539 10.7977 7.86175 10.9327 7.18282C11.0678 6.50388 10.9985 5.80015 10.7336 5.16061C10.4687 4.52107 10.0201 3.97444 9.4445 3.58986C8.86892 3.20527 8.19223 3 7.5 3C6.57174 3 5.6815 3.36875 5.02513 4.02513C4.36875 4.6815 4 5.57174 4 6.5ZM20 17.5C20 16.8078 19.7947 16.1311 19.4101 15.5555C19.0256 14.9799 18.4789 14.5313 17.8394 14.2664C17.1999 14.0015 16.4961 13.9322 15.8172 14.0673C15.1383 14.2023 14.5146 14.5356 14.0251 15.0251C13.5356 15.5146 13.2023 16.1383 13.0673 16.8172C12.9322 17.4961 13.0015 18.1999 13.2664 18.8394C13.5313 19.4789 13.9799 20.0256 14.5555 20.4101C15.1311 20.7947 15.8078 21 16.5 21C17.4283 21 18.3185 20.6313 18.9749 19.9749C19.6313 19.3185 20 18.4283 20 17.5ZM19.7075 4.2925C19.6146 4.19952 19.5043 4.12576 19.3829 4.07544C19.2615 4.02512 19.1314 3.99921 19 3.99921C18.8686 3.99921 18.7385 4.02512 18.6171 4.07544C18.4957 4.12576 18.3854 4.19952 18.2925 4.2925L4.2925 18.2925C4.10486 18.4801 3.99944 18.7346 3.99944 19C3.99944 19.2654 4.10486 19.5199 4.2925 19.7075C4.48014 19.8951 4.73464 20.0006 5 20.0006C5.26536 20.0006 5.51986 19.8951 5.7075 19.7075L19.7075 5.7075C19.8005 5.61463 19.8742 5.50434 19.9246 5.38294C19.9749 5.26154 20.0008 5.13142 20.0008 5C20.0008 4.86858 19.9749 4.73846 19.9246 4.61706C19.8742 4.49566 19.8005 4.38537 19.7075 4.2925Z"
      fill="url(#paint0_linear_3207_4929)"/>
  </g>
  <defs>
    <linearGradient id="paint0_linear_3207_4929" x1="0" y1="12" x2="24" y2="12" gradientUnits="userSpaceOnUse">
      <stop stop-color="#24348B"/>
      <stop offset="0.5" stop-color="#2F7D58"/>
      <stop offset="1" stop-color="#5EB12E"/>
    </linearGradient>
    <clipPath id="clip0_3207_4929">
      <rect width="24" height="24" fill="white"/>
    </clipPath>
  </defs>
</svg>
