<svg width="33" height="32" viewBox="0 0 33 32" fill="none" xmlns="http://www.w3.org/2000/svg">
  <g clip-path="url(#clip0_3231_6768)">
    <path
      d="M9.45055 1.18519C9.45055 0.870855 9.32413 0.569398 9.09908 0.347133C8.87404 0.124867 8.56881 0 8.25055 0C7.93229 0 7.62707 0.124867 7.40202 0.347133C7.17698 0.569398 7.05055 0.870855 7.05055 1.18519V3.68198C4.74655 3.8637 3.23615 4.30933 2.12575 5.40761C1.01375 6.5043 0.562553 7.99763 0.376953 10.2716H32.1242C31.9386 7.99605 31.4874 6.5043 30.3754 5.40761C29.265 4.30933 27.753 3.8637 25.4506 3.6804V1.18519C25.4506 0.870855 25.3241 0.569398 25.0991 0.347133C24.874 0.124867 24.5688 0 24.2506 0C23.9323 0 23.6271 0.124867 23.402 0.347133C23.177 0.569398 23.0506 0.870855 23.0506 1.18519V3.5761C21.9866 3.55556 20.793 3.55556 19.4506 3.55556H13.0506C11.7082 3.55556 10.5146 3.55556 9.45055 3.5761V1.18519Z"
      fill="black"/>
    <path
      d="M9.45055 1.18519C9.45055 0.870855 9.32413 0.569398 9.09908 0.347133C8.87404 0.124867 8.56881 0 8.25055 0C7.93229 0 7.62707 0.124867 7.40202 0.347133C7.17698 0.569398 7.05055 0.870855 7.05055 1.18519V3.68198C4.74655 3.8637 3.23615 4.30933 2.12575 5.40761C1.01375 6.5043 0.562553 7.99763 0.376953 10.2716H32.1242C31.9386 7.99605 31.4874 6.5043 30.3754 5.40761C29.265 4.30933 27.753 3.8637 25.4506 3.6804V1.18519C25.4506 0.870855 25.3241 0.569398 25.0991 0.347133C24.874 0.124867 24.5688 0 24.2506 0C23.9323 0 23.6271 0.124867 23.402 0.347133C23.177 0.569398 23.0506 0.870855 23.0506 1.18519V3.5761C21.9866 3.55556 20.793 3.55556 19.4506 3.55556H13.0506C11.7082 3.55556 10.5146 3.55556 9.45055 3.5761V1.18519Z"
      fill="url(#paint0_linear_3231_6768)"/>
    <path fill-rule="evenodd" clip-rule="evenodd"
          d="M0.25 16.1976C0.25 14.8718 0.25 13.693 0.2708 12.6421H32.2292C32.25 13.693 32.25 14.8718 32.25 16.1976V19.3581C32.25 25.3172 32.25 28.2976 30.3748 30.1481C28.4996 31.9985 25.4836 32.0001 19.45 32.0001H13.05C7.0164 32.0001 3.9988 32.0001 2.1252 30.1481C0.2516 28.296 0.25 25.3172 0.25 19.3581V16.1976ZM24.25 19.3581C24.6743 19.3581 25.0813 19.1916 25.3814 18.8953C25.6814 18.5989 25.85 18.197 25.85 17.7779C25.85 17.3588 25.6814 16.9568 25.3814 16.6605C25.0813 16.3641 24.6743 16.1976 24.25 16.1976C23.8257 16.1976 23.4187 16.3641 23.1186 16.6605C22.8186 16.9568 22.65 17.3588 22.65 17.7779C22.65 18.197 22.8186 18.5989 23.1186 18.8953C23.4187 19.1916 23.8257 19.3581 24.25 19.3581ZM24.25 25.6791C24.6743 25.6791 25.0813 25.5126 25.3814 25.2163C25.6814 24.9199 25.85 24.518 25.85 24.0989C25.85 23.6798 25.6814 23.2778 25.3814 22.9815C25.0813 22.6851 24.6743 22.5186 24.25 22.5186C23.8257 22.5186 23.4187 22.6851 23.1186 22.9815C22.8186 23.2778 22.65 23.6798 22.65 24.0989C22.65 24.518 22.8186 24.9199 23.1186 25.2163C23.4187 25.5126 23.8257 25.6791 24.25 25.6791ZM17.85 17.7779C17.85 18.197 17.6814 18.5989 17.3814 18.8953C17.0813 19.1916 16.6743 19.3581 16.25 19.3581C15.8257 19.3581 15.4187 19.1916 15.1186 18.8953C14.8186 18.5989 14.65 18.197 14.65 17.7779C14.65 17.3588 14.8186 16.9568 15.1186 16.6605C15.4187 16.3641 15.8257 16.1976 16.25 16.1976C16.6743 16.1976 17.0813 16.3641 17.3814 16.6605C17.6814 16.9568 17.85 17.3588 17.85 17.7779ZM17.85 24.0989C17.85 24.518 17.6814 24.9199 17.3814 25.2163C17.0813 25.5126 16.6743 25.6791 16.25 25.6791C15.8257 25.6791 15.4187 25.5126 15.1186 25.2163C14.8186 24.9199 14.65 24.518 14.65 24.0989C14.65 23.6798 14.8186 23.2778 15.1186 22.9815C15.4187 22.6851 15.8257 22.5186 16.25 22.5186C16.6743 22.5186 17.0813 22.6851 17.3814 22.9815C17.6814 23.2778 17.85 23.6798 17.85 24.0989ZM8.25 19.3581C8.67435 19.3581 9.08131 19.1916 9.38137 18.8953C9.68143 18.5989 9.85 18.197 9.85 17.7779C9.85 17.3588 9.68143 16.9568 9.38137 16.6605C9.08131 16.3641 8.67435 16.1976 8.25 16.1976C7.82565 16.1976 7.41869 16.3641 7.11863 16.6605C6.81857 16.9568 6.65 17.3588 6.65 17.7779C6.65 18.197 6.81857 18.5989 7.11863 18.8953C7.41869 19.1916 7.82565 19.3581 8.25 19.3581ZM8.25 25.6791C8.67435 25.6791 9.08131 25.5126 9.38137 25.2163C9.68143 24.9199 9.85 24.518 9.85 24.0989C9.85 23.6798 9.68143 23.2778 9.38137 22.9815C9.08131 22.6851 8.67435 22.5186 8.25 22.5186C7.82565 22.5186 7.41869 22.6851 7.11863 22.9815C6.81857 23.2778 6.65 23.6798 6.65 24.0989C6.65 24.518 6.81857 24.9199 7.11863 25.2163C7.41869 25.5126 7.82565 25.6791 8.25 25.6791Z"
          fill="black"/>
    <path fill-rule="evenodd" clip-rule="evenodd"
          d="M0.25 16.1976C0.25 14.8718 0.25 13.693 0.2708 12.6421H32.2292C32.25 13.693 32.25 14.8718 32.25 16.1976V19.3581C32.25 25.3172 32.25 28.2976 30.3748 30.1481C28.4996 31.9985 25.4836 32.0001 19.45 32.0001H13.05C7.0164 32.0001 3.9988 32.0001 2.1252 30.1481C0.2516 28.296 0.25 25.3172 0.25 19.3581V16.1976ZM24.25 19.3581C24.6743 19.3581 25.0813 19.1916 25.3814 18.8953C25.6814 18.5989 25.85 18.197 25.85 17.7779C25.85 17.3588 25.6814 16.9568 25.3814 16.6605C25.0813 16.3641 24.6743 16.1976 24.25 16.1976C23.8257 16.1976 23.4187 16.3641 23.1186 16.6605C22.8186 16.9568 22.65 17.3588 22.65 17.7779C22.65 18.197 22.8186 18.5989 23.1186 18.8953C23.4187 19.1916 23.8257 19.3581 24.25 19.3581ZM24.25 25.6791C24.6743 25.6791 25.0813 25.5126 25.3814 25.2163C25.6814 24.9199 25.85 24.518 25.85 24.0989C25.85 23.6798 25.6814 23.2778 25.3814 22.9815C25.0813 22.6851 24.6743 22.5186 24.25 22.5186C23.8257 22.5186 23.4187 22.6851 23.1186 22.9815C22.8186 23.2778 22.65 23.6798 22.65 24.0989C22.65 24.518 22.8186 24.9199 23.1186 25.2163C23.4187 25.5126 23.8257 25.6791 24.25 25.6791ZM17.85 17.7779C17.85 18.197 17.6814 18.5989 17.3814 18.8953C17.0813 19.1916 16.6743 19.3581 16.25 19.3581C15.8257 19.3581 15.4187 19.1916 15.1186 18.8953C14.8186 18.5989 14.65 18.197 14.65 17.7779C14.65 17.3588 14.8186 16.9568 15.1186 16.6605C15.4187 16.3641 15.8257 16.1976 16.25 16.1976C16.6743 16.1976 17.0813 16.3641 17.3814 16.6605C17.6814 16.9568 17.85 17.3588 17.85 17.7779ZM17.85 24.0989C17.85 24.518 17.6814 24.9199 17.3814 25.2163C17.0813 25.5126 16.6743 25.6791 16.25 25.6791C15.8257 25.6791 15.4187 25.5126 15.1186 25.2163C14.8186 24.9199 14.65 24.518 14.65 24.0989C14.65 23.6798 14.8186 23.2778 15.1186 22.9815C15.4187 22.6851 15.8257 22.5186 16.25 22.5186C16.6743 22.5186 17.0813 22.6851 17.3814 22.9815C17.6814 23.2778 17.85 23.6798 17.85 24.0989ZM8.25 19.3581C8.67435 19.3581 9.08131 19.1916 9.38137 18.8953C9.68143 18.5989 9.85 18.197 9.85 17.7779C9.85 17.3588 9.68143 16.9568 9.38137 16.6605C9.08131 16.3641 8.67435 16.1976 8.25 16.1976C7.82565 16.1976 7.41869 16.3641 7.11863 16.6605C6.81857 16.9568 6.65 17.3588 6.65 17.7779C6.65 18.197 6.81857 18.5989 7.11863 18.8953C7.41869 19.1916 7.82565 19.3581 8.25 19.3581ZM8.25 25.6791C8.67435 25.6791 9.08131 25.5126 9.38137 25.2163C9.68143 24.9199 9.85 24.518 9.85 24.0989C9.85 23.6798 9.68143 23.2778 9.38137 22.9815C9.08131 22.6851 8.67435 22.5186 8.25 22.5186C7.82565 22.5186 7.41869 22.6851 7.11863 22.9815C6.81857 23.2778 6.65 23.6798 6.65 24.0989C6.65 24.518 6.81857 24.9199 7.11863 25.2163C7.41869 25.5126 7.82565 25.6791 8.25 25.6791Z"
          fill="url(#paint1_linear_3231_6768)"/>
  </g>
  <defs>
    <linearGradient id="paint0_linear_3231_6768" x1="0.376953" y1="5.1358" x2="32.1242" y2="5.1358"
                    gradientUnits="userSpaceOnUse">
      <stop stop-color="#24348B"/>
      <stop offset="0.5" stop-color="#2F7D58"/>
      <stop offset="1" stop-color="#5EB12E"/>
    </linearGradient>
    <linearGradient id="paint1_linear_3231_6768" x1="0.25" y1="22.3211" x2="32.25" y2="22.3211"
                    gradientUnits="userSpaceOnUse">
      <stop stop-color="#24348B"/>
      <stop offset="0.5" stop-color="#2F7D58"/>
      <stop offset="1" stop-color="#5EB12E"/>
    </linearGradient>
    <clipPath id="clip0_3231_6768">
      <rect width="32" height="32" fill="white" transform="translate(0.25)"/>
    </clipPath>
  </defs>
</svg>
