<svg width="74" height="74" viewBox="0 0 74 74" fill="none" xmlns="http://www.w3.org/2000/svg">
  <path
    d="M18.4997 6.16602C15.108 6.16602 12.333 8.94102 12.333 12.3327V61.666C12.333 65.0577 15.108 67.8327 18.4997 67.8327H30.833V61.9743L61.6663 31.141V24.666L43.1663 6.16602H18.4997ZM40.083 10.791L57.0413 27.7493H40.083V10.791ZM61.9747 40.0827C61.6663 40.0827 61.0497 40.391 60.7413 40.6993L57.658 43.7827L64.133 50.2577L67.2163 47.1743C67.833 46.5577 67.833 45.3243 67.2163 44.7077L63.208 40.6993C62.8997 40.391 62.5913 40.0827 61.9747 40.0827ZM55.808 45.6327L36.9997 64.441V70.916H43.4747L62.283 52.1077L55.808 45.6327Z"
    fill="url(#paint0_linear_362_4532)"/>
  <defs>
    <linearGradient id="paint0_linear_362_4532" x1="12.333" y1="38.541" x2="67.6788" y2="38.541"
                    gradientUnits="userSpaceOnUse">
      <stop stop-color="#24348B"/>
      <stop offset="0.5" stop-color="#2F7D58"/>
      <stop offset="1" stop-color="#5EB12E"/>
    </linearGradient>
  </defs>
</svg>
