<svg width="40" height="40" viewBox="0 0 40 40" fill="none" xmlns="http://www.w3.org/2000/svg">
<path fill-rule="evenodd" clip-rule="evenodd" d="M5.21739 11.12V13.2H3.13043C2.30019 13.2 1.50395 13.5287 0.916883 14.1138C0.329813 14.6989 0 15.4925 0 16.32V30.88C0 31.7075 0.329813 32.5011 0.916883 33.0862C1.50395 33.6713 2.30019 34 3.13043 34H31.6522C32.0633 34 32.4703 33.9193 32.8501 33.7625C33.2299 33.6057 33.575 33.3759 33.8657 33.0862C34.1564 32.7965 34.387 32.4525 34.5443 32.074C34.7016 31.6954 34.7826 31.2897 34.7826 30.88V28.8H36.8696C38.5948 28.8 40 27.3995 40 25.68V11.12C40 9.40053 38.5948 8 36.8696 8H8.34783C6.62261 8 5.21739 9.40053 5.21739 11.12ZM8.69565 11.4667V13.2H31.6522C32.0633 13.2 32.4703 13.2807 32.8501 13.4375C33.2299 13.5943 33.575 13.8241 33.8657 14.1138C34.1564 14.4035 34.387 14.7475 34.5443 15.126C34.7016 15.5046 34.7826 15.9103 34.7826 16.32V25.3333H36.5217V11.4667H8.69565ZM13.913 23.6C13.913 22.6806 14.2795 21.7988 14.9318 21.1487C15.5841 20.4986 16.4688 20.1333 17.3913 20.1333C18.3138 20.1333 19.1985 20.4986 19.8508 21.1487C20.5031 21.7988 20.8696 22.6806 20.8696 23.6C20.8696 24.5194 20.5031 25.4012 19.8508 26.0513C19.1985 26.7014 18.3138 27.0667 17.3913 27.0667C16.4688 27.0667 15.5841 26.7014 14.9318 26.0513C14.2795 25.4012 13.913 24.5194 13.913 23.6Z" fill="url(#paint0_linear_3358_5687)"/>
<defs>
<linearGradient id="paint0_linear_3358_5687" x1="0" y1="21" x2="40" y2="21" gradientUnits="userSpaceOnUse">
<stop stop-color="#24348B"/>
<stop offset="0.5" stop-color="#2F7D58"/>
<stop offset="1" stop-color="#5EB12E"/>
</linearGradient>
</defs>
</svg>
