<svg width="74" height="75" viewBox="0 0 74 75" fill="none" xmlns="http://www.w3.org/2000/svg">
  <path
    d="M21.5574 45.5145C20.7396 45.5145 19.9554 45.8393 19.3771 46.4176C18.7989 46.9958 18.4741 47.7801 18.4741 48.5978V54.0923C14.4994 49.5984 12.306 43.8056 12.3074 37.8062C12.3038 36.8992 12.3573 35.993 12.4677 35.0928C12.5265 34.6861 12.5035 34.2717 12.3999 33.874C12.2962 33.4764 12.1142 33.1034 11.8643 32.7771C11.6145 32.4508 11.302 32.1777 10.9451 31.9739C10.5882 31.7701 10.1942 31.6397 9.78624 31.5904C9.37825 31.5411 8.96452 31.5738 8.56936 31.6867C8.1742 31.7995 7.80559 31.9903 7.4852 32.2476C7.16481 32.505 6.8991 32.8238 6.70368 33.1853C6.50827 33.5469 6.38711 33.9438 6.3473 34.3528C6.20669 35.4985 6.13769 36.6519 6.14072 37.8062C6.14383 45.1638 8.78838 52.2757 13.5931 57.8478H9.22405C8.4063 57.8478 7.62205 58.1727 7.04381 58.7509C6.46557 59.3292 6.14072 60.1134 6.14072 60.9312C6.14072 61.7489 6.46557 62.5332 7.04381 63.1114C7.62205 63.6896 8.4063 64.0145 9.22405 64.0145H21.5574C22.0397 64.0087 22.5136 63.8876 22.9395 63.6613C23.3654 63.4349 23.731 63.1099 24.0056 62.7133L24.1196 62.5807C24.1412 62.5499 24.1412 62.5129 24.1597 62.4821C24.3053 62.2335 24.4153 61.9657 24.4866 61.6866C24.5322 61.5291 24.5652 61.3683 24.5852 61.2056C24.5945 61.1131 24.6407 61.0298 24.6407 60.9312V48.5978C24.6407 47.7801 24.3159 46.9958 23.7376 46.4176C23.1594 45.8393 22.3751 45.5145 21.5574 45.5145ZM26.1824 19.3062H20.6848C25.1796 15.3308 30.9735 13.1373 36.9741 13.1395C37.881 13.1369 38.7873 13.1915 39.6874 13.3029C40.4998 13.401 41.318 13.1724 41.9618 12.6673C42.6057 12.1622 43.0226 11.4221 43.1207 10.6096C43.2188 9.79718 42.9902 8.97904 42.4851 8.33517C41.98 7.69131 41.2398 7.27446 40.4274 7.17633C39.2816 7.03674 38.1283 6.96878 36.9741 6.97283C29.6165 6.97594 22.5045 9.62049 16.9324 14.4252V10.0562C16.9324 9.23841 16.6075 8.45415 16.0293 7.87591C15.4511 7.29768 14.6668 6.97283 13.8491 6.97283C13.0313 6.97283 12.247 7.29768 11.6688 7.87591C11.0906 8.45415 10.7657 9.23841 10.7657 10.0562V22.3895C10.7857 22.5934 10.826 22.7948 10.886 22.9907C10.9626 23.3705 11.1101 23.7324 11.3207 24.0576L11.3577 24.11C11.5625 24.4047 11.8171 24.6614 12.1101 24.8685C12.144 24.8932 12.1625 24.9302 12.1964 24.9548C12.2396 24.9857 12.2889 24.9949 12.3351 25.0196C12.5111 25.1241 12.697 25.2109 12.8901 25.2786C13.1499 25.3687 13.4206 25.4236 13.6949 25.442C13.7504 25.442 13.7936 25.4728 13.8491 25.4728H26.1824C27.0001 25.4728 27.7844 25.148 28.3626 24.5697C28.9409 23.9915 29.2657 23.2072 29.2657 22.3895C29.2657 21.5717 28.9409 20.7875 28.3626 20.2092C27.7844 19.631 27.0001 19.3062 26.1824 19.3062ZM63.0591 52.6185C62.9821 52.2398 62.8346 51.879 62.6243 51.5547L62.5904 51.5023C62.3847 51.2074 62.1291 50.9507 61.835 50.7438C61.8011 50.7192 61.7856 50.6822 61.7486 50.6575C61.7178 50.6359 61.6777 50.6359 61.6438 50.6143C61.2513 50.3992 60.8229 50.2572 60.3796 50.195C60.281 50.1857 60.1977 50.1395 60.0991 50.1395H47.7657C46.948 50.1395 46.1637 50.4643 45.5855 51.0426C45.0072 51.6208 44.6824 52.4051 44.6824 53.2228C44.6824 54.0406 45.0072 54.8248 45.5855 55.4031C46.1637 55.9813 46.948 56.3062 47.7657 56.3062H53.2602C48.7663 60.2808 42.9735 62.4742 36.9741 62.4728C36.067 62.4744 35.1608 62.4188 34.2607 62.3063C33.4483 62.2082 32.6301 62.4368 31.9863 62.9419C31.3424 63.447 30.9256 64.1872 30.8274 64.9996C30.7293 65.8121 30.9579 66.6302 31.463 67.2741C31.9681 67.9179 32.7083 68.3348 33.5207 68.4329C34.6664 68.5735 35.8198 68.6425 36.9741 68.6395C44.3316 68.6364 51.4436 65.9918 57.0157 61.1871V65.5562C57.0157 66.3739 57.3406 67.1582 57.9188 67.7364C58.497 68.3146 59.2813 68.6395 60.0991 68.6395C60.9168 68.6395 61.7011 68.3146 62.2793 67.7364C62.8575 67.1582 63.1824 66.3739 63.1824 65.5562V53.2228C63.1614 53.0188 63.1201 52.8143 63.0591 52.6185ZM64.7241 17.7645C65.5418 17.7645 66.3261 17.4396 66.9043 16.8614C67.4825 16.2832 67.8074 15.4989 67.8074 14.6812C67.8074 13.8634 67.4825 13.0792 66.9043 12.5009C66.3261 11.9227 65.5418 11.5978 64.7241 11.5978H52.3907C52.1899 11.6184 51.9916 11.6587 51.7987 11.7181L51.7771 11.7212C51.404 11.799 51.0486 11.9454 50.7288 12.1528L50.6671 12.1929C50.3736 12.3979 50.1179 12.6525 49.9117 12.9452C49.8871 12.9761 49.8501 12.9946 49.8254 13.0285C49.8038 13.0593 49.8038 13.0994 49.7822 13.1333C49.5661 13.5287 49.424 13.9603 49.3629 14.4067C49.3536 14.4992 49.3074 14.5825 49.3074 14.6812V27.0145C49.3074 27.8322 49.6322 28.6165 50.2105 29.1947C50.7887 29.773 51.573 30.0978 52.3907 30.0978C53.2085 30.0978 53.9927 29.773 54.571 29.1947C55.1492 28.6165 55.4741 27.8322 55.4741 27.0145V21.5169C59.447 26.0132 61.64 31.8061 61.6407 37.8062C61.6433 38.7131 61.5887 39.6194 61.4773 40.5195C61.3789 41.3311 61.6069 42.1485 62.1111 42.792C62.6153 43.4356 63.3544 43.8525 64.166 43.9512C64.2908 43.9661 64.4164 43.9733 64.5421 43.9728C65.2949 43.9715 66.0211 43.6948 66.584 43.195C67.1468 42.6952 67.5074 42.0068 67.5977 41.2595C67.7394 40.1139 67.8094 38.9605 67.8074 37.8062C67.8043 30.4486 65.1597 23.3366 60.355 17.7645H64.7241Z"
    fill="url(#paint0_linear_3236_4840)"/>
  <defs>
    <linearGradient id="paint0_linear_3236_4840" x1="6.14062" y1="37.8061" x2="67.8074" y2="37.8061"
                    gradientUnits="userSpaceOnUse">
      <stop stop-color="#24348B"/>
      <stop offset="0.5" stop-color="#2F7D58"/>
      <stop offset="1" stop-color="#5EB12E"/>
    </linearGradient>
  </defs>
</svg>
