<svg width="74" height="74" viewBox="0 0 74 74" fill="none" xmlns="http://www.w3.org/2000/svg">
  <path
    d="M38.2141 13.7325C33.0688 13.7238 26.6227 15.3498 20.2633 18.6595C13.914 21.9693 8.88145 26.3052 5.92723 30.54C2.97156 34.7603 2.17231 38.6916 3.62629 41.4955C5.08172 44.2849 8.76149 45.8892 13.9198 45.8892C19.0781 45.9037 25.5242 44.2705 31.8691 40.9752C38.2285 37.6654 43.2582 33.315 46.2066 29.0947C49.1695 24.8744 49.95 20.9431 48.5047 18.1392C47.0449 15.3498 43.3738 13.7325 38.2141 13.7325ZM51.4965 23.8916C50.9906 26.1029 49.8922 28.372 48.3457 30.5834C45.0793 35.2517 39.7461 39.8044 33.0688 43.2732C26.3914 46.7564 19.6129 48.5052 13.9184 48.5052C11.2301 48.5052 8.73836 48.1005 6.63832 47.2478L8.16891 50.1962C9.62578 53.0001 13.2954 54.6044 18.4566 54.6044C23.6164 54.6044 30.0625 52.9857 36.4074 49.6759C42.7668 46.3806 47.7965 42.0302 50.7449 37.7955C53.6934 33.5752 54.5027 29.6439 53.043 26.8544L51.4965 23.8916ZM55.659 26.3197C57.2777 30.1787 55.977 34.8759 52.884 39.2841C50.1523 43.2009 45.9754 47.0021 40.8012 50.1818C42.4055 50.3552 44.082 50.4419 45.7875 50.4419C52.9418 50.4419 59.4168 48.9099 63.984 46.5252C68.5656 44.1404 71.0805 41.0185 71.0805 37.8677C71.0805 34.7169 68.5656 31.5951 63.984 29.2103C61.657 27.9962 58.8242 26.999 55.659 26.3197ZM71.0805 44.3572C69.6062 46.0771 67.5828 47.5947 65.198 48.8377C60.1395 51.4681 53.3176 53.0435 45.7875 53.0435C42.7234 53.0435 39.775 52.7834 37.0145 52.2919C33.6613 53.983 30.2938 55.2404 27.0563 56.0642C27.2297 56.1654 27.4031 56.2521 27.591 56.3533C32.1582 58.738 38.6332 60.2701 45.7875 60.2701C52.9418 60.2701 59.4168 58.738 63.984 56.3533C68.5656 53.9685 71.0805 50.8466 71.0805 47.6959V44.3572Z"
    fill="url(#paint0_linear_3332_5542)"/>
  <defs>
    <linearGradient id="paint0_linear_3332_5542" x1="2.91933" y1="37.0012" x2="71.0805" y2="37.0012"
                    gradientUnits="userSpaceOnUse">
      <stop stop-color="#24348B"/>
      <stop offset="0.5" stop-color="#2F7D58"/>
      <stop offset="1" stop-color="#5EB12E"/>
    </linearGradient>
  </defs>
</svg>
