<svg width="74" height="74" viewBox="0 0 74 74" fill="none" xmlns="http://www.w3.org/2000/svg">
  <path
    d="M33.9165 46.2496C33.9165 45.1704 34.1015 44.1313 34.4438 43.1662H13.1133C11.2733 43.1662 9.50876 43.8971 8.20773 45.1982C6.90669 46.4992 6.17578 48.2638 6.17578 50.1037V52.9373C6.17578 54.701 6.73078 56.4215 7.75136 57.8583C12.5059 64.5306 20.2882 67.8329 30.8332 67.8329C32.0583 67.8329 33.2474 67.7887 34.4006 67.7003C34.0803 66.7495 33.9168 65.7529 33.9165 64.7496V46.2496ZM30.8332 6.18164C32.8577 6.18164 34.8625 6.5804 36.7329 7.35516C38.6033 8.12992 40.3029 9.26551 41.7344 10.6971C43.166 12.1286 44.3016 13.8282 45.0763 15.6986C45.8511 17.569 46.2499 19.5738 46.2499 21.5983C46.2499 23.6229 45.8511 25.6276 45.0763 27.498C44.3016 29.3684 43.166 31.068 41.7344 32.4995C40.3029 33.9311 38.6033 35.0667 36.7329 35.8414C34.8625 36.6162 32.8577 37.015 30.8332 37.015C26.7444 37.015 22.8232 35.3907 19.932 32.4995C17.0408 29.6084 15.4165 25.6871 15.4165 21.5983C15.4165 17.5096 17.0408 13.5883 19.932 10.6971C22.8232 7.80589 26.7444 6.18164 30.8332 6.18164ZM36.9999 46.2496C36.9999 44.6141 37.6496 43.0455 38.806 41.8891C39.9625 40.7326 41.531 40.0829 43.1665 40.0829H64.7499C66.3854 40.0829 67.9539 40.7326 69.1104 41.8891C70.2668 43.0455 70.9165 44.6141 70.9165 46.2496V64.7496C70.9165 66.3851 70.2668 67.9536 69.1104 69.1101C67.9539 70.2665 66.3854 70.9162 64.7499 70.9162H43.1665C41.531 70.9162 39.9625 70.2665 38.806 69.1101C37.6496 67.9536 36.9999 66.3851 36.9999 64.7496V46.2496ZM44.7082 49.3329C44.2993 49.3329 43.9072 49.4953 43.6181 49.7844C43.329 50.0736 43.1665 50.4657 43.1665 50.8746C43.1665 51.2834 43.329 51.6756 43.6181 51.9647C43.9072 52.2538 44.2993 52.4162 44.7082 52.4162H63.2082C63.6171 52.4162 64.0092 52.2538 64.2983 51.9647C64.5874 51.6756 64.7499 51.2834 64.7499 50.8746C64.7499 50.4657 64.5874 50.0736 64.2983 49.7844C64.0092 49.4953 63.6171 49.3329 63.2082 49.3329H44.7082ZM44.7082 58.5829C44.2993 58.5829 43.9072 58.7453 43.6181 59.0344C43.329 59.3236 43.1665 59.7157 43.1665 60.1246C43.1665 60.5334 43.329 60.9256 43.6181 61.2147C43.9072 61.5038 44.2993 61.6662 44.7082 61.6662H63.2082C63.6171 61.6662 64.0092 61.5038 64.2983 61.2147C64.5874 60.9256 64.7499 60.5334 64.7499 60.1246C64.7499 59.7157 64.5874 59.3236 64.2983 59.0344C64.0092 58.7453 63.6171 58.5829 63.2082 58.5829H44.7082Z"
    fill="url(#paint0_linear_362_4520)"/>
  <defs>
    <linearGradient id="paint0_linear_362_4520" x1="6.17578" y1="38.5489" x2="70.9165" y2="38.5489"
                    gradientUnits="userSpaceOnUse">
      <stop stop-color="#24348B"/>
      <stop offset="0.5" stop-color="#2F7D58"/>
      <stop offset="1" stop-color="#5EB12E"/>
    </linearGradient>
  </defs>
</svg>
