<svg xmlns="http://www.w3.org/2000/svg" xmlns:xlink="http://www.w3.org/1999/xlink"><symbol id="icon__arrow--back" viewBox="0 0 21 24"><g fill="none"><path d="M17 2.38L15.067.5 4.536 10.745a1.725 1.725 0 000 2.506L15.066 23.5l1.932-1.88L7.114 12 17 2.38z" fill="currentColor"/></g></symbol><symbol id="icon__arrow--down" viewBox="0 0 24 24"><g fill="none"><path d="M12 12.575l3.9-3.9a.948.948 0 01.7-.275c.283 0 .516.092.7.275a.948.948 0 01.275.7.948.948 0 01-.275.7l-4.6 4.6c-.2.2-.433.3-.7.3a.96.96 0 01-.7-.3l-4.6-4.6a.948.948 0 01-.275-.7c0-.283.091-.517.275-.7a.948.948 0 01.7-.275c.283 0 .516.092.7.275l3.9 3.9z" fill="currentColor"/></g></symbol><symbol id="icon__calendar" viewBox="0 0 24 24"><g fill="none"><path d="M5 22c-.55 0-1.02-.196-1.413-.587A1.926 1.926 0 013 20V6c0-.55.196-1.02.587-1.412A1.926 1.926 0 015 4h1V3a.97.97 0 01.287-.712A.968.968 0 017 2a.97.97 0 01.713.288A.968.968 0 018 3v1h8V3c0-.283.096-.52.288-.712A.968.968 0 0117 2c.283 0 .52.096.712.288A.965.965 0 0118 3v1h1c.55 0 1.02.196 1.413.588.391.391.587.862.587 1.412v14c0 .55-.196 1.02-.587 1.413A1.926 1.926 0 0119 22H5zm0-2h14V10H5v10zM5 8h14V6H5v2zm7 6a.968.968 0 01-.713-.287A.968.968 0 0111 13c0-.283.096-.52.287-.713A.968.968 0 0112 12c.283 0 .52.096.713.287.191.192.287.43.287.713s-.096.52-.287.713A.968.968 0 0112 14zm-4 0a.967.967 0 01-.713-.287A.968.968 0 017 13c0-.283.096-.52.287-.713A.967.967 0 018 12c.283 0 .52.096.713.287.191.192.287.43.287.713s-.096.52-.287.713A.967.967 0 018 14zm8 0a.968.968 0 01-.713-.287A.968.968 0 0115 13c0-.283.096-.52.287-.713A.968.968 0 0116 12a.97.97 0 01.712.287c.192.192.288.43.288.713s-.096.52-.288.713A.968.968 0 0116 14zm-4 4a.968.968 0 01-.713-.288A.968.968 0 0111 17a.97.97 0 01.287-.712A.968.968 0 0112 16a.97.97 0 01.713.288c.191.191.287.429.287.712s-.096.52-.287.712A.968.968 0 0112 18zm-4 0a.967.967 0 01-.713-.288A.968.968 0 017 17a.97.97 0 01.287-.712A.967.967 0 018 16a.97.97 0 01.713.288c.191.191.287.429.287.712s-.096.52-.287.712A.967.967 0 018 18zm8 0a.968.968 0 01-.713-.288A.968.968 0 0115 17a.97.97 0 01.287-.712A.968.968 0 0116 16c.283 0 .52.096.712.288.192.191.288.429.288.712s-.096.52-.288.712A.968.968 0 0116 18z" fill="currentColor"/></g></symbol><symbol id="icon__close" viewBox="0 0 44 44"><g fill="none"><rect x="14.14" y="12.213" width="23.843" height="2.725" rx="1.362" transform="rotate(45 14.14 12.213)" fill="currentColor"/><rect x="12.213" y="29.073" width="23.843" height="2.725" rx="1.362" transform="rotate(-45 12.213 29.073)" fill="currentColor"/></g></symbol><symbol id="icon__doc" viewBox="0 0 21 21"><g fill="none"><path d="M14 14.875H7.875m6.125-3.5h-2.625m6.563.875c0 3.3 0 4.95-1.09 5.974-1.09 1.025-2.842 1.026-6.348 1.026h-.676c-2.853 0-4.28 0-5.271-.698a3.587 3.587 0 01-.748-.705c-.743-.932-.743-2.275-.743-4.96v-2.228c0-2.592 0-3.89.41-4.924.66-1.665 2.055-2.978 3.825-3.6 1.099-.385 2.475-.385 5.231-.385 1.573 0 2.361 0 2.99.22 1.01.356 1.807 1.106 2.184 2.057.235.591.235 1.332.235 2.814v5.409z" stroke="currentColor" stroke-width="1.5" stroke-linecap="round" stroke-linejoin="round"/><path d="M3.063 10.5a2.916 2.916 0 012.916-2.916c.583 0 1.27.101 1.836-.05A1.461 1.461 0 008.846 6.5c.152-.566.05-1.253.05-1.836a2.916 2.916 0 012.916-2.915" stroke="currentColor" stroke-width="1.5" stroke-linecap="round" stroke-linejoin="round"/></g></symbol><symbol id="icon__globe" viewBox="0 0 24 24"><g fill="none"><path d="M12 22a9.676 9.676 0 01-3.875-.788 10.144 10.144 0 01-3.188-2.15 10.142 10.142 0 01-2.15-3.187A9.676 9.676 0 012 12c0-1.383.263-2.68.788-3.887a10.183 10.183 0 012.15-3.175 10.143 10.143 0 013.187-2.15A9.676 9.676 0 0112 2c1.383 0 2.68.263 3.887.788a10.183 10.183 0 013.175 2.15 10.184 10.184 0 012.15 3.175A9.649 9.649 0 0122 12a9.676 9.676 0 01-.788 3.875 10.143 10.143 0 01-2.15 3.188 10.184 10.184 0 01-3.175 2.15A9.649 9.649 0 0112 22zm0-2.05c.433-.6.808-1.225 1.125-1.875.317-.65.575-1.342.775-2.075h-3.8c.2.733.458 1.425.775 2.075.317.65.692 1.275 1.125 1.875zm-2.6-.4c-.3-.55-.563-1.12-.787-1.713A14.688 14.688 0 018.05 16H5.1a8.3 8.3 0 001.813 2.175A7.195 7.195 0 009.4 19.55zm5.2 0a7.195 7.195 0 002.487-1.375A8.299 8.299 0 0018.9 16h-2.95c-.15.633-.337 1.246-.563 1.837a13.857 13.857 0 01-.787 1.713zM4.25 14h3.4a13.208 13.208 0 01-.15-2 13.208 13.208 0 01.15-2h-3.4A7.959 7.959 0 004 12a7.959 7.959 0 00.25 2zm5.4 0h4.7a13.208 13.208 0 00.15-2 13.208 13.208 0 00-.15-2h-4.7a13.208 13.208 0 00-.15 2 13.208 13.208 0 00.15 2zm6.7 0h3.4a7.953 7.953 0 00.25-2 7.953 7.953 0 00-.25-2h-3.4a13.208 13.208 0 01.15 2 13.208 13.208 0 01-.15 2zm-.4-6h2.95a8.298 8.298 0 00-1.813-2.175A7.196 7.196 0 0014.6 4.45c.3.55.563 1.12.787 1.712.226.592.413 1.205.563 1.838zM10.1 8h3.8a11.82 11.82 0 00-.775-2.075A12.701 12.701 0 0012 4.05c-.433.6-.808 1.225-1.125 1.875A11.82 11.82 0 0010.1 8zm-5 0h2.95c.15-.633.337-1.246.563-1.838C8.838 5.571 9.1 5 9.4 4.45c-.933.3-1.763.758-2.488 1.375A8.298 8.298 0 005.1 8z" fill="currentColor"/></g></symbol><symbol id="icon__home" viewBox="0 0 24 24"><g fill="none"><path d="M6 19h3v-5c0-.283.096-.52.287-.713A.967.967 0 0110 13h4c.283 0 .52.096.713.287.191.192.287.43.287.713v5h3v-9l-6-4.5L6 10v9zm-2 0v-9a1.986 1.986 0 01.8-1.6l6-4.5c.35-.267.75-.4 1.2-.4.45 0 .85.133 1.2.4l6 4.5A1.985 1.985 0 0120 10v9c0 .55-.196 1.02-.587 1.413A1.926 1.926 0 0118 21h-4a.968.968 0 01-.713-.288A.968.968 0 0113 20v-5h-2v5a.97.97 0 01-.287.712A.968.968 0 0110 21H6c-.55 0-1.02-.196-1.412-.587A1.926 1.926 0 014 19z" fill="currentColor"/></g></symbol><symbol id="icon__hotel" viewBox="0 0 24 24"><g fill="none"><path d="M2 18v-5c0-.45.092-.858.275-1.225.183-.367.425-.692.725-.975V8c0-.833.292-1.542.875-2.125A2.893 2.893 0 016 5h4c.383 0 .742.07 1.075.213.333.141.642.337.925.587.283-.25.592-.446.925-.587A2.72 2.72 0 0114 5h4c.833 0 1.542.292 2.125.875S21 7.167 21 8v2.8c.3.283.542.608.725.975.183.367.275.775.275 1.225v5c0 .283-.096.52-.288.712A.968.968 0 0121 19a.968.968 0 01-.712-.288A.968.968 0 0120 18v-1H4v1c0 .283-.096.52-.288.712A.967.967 0 013 19a.967.967 0 01-.712-.288A.968.968 0 012 18zm11-8h6V8a.967.967 0 00-.288-.713A.968.968 0 0018 7h-4a.968.968 0 00-.713.287A.967.967 0 0013 8v2zm-8 0h6V8a.967.967 0 00-.287-.713A.968.968 0 0010 7H6a.968.968 0 00-.713.287A.968.968 0 005 8v2zm-1 5h16v-2a.968.968 0 00-.288-.713A.968.968 0 0019 12H5a.967.967 0 00-.713.287A.968.968 0 004 13v2z" fill="currentColor"/></g></symbol><symbol id="icon__logout" viewBox="0 0 24 24"><g fill="none"><path d="M11 13c.283 0 .52-.096.713-.287A.968.968 0 0012 12a.968.968 0 00-.287-.713A.968.968 0 0011 11a.968.968 0 00-.713.287A.968.968 0 0010 12c0 .283.096.52.287.713.192.191.43.287.713.287zm-4 8v-2l6-1V6.875c0-.25-.075-.475-.225-.675a.848.848 0 00-.575-.35L7 5V3l5.5.9a2.988 2.988 0 011.8 1.025c.467.55.7 1.192.7 1.925v11.1c0 .483-.158.913-.475 1.288a1.96 1.96 0 01-1.2.687L7 21zm0-2h10V5H7v14zm-3 2a.967.967 0 01-.712-.288A.968.968 0 013 20c0-.283.096-.52.288-.712A.967.967 0 014 19h1V5c0-.55.196-1.02.588-1.413A1.926 1.926 0 017 3h10c.55 0 1.02.196 1.413.587.39.393.587.863.587 1.413v14h1c.283 0 .52.096.712.288.192.191.288.429.288.712s-.096.52-.288.712A.968.968 0 0120 21H4z" fill="currentColor"/></g></symbol><symbol id="icon__loyalty" viewBox="0 0 24 24"><g fill="none"><path d="M12 20.325c-.233 0-.47-.042-.713-.125a1.652 1.652 0 01-.637-.4l-1.725-1.575a68.355 68.355 0 01-4.788-4.813C2.714 11.822 2 10.067 2 8.15c0-1.567.525-2.875 1.575-3.925C4.625 3.175 5.933 2.65 7.5 2.65c.883 0 1.717.188 2.5.563.783.375 1.45.887 2 1.537a5.956 5.956 0 012-1.537 5.717 5.717 0 012.5-.563c1.567 0 2.875.525 3.925 1.575C21.475 5.275 22 6.583 22 8.15c0 1.917-.708 3.675-2.125 5.275a59.847 59.847 0 01-4.825 4.825l-1.7 1.55a1.652 1.652 0 01-.637.4c-.242.083-.48.125-.713.125zM11.05 6.75c-.483-.683-1-1.204-1.55-1.562-.55-.359-1.217-.538-2-.538-1 0-1.833.333-2.5 1s-1 1.5-1 2.5c0 .867.308 1.788.925 2.762a19.094 19.094 0 002.213 2.838 38.412 38.412 0 002.65 2.575c.908.8 1.645 1.458 2.212 1.975a180.24 180.24 0 012.213-1.975c.908-.8 1.791-1.658 2.65-2.575a19.092 19.092 0 002.212-2.838c.617-.974.925-1.895.925-2.762 0-1-.333-1.833-1-2.5s-1.5-1-2.5-1c-.783 0-1.45.18-2 .538-.55.358-1.067.879-1.55 1.562a1.138 1.138 0 01-.95.5 1.138 1.138 0 01-.95-.5z" fill="currentColor"/></g></symbol><symbol id="icon__mail" viewBox="0 0 24 24"><g fill="none"><path d="M15.95 22l-4.25-4.25 1.4-1.4 2.85 2.85 5.65-5.65 1.4 1.4L15.95 22zM12 11l8-5H4l8 5zm0 2L4 8v10h5.15l2 2H4c-.55 0-1.02-.196-1.413-.587A1.926 1.926 0 012 18V6c0-.55.196-1.02.587-1.412A1.926 1.926 0 014 4h16c.55 0 1.02.196 1.413.588.391.391.587.862.587 1.412v4.35l-2 2V8l-8 5z" fill="currentColor"/></g></symbol><symbol id="icon__new" viewBox="0 0 24 24"><g fill="none"><path d="M11 15v2c0 .283.096.52.287.712.192.192.43.288.713.288s.52-.096.713-.288A.968.968 0 0013 17v-2h2c.283 0 .52-.096.713-.287A.968.968 0 0016 14a.968.968 0 00-.287-.713A.968.968 0 0015 13h-2v-2a.968.968 0 00-.287-.713A.968.968 0 0012 10a.968.968 0 00-.713.287A.968.968 0 0011 11v2H9a.967.967 0 00-.713.287A.968.968 0 008 14c0 .283.096.52.287.713.192.191.43.287.713.287h2zm-5 7c-.55 0-1.02-.196-1.412-.587A1.926 1.926 0 014 20V4c0-.55.196-1.02.588-1.413A1.926 1.926 0 016 2h7.175a1.975 1.975 0 011.4.575l4.85 4.85a1.975 1.975 0 01.575 1.4V20c0 .55-.196 1.02-.587 1.413A1.926 1.926 0 0118 22H6zm7-14V4H6v16h12V9h-4a.968.968 0 01-.713-.287A.967.967 0 0113 8z" fill="currentColor"/></g></symbol><symbol id="icon__pass" viewBox="0 0 24 24"><g fill="none"><path d="M4 20c-.55 0-1.02-.196-1.413-.587A1.926 1.926 0 012 18V6c0-.55.196-1.02.587-1.412A1.926 1.926 0 014 4h16c.55 0 1.02.196 1.413.588.391.391.587.862.587 1.412v12c0 .55-.196 1.02-.587 1.413A1.926 1.926 0 0120 20H4zm0-2h7V6H4v12zm9 0h7V6h-7v12zm-8-2h5v-2H5v2zm0-3h5v-2H5v2zm0-3h5V8H5v2zm9 6h5v-2h-5v2zm0-3h5v-2h-5v2zm0-3h5V8h-5v2z" fill="currentColor"/></g></symbol><symbol id="icon__payment" viewBox="0 0 24 24"><g fill="none"><path d="M22 6v12c0 .55-.196 1.02-.587 1.413A1.926 1.926 0 0120 20H4c-.55 0-1.02-.196-1.413-.587A1.926 1.926 0 012 18V6c0-.55.196-1.02.587-1.412A1.926 1.926 0 014 4h16c.55 0 1.02.196 1.413.588.391.391.587.862.587 1.412zM4 8h16V6H4v2zm0 4v6h16v-6H4z" fill="currentColor"/></g></symbol><symbol id="icon__phone" viewBox="0 0 24 24"><g fill="none"><path d="M19.95 21c-2.083 0-4.142-.454-6.175-1.363-2.033-.908-3.883-2.195-5.55-3.862-1.667-1.667-2.954-3.517-3.862-5.55C3.454 8.192 3 6.133 3 4.05c0-.3.1-.55.3-.75.2-.2.45-.3.75-.3H8.1a.93.93 0 01.625.237.914.914 0 01.325.563l.65 3.5a1.77 1.77 0 01-.025.675c-.05.183-.142.342-.275.475L6.975 10.9c.333.617.73 1.213 1.188 1.787.458.575.962 1.13 1.512 1.663.517.517 1.058.996 1.625 1.438.567.441 1.167.845 1.8 1.212l2.35-2.35a1.4 1.4 0 01.588-.338 1.61 1.61 0 01.712-.062l3.45.7c.233.067.425.188.575.363A.88.88 0 0121 15.9v4.05c0 .3-.1.55-.3.75-.2.2-.45.3-.75.3zM6.025 9l1.65-1.65L7.25 5H5.025c.083.683.2 1.358.35 2.025.15.667.367 1.325.65 1.975zm8.95 8.95c.65.283 1.313.508 1.987.675.675.167 1.355.275 2.038.325v-2.2l-2.35-.475-1.675 1.675z" fill="currentColor"/></g></symbol><symbol id="icon__search" viewBox="0 0 24 24"><g fill="none"><path d="M9.5 16c-1.817 0-3.354-.63-4.612-1.887C3.629 12.854 3 11.317 3 9.5c0-1.817.63-3.354 1.888-4.612C6.146 3.629 7.683 3 9.5 3c1.817 0 3.354.63 4.613 1.888C15.37 6.146 16 7.683 16 9.5a6.096 6.096 0 01-1.3 3.8l5.6 5.6a.948.948 0 01.275.7.948.948 0 01-.275.7.948.948 0 01-.7.275.948.948 0 01-.7-.275l-5.6-5.6A6.096 6.096 0 019.5 16zm0-2c1.25 0 2.313-.438 3.188-1.313C13.562 11.813 14 10.75 14 9.5c0-1.25-.438-2.313-1.313-3.188C11.813 5.438 10.75 5 9.5 5c-1.25 0-2.313.438-3.188 1.313S5 8.25 5 9.5c0 1.25.438 2.313 1.313 3.188C7.188 13.562 8.25 14 9.5 14z" fill="#171717"/></g></symbol><symbol id="icon__services" viewBox="0 0 24 24"><g fill="none"><path d="M14.05 15.55l-.7-.7a1.02 1.02 0 00-.713-.313.93.93 0 00-.712.288c-.2.2-.3.438-.3.713 0 .274.1.512.3.712l1.425 1.425c.2.2.433.3.7.3.267 0 .5-.1.7-.3l3.575-3.575c.2-.2.296-.433.288-.7a1.006 1.006 0 00-.313-.7c-.2-.183-.433-.28-.7-.287a.916.916 0 00-.7.287l-2.85 2.85zM8 15h1c.283 0 .52-.096.713-.287A.968.968 0 0010 14a.968.968 0 00-.287-.713A.967.967 0 009 13H8a.967.967 0 00-.713.287A.968.968 0 007 14c0 .283.096.52.287.713.192.191.43.287.713.287zm0-3h5c.283 0 .52-.096.713-.287A.968.968 0 0014 11a.968.968 0 00-.287-.713A.968.968 0 0013 10H8a.967.967 0 00-.713.287A.968.968 0 007 11c0 .283.096.52.287.713.192.191.43.287.713.287zm0-3h5c.283 0 .52-.096.713-.287A.967.967 0 0014 8a.967.967 0 00-.287-.713A.968.968 0 0013 7H8a.968.968 0 00-.713.287A.968.968 0 007 8c0 .283.096.52.287.713.192.191.43.287.713.287zm4 13a9.738 9.738 0 01-3.9-.788 10.099 10.099 0 01-3.175-2.137c-.9-.9-1.612-1.958-2.137-3.175A9.738 9.738 0 012 12a9.74 9.74 0 01.788-3.9 10.099 10.099 0 012.137-3.175c.9-.9 1.958-1.612 3.175-2.137A9.738 9.738 0 0112 2a9.74 9.74 0 013.9.788 10.098 10.098 0 013.175 2.137c.9.9 1.613 1.958 2.137 3.175A9.738 9.738 0 0122 12a9.738 9.738 0 01-.788 3.9 10.098 10.098 0 01-2.137 3.175c-.9.9-1.958 1.613-3.175 2.137A9.738 9.738 0 0112 22zm0-2c2.233 0 4.125-.775 5.675-2.325C19.225 16.125 20 14.233 20 12c0-2.233-.775-4.125-2.325-5.675C16.125 4.775 14.233 4 12 4c-2.233 0-4.125.775-5.675 2.325C4.775 7.875 4 9.767 4 12c0 2.233.775 4.125 2.325 5.675C7.875 19.225 9.767 20 12 20z" fill="currentColor"/></g></symbol><symbol id="icon__social--tg" viewBox="0 0 44 44"><g fill="none"><path fill-rule="evenodd" clip-rule="evenodd" d="M40.334 22c0 10.125-8.21 18.333-18.334 18.333-10.124 0-18.333-8.208-18.333-18.333C3.667 11.875 11.876 3.667 22 3.667c10.125 0 18.334 8.208 18.334 18.333zm-17.677-4.799c-1.782.742-5.346 2.277-10.691 4.605-.868.345-1.323.683-1.364 1.013-.07.56.629.78 1.58 1.077l.401.128c.937.304 2.195.66 2.85.674.593.012 1.256-.232 1.989-.733 4.992-3.372 7.57-5.075 7.732-5.112.114-.026.273-.06.38.037.107.094.096.274.086.323-.07.295-2.812 2.845-4.232 4.165-.443.411-.757.703-.82.77a24.1 24.1 0 01-.432.426c-.87.837-1.521 1.467.037 2.494.749.493 1.348.901 1.945 1.307.652.445 1.303.888 2.147 1.441.213.143.42.285.618.428.76.542 1.443 1.028 2.286.952.489-.046.996-.506 1.253-1.88.606-3.247 1.8-10.281 2.077-13.181a3.06 3.06 0 00-.03-.721.764.764 0 00-.263-.497c-.218-.178-.558-.217-.71-.214-.69.013-1.747.38-6.839 2.498z" fill="currentColor"/></g></symbol><symbol id="icon__social--wa" viewBox="0 0 44 44"><g fill="none"><path d="M25.281 4.84l-1.045-.147a16.738 16.738 0 00-16.353 7.334 16.684 16.684 0 00-1.302 17.71 2.383 2.383 0 01.184 1.833c-.752 2.585-1.449 5.188-2.182 7.92l.917-.275c2.475-.66 4.95-1.32 7.425-1.925a2.658 2.658 0 011.558.147A17.324 17.324 0 1025.281 4.84zm4.62 24.053a5.06 5.06 0 01-4.986 1.027 16.866 16.866 0 01-9.405-6.802 15.584 15.584 0 01-2.035-3.813 4.566 4.566 0 011.008-4.62 2.255 2.255 0 012.42-.77c.367.092.623.623.953 1.027.27.757.58 1.497.935 2.218a1.723 1.723 0 01-.366 2.402c-.825.733-.697 1.338-.11 2.163a12.283 12.283 0 005.17 4.253c.586.257 1.026.312 1.411-.293.165-.238.385-.44.569-.66 1.063-1.338.733-1.32 2.42-.587.537.226 1.057.49 1.558.789.495.293 1.247.605 1.357 1.045a2.659 2.659 0 01-.899 2.621z" fill="currentColor"/></g></symbol><symbol id="icon__surf" viewBox="0 0 24 24"><g fill="none"><path d="M3 23a.967.967 0 01-.712-.288A.968.968 0 012 22c0-.283.096-.52.288-.712A.967.967 0 013 21a5.16 5.16 0 001.287-.163c.426-.108.83-.279 1.213-.512.15-.083.317-.125.5-.125s.35.042.5.125c.383.233.787.404 1.213.512a5.195 5.195 0 002.574 0c.425-.108.83-.279 1.213-.512.15-.083.32-.125.512-.125s.355.042.488.125c.383.233.787.404 1.213.512a5.195 5.195 0 002.575 0 4.426 4.426 0 001.212-.512.927.927 0 01.5-.125c.2 0 .367.042.5.125.383.233.788.404 1.212.512.425.109.855.163 1.288.163.283 0 .52.096.712.288.192.191.288.429.288.712s-.096.52-.288.712A.968.968 0 0121 23a6.264 6.264 0 01-1.525-.188A6.79 6.79 0 0118 22.25a6.79 6.79 0 01-1.475.563 6.264 6.264 0 01-3.05 0A6.79 6.79 0 0112 22.25a6.79 6.79 0 01-1.475.563 6.264 6.264 0 01-3.05 0A6.79 6.79 0 016 22.25a6.79 6.79 0 01-1.475.563C4.025 22.938 3.517 23 3 23zm9.175-13L16 13v3.85c.267.183.525.375.775.575.25.2.492.392.725.575-.35.3-.733.542-1.15.725A3.315 3.315 0 0115 19c-.6 0-1.158-.142-1.675-.425A4.638 4.638 0 0112 17.5a4.638 4.638 0 01-1.325 1.075 3.429 3.429 0 01-2.163.387 2.88 2.88 0 01-.462-.112c-1.433-.983-2.633-1.975-3.6-2.975-.967-1-1.45-1.867-1.45-2.6 0-.517.2-.858.6-1.025.4-.167.817-.25 1.25-.25.483 0 1.042.07 1.675.213a15.61 15.61 0 012.025.612l-.525-3.1a1.622 1.622 0 01.112-.987c.142-.325.363-.588.663-.788l2.15-1.45c-.05 0-.17-.02-.362-.063a17.537 17.537 0 00-.638-.125 17.512 17.512 0 01-.637-.125 2.42 2.42 0 00-.363-.062l-2 1.375a1 1 0 01-.75.15 1.005 1.005 0 01-.65-.425c-.15-.233-.2-.487-.15-.762a.924.924 0 01.425-.638l2.325-1.6a.874.874 0 01.75-.15l5.15.95c.233.033.458.125.675.275.217.15.4.358.55.625l.875 1.55c.35.633.82 1.167 1.413 1.6a4.77 4.77 0 002.012.85c.267.05.488.175.663.375.175.2.262.433.262.7 0 .283-.1.517-.3.7a.838.838 0 01-.7.225 6.614 6.614 0 01-2.962-1.15 7.237 7.237 0 01-2.113-2.3L12.175 10zM10.3 11.1l.45 2.65c.45.217 1.008.504 1.675.863A35.46 35.46 0 0114 15.5V14l-3.7-2.9zM17 5.5c-.55 0-1.02-.196-1.412-.588A1.926 1.926 0 0115 3.5c0-.55.196-1.02.588-1.413A1.926 1.926 0 0117 1.5c.55 0 1.02.196 1.413.587.391.392.587.863.587 1.413s-.196 1.02-.587 1.412A1.926 1.926 0 0117 5.5z" fill="currentColor"/></g></symbol><symbol id="icon__ticket" viewBox="0 0 24 24"><g fill="none"><path d="M11.8 12.9l-2.4.6-1.075-.8c-.05-.033-.183-.067-.4-.1l-.125.05a.451.451 0 00-.325.262.407.407 0 00.025.413l1.15 2c.067.1.15.17.25.213a.48.48 0 00.325.012l8.525-2.25a.864.864 0 00.563-.463.997.997 0 00.087-.737.877.877 0 00-.438-.563.925.925 0 00-.712-.087l-2.45.65-3.725-3.5a.59.59 0 00-.3-.162.712.712 0 00-.35.012l-.125.025a.647.647 0 00-.488.4.665.665 0 00.038.625l1.95 3.4zM4 20c-.55 0-1.02-.196-1.413-.587A1.926 1.926 0 012 18v-3.375c0-.183.058-.342.175-.475a.76.76 0 01.45-.25c.4-.133.73-.375.987-.725A1.93 1.93 0 004 12c0-.433-.13-.825-.388-1.175a1.983 1.983 0 00-.987-.725.76.76 0 01-.45-.25A.698.698 0 012 9.375V6c0-.55.196-1.02.587-1.412A1.926 1.926 0 014 4h16c.55 0 1.02.196 1.413.588.391.391.587.862.587 1.412v12c0 .55-.196 1.02-.587 1.413A1.926 1.926 0 0120 20H4zm0-2h16V6H4v2.55a4.1 4.1 0 011.463 1.462C5.82 10.621 6 11.284 6 12c0 .717-.18 1.38-.537 1.988A4.1 4.1 0 014 15.45V18z" fill="currentColor"/></g></symbol><symbol id="icon__upload" viewBox="0 0 25 25"><g fill="none"><path d="M11.25 16.492v-8.15l-2.6 2.6-1.4-1.45 5-5 5 5-1.4 1.45-2.6-2.6v8.15h-2zm-5 4c-.55 0-1.02-.196-1.412-.587a1.926 1.926 0 01-.588-1.413v-3h2v3h12v-3h2v3a1.93 1.93 0 01-.587 1.413 1.926 1.926 0 01-1.413.587h-12z" fill="currentColor"/></g></symbol><symbol id="icon__user" viewBox="0 0 24 24"><g fill="none"><path d="M5.85 17.1c.85-.65 1.8-1.163 2.85-1.538A9.737 9.737 0 0112 15c1.15 0 2.25.188 3.3.563 1.05.374 2 .887 2.85 1.537a7.73 7.73 0 001.363-2.325A7.838 7.838 0 0020 12c0-2.217-.78-4.104-2.337-5.662C16.104 4.779 14.217 4 12 4s-4.104.78-5.662 2.338C4.779 7.896 4 9.783 4 12c0 .983.162 1.908.487 2.775A7.73 7.73 0 005.85 17.1zM12 13c-.983 0-1.813-.338-2.488-1.012C8.837 11.313 8.5 10.483 8.5 9.5c0-.983.338-1.813 1.012-2.487C10.188 6.338 11.017 6 12 6c.983 0 1.813.338 2.488 1.013.675.675 1.012 1.504 1.012 2.487 0 .983-.338 1.813-1.012 2.488C13.813 12.663 12.983 13 12 13zm0 9a9.738 9.738 0 01-3.9-.788 10.099 10.099 0 01-3.175-2.137c-.9-.9-1.612-1.958-2.137-3.175A9.738 9.738 0 012 12a9.74 9.74 0 01.788-3.9 10.099 10.099 0 012.137-3.175c.9-.9 1.958-1.612 3.175-2.137A9.738 9.738 0 0112 2a9.74 9.74 0 013.9.788 10.098 10.098 0 013.175 2.137c.9.9 1.613 1.958 2.137 3.175A9.738 9.738 0 0122 12a9.738 9.738 0 01-.788 3.9 10.098 10.098 0 01-2.137 3.175c-.9.9-1.958 1.613-3.175 2.137A9.738 9.738 0 0112 22zm0-2a7.97 7.97 0 002.5-.387 7.53 7.53 0 002.15-1.113 7.53 7.53 0 00-2.15-1.113A7.933 7.933 0 0012 17a7.97 7.97 0 00-2.5.387A7.53 7.53 0 007.35 18.5a7.53 7.53 0 002.15 1.113A7.933 7.933 0 0012 20zm0-9c.433 0 .792-.142 1.075-.425.283-.283.425-.642.425-1.075 0-.433-.142-.792-.425-1.075C12.792 8.142 12.433 8 12 8c-.433 0-.792.142-1.075.425-.283.283-.425.642-.425 1.075 0 .433.142.792.425 1.075.283.283.642.425 1.075.425z" fill="currentColor"/></g></symbol><symbol id="icon__visa" viewBox="0 0 24 24"><g fill="none"><path d="M4 22c-.55 0-1.02-.196-1.413-.587A1.926 1.926 0 012 20V9c0-.55.196-1.02.587-1.412A1.926 1.926 0 014 7h5V4c0-.55.196-1.02.588-1.413A1.926 1.926 0 0111 2h2c.55 0 1.02.196 1.412.587C14.804 2.98 15 3.45 15 4v3h5c.55 0 1.02.196 1.413.588.391.391.587.862.587 1.412v11c0 .55-.196 1.02-.587 1.413A1.926 1.926 0 0120 22H4zm0-2h16V9h-5c0 .55-.196 1.02-.588 1.412A1.926 1.926 0 0113 11h-2c-.55 0-1.02-.196-1.412-.588A1.926 1.926 0 019 9H4v11zm2-2h6v-.45c0-.283-.08-.546-.238-.788a1.57 1.57 0 00-.662-.562 5.158 5.158 0 00-1.012-.337A5.063 5.063 0 009 15.75a5.009 5.009 0 00-2.1.45 1.57 1.57 0 00-.663.563A1.41 1.41 0 006 17.55V18zm8-1.5h4V15h-4v1.5zM9 15c.417 0 .77-.146 1.063-.438.291-.291.437-.645.437-1.062 0-.417-.146-.77-.438-1.063A1.446 1.446 0 009 12c-.417 0-.77.146-1.063.438A1.447 1.447 0 007.5 13.5c0 .417.146.77.438 1.063.291.291.645.437 1.062.437zm5-1.5h4V12h-4v1.5zM11 9h2V4h-2v5z" fill="currentColor"/></g></symbol><view id="icon__calendar-view" viewBox="0 0 24 24"/><use href="#icon__calendar" width="24" height="24" x="0" y="0"/><view id="icon__arrow--down-view" viewBox="0 24 24 24"/><use href="#icon__arrow--down" width="24" height="24" x="0" y="24"/><view id="icon__search-view" viewBox="0 48 24 24"/><use href="#icon__search" width="24" height="24" x="0" y="48"/></svg>